<?xml version="1.0" encoding="utf-8"?>
<svg version="1.1" xmlns="http://www.w3.org/2000/svg" viewBox="831.682 19.829 810.264 819.624" style="max-height: 500px" width="820.1188118811881" height="826.1945">
  <g class="layer">
    <title>Layer 1</title>
    <g transform="rotate(2 835 826.192)" id="svg_1">
      <path id="svg_2" d="m813.7,318.48c14.43,-18.41 30.63,-35.83 48.61,-52.02c78.17,-70.39 176.03,-105.03 273.54,-105c-74.82,-83.05 -183.21,-135.27 -303.8,-135.27c-130.84,0 -247.33,61.48 -322.16,157.11c88.11,-0.06 176.89,28.23 251.7,86.68c19.06,14.89 36.44,31.14 52.11,48.5z" style="fill: none; stroke: rgb(250, 235, 215);"/>
      <path id="svg_3" d="m336.48,546.05c33.06,-8.24 66.18,-12.2 98.79,-12.23c-7.86,-31.65 -12.03,-64.74 -12.03,-98.82c0,-94.93 32.36,-182.31 86.65,-251.7c-121.43,0.09 -241.58,54.03 -322.14,157.14s-103.83,232.74 -74.53,350.58c54.19,-69.46 131.14,-122 223.26,-144.97z" style="fill: none; stroke: rgb(250, 235, 215);"/>
      <path id="svg_4" d="m292.3,1051.01c13.86,-31.13 31.14,-59.67 51.18,-85.38c-29.77,-13.29 -58.42,-30.38 -85.27,-51.36c-74.81,-58.44 -123.74,-137.74 -144.99,-223.25c-74.69,95.74 -106.16,223.64 -74.51,350.6s119.48,225.1 230.38,274.57c-21.37,-85.47 -15.4,-178.46 23.21,-265.18z" style="fill: none; stroke: rgb(250, 235, 215);"/>
      <path id="svg_5" d="m739.04,668.9c-76.57,-84.78 -186.82,-135.21 -303.78,-135.08c30.51,122.89 116.61,223.82 230.06,274.56c55.78,-0.09 112.48,11.28 166.73,35.44c-46.5,-51.64 -77.39,-111.87 -93.01,-174.92z" style="fill: none; stroke: rgb(250, 235, 215);"/>
      <path id="svg_6" d="m663.01,1396.7c-15.99,-30.08 -27.84,-61.27 -35.76,-92.89c-28.81,15.27 -59.91,27.33 -92.97,35.57c-92.12,22.97 -184.73,12.71 -265.19,-23.19c29.46,117.81 110.87,221.34 230.4,274.56c119.53,53.22 250.95,44.44 358.2,-12.49c-80.51,-35.78 -150.11,-97.74 -194.68,-181.56z" style="fill: none; stroke: rgb(250, 235, 215);"/>
      <path id="svg_7" d="m832.05,843.82c-59.39,0 -115.81,-12.67 -166.72,-35.44c-124.29,0.2 -244,57.39 -321.85,157.25c115.62,51.62 248.16,45.92 358,-12.25c34.26,-44.01 78.14,-81.68 130.57,-109.56z" style="fill: none; stroke: rgb(250, 235, 215);"/>
      <path id="svg_8" d="m1163.66,1317.4c-33.56,-5.91 -65.43,-15.77 -95.22,-29c-5.7,32.1 -15.35,64.04 -29.2,95.16c-38.62,86.73 -103.72,153.39 -181.55,194.7c110.97,49.31 242.68,48.9 358.21,-12.53c115.52,-61.42 189.51,-170.39 210.68,-289.96c-77.76,41.42 -169.43,58.12 -262.92,41.63z" style="fill: none; stroke: rgb(250, 235, 215);"/>
      <path id="svg_9" d="m832.05,843.82c-36.56,46.79 -81.28,83.45 -130.57,109.56c-76.36,98.06 -104.99,227.6 -74.23,350.43c111.86,-59.33 188.96,-167.29 210.75,-289.65c-13.59,-54.1 -16.26,-111.86 -5.95,-170.34z" style="fill: none; stroke: rgb(250, 235, 215);"/>
      <path id="svg_10" d="m1538.47,641.25c-15.24,86.78 -58.52,169.3 -129.07,232.82c-25.32,22.8 -52.71,41.85 -81.48,57.18c21.79,24.25 41.01,51.52 57.01,81.6c44.57,83.82 57.01,176.17 41.66,262.92c107.17,-57.08 187.94,-161.12 210.66,-289.97c22.72,-128.86 -17.59,-254.25 -98.78,-344.55z" style="fill: none; stroke: rgb(250, 235, 215);"/>
      <path id="svg_11" d="m832.05,843.82c14.36,57.62 15.72,115.43 5.95,170.34c30.26,120.55 114.71,222.86 230.44,274.24c22.12,-124.67 -15.49,-251.9 -98.5,-344.4c-50.99,-22.6 -98.16,-56.05 -137.89,-100.18z" style="fill: none; stroke: rgb(250, 235, 215);"/>
      <path id="svg_12" d="m1234.72,505.93c23.39,0.03 47.09,2.07 70.92,6.28c93.49,16.48 173.92,63.53 232.83,129.04c21,-119.6 -11.26,-247.29 -98.81,-344.53c-80.69,-89.61 -192.02,-135.22 -303.81,-135.26c65.27,72.45 105.01,168.35 105.01,273.55c0,24.19 -2.11,47.88 -6.14,70.92z" style="fill: none; stroke: rgb(250, 235, 215);"/>
      <path id="svg_13" d="m912.62,662.84c21.25,-121.64 -13.34,-249.56 -98.92,-344.36c-78.76,100.53 -104.34,230.56 -74.66,350.42c43.54,48.2 76.2,107.49 93.01,174.92c12.06,-68.44 40.5,-129.86 80.57,-180.98z" style="fill: none; stroke: rgb(250, 235, 215);"/>
      <path id="svg_14" d="m1024.27,795.89c108.93,-58.14 188.44,-164.16 210.45,-289.96c-127.71,-0.17 -245.92,59.73 -322.1,156.91c-11.17,63.98 -37.79,126.22 -80.57,180.98c61.35,-32.63 127.27,-48.03 192.22,-47.93z" style="fill: none; stroke: rgb(250, 235, 215);"/>
      <path id="svg_15" d="m1024.27,795.89c-57.3,30.58 -122.74,47.93 -192.22,47.93c54.25,24.15 100.64,58.67 137.89,100.18c113.63,50.37 246.24,46.81 357.98,-12.75c-78.16,-86.99 -189.41,-135.18 -303.65,-135.36z" style="fill: none; stroke: rgb(250, 235, 215);"/>
    </g>
  </g>
</svg>