<?xml version="1.0" encoding="utf-8"?>
<svg preserveAspectRatio="xMidYMid meet" viewBox="112.64 510.557 395.442 389.451" xmlns="http://www.w3.org/2000/svg" version="1.0" style="max-height: 500px" width="399.36" height="397.312" xmlns:bx="https://boxy-svg.com">
  <defs>
    <linearGradient id="color-0" bx:pinned="true" gradientUnits="userSpaceOnUse">
      <stop style="stop-color: rgba(0, 8, 10, 0.5);"/>
    </linearGradient>
  </defs>
  <g stroke="none" fill="#00080a" transform="translate(0.000000,1024.000000) scale(0.100000,-0.100000)">
    <path d="M4822 9030 c-998 -84 -1967 -546 -2604 -1243 -457 -501 -763 -1057 -917 -1668 -92 -363 -133 -663 -134 -969 -1 -748 236 -1516 667 -2167 387 -583 866 -998 1511 -1309 428 -206 817 -323 1315 -396 185 -26 564 -32 740 -10 654 81 1218 272 1750 592 277 168 471 322 710 566 306 313 515 607 705 995 277 566 443 1281 421 1814 -32 744 -273 1480 -683 2083 -164 243 -387 497 -618 705 -356 321 -831 602 -1315 778 -275 101 -614 180 -910 214 -164 19 -497 27 -638 15z m728 -835 c152 -154 299 -311 328 -350 57 -77 127 -213 163 -317 l23 -66 28 19 c47 34 168 86 262 113 180 52 405 72 952 83 l330 6 -2 -419 c-3 -660 -25 -825 -140 -1061 -25 -51 -43 -97 -40 -102 3 -5 18 -12 33 -16 58 -14 254 -116 323 -169 67 -50 426 -385 708 -661 l113 -110 -368 -353 c-451 -432 -515 -482 -730 -569 -48 -19 -90 -36 -91 -38 -2 -2 14 -34 37 -72 131 -222 161 -468 154 -1263 l-3 -255 -227 2 c-473 6 -826 33 -1013 79 -122 30 -181 54 -268 106 -62 38 -62 38 -71 16 -4 -13 -20 -58 -35 -101 -30 -82 -101 -207 -169 -296 -23 -30 -161 -176 -307 -325 -146 -149 -308 -317 -360 -372 -52 -56 -98 -102 -101 -103 -4 0 -173 170 -377 379 -269 276 -386 403 -426 462 -63 96 -140 250 -162 325 l-15 51 -69 -39 c-222 -128 -494 -167 -1267 -183 l-243 -5 0 382 c0 210 5 454 10 542 19 294 71 491 169 641 l21 30 -73 28 c-207 80 -342 174 -582 406 -99 96 -263 253 -364 349 l-183 175 73 71 c322 309 661 627 714 669 88 71 214 144 315 185 47 18 87 35 89 37 2 2 -19 47 -47 101 -115 226 -142 436 -142 1118 l0 355 118 0 c192 -1 688 -19 822 -30 162 -14 282 -35 384 -67 78 -24 186 -75 233 -109 22 -15 22 -15 39 43 39 138 140 312 254 438 35 39 207 218 383 398 l321 329 100 -104 c56 -56 225 -229 376 -383z" style="stroke-width: 20px; fill-rule: nonzero; paint-order: fill; fill: url(&quot;#color-0&quot;);"/>
    <path d="M5050 7771 c-8 -11 -71 -84 -139 -163 -68 -78 -195 -232 -283 -340 l-158 -197 -119 127 c-147 157 -250 256 -258 248 -11 -11 -33 -180 -43 -335 -5 -85 -11 -156 -13 -158 -3 -2 -65 6 -138 17 -74 12 -249 39 -389 61 -140 22 -284 46 -320 53 -36 8 -67 12 -69 10 -2 -2 6 -106 18 -231 26 -263 61 -656 61 -694 l0 -26 -147 -6 c-128 -5 -307 -28 -320 -41 -6 -6 88 -92 243 -223 78 -65 142 -122 143 -126 1 -5 -74 -71 -166 -149 -224 -187 -513 -439 -513 -448 0 -11 241 -219 470 -405 113 -92 209 -170 213 -174 4 -5 -41 -49 -100 -99 -164 -138 -299 -270 -288 -281 14 -12 166 -30 328 -38 92 -4 137 -10 137 -18 0 -13 -25 -303 -45 -515 -7 -85 -16 -193 -20 -240 -3 -47 -8 -108 -11 -137 l-6 -52 33 9 c19 6 111 21 204 35 294 44 667 105 676 111 5 3 9 -5 9 -18 1 -142 39 -471 56 -487 3 -3 89 79 190 183 105 108 188 185 193 180 4 -5 77 -92 161 -194 124 -149 360 -425 426 -499 11 -12 17 -9 41 19 15 19 105 122 198 230 94 108 218 253 278 323 59 70 111 127 115 127 4 -1 27 -26 52 -58 53 -66 299 -322 310 -322 12 0 40 201 51 359 5 80 11 146 12 147 5 5 758 -110 854 -130 l63 -13 -5 36 c-6 41 -26 268 -55 621 -11 135 -22 257 -24 271 l-5 26 137 6 c153 8 303 25 323 38 11 6 7 15 -16 40 -33 34 -230 210 -313 278 -29 24 -52 47 -50 51 2 4 107 96 233 204 345 294 443 380 442 387 -3 12 -210 193 -387 339 -96 79 -203 168 -237 198 l-62 53 100 81 c124 99 312 269 306 275 -13 13 -180 33 -319 39 l-157 7 4 41 c3 23 12 122 20 221 21 245 54 601 60 650 l6 41 -193 -32 c-249 -42 -702 -114 -715 -114 -5 0 -15 73 -22 173 -10 155 -31 292 -47 319 -8 13 -201 -177 -298 -293 l-73 -86 -30 36 c-16 20 -92 113 -168 206 -191 236 -407 485 -419 485 -6 -1 -18 -9 -26 -19z m101 -768 c105 -110 228 -258 344 -413 59 -80 109 -146 110 -147 0 -1 66 11 145 27 80 17 295 52 479 79 l334 48 -6 -79 c-12 -145 -68 -502 -103 -653 -54 -232 -58 -201 33 -271 124 -96 513 -434 513 -445 0 -7 -514 -441 -561 -474 -16 -11 -29 -26 -29 -34 0 -8 16 -84 35 -170 49 -221 135 -764 123 -776 -6 -6 -604 84 -788 119 -101 19 -185 34 -185 33 -12 -31 -347 -456 -453 -574 l-64 -72 -50 54 c-91 100 -252 299 -363 448 -106 144 -110 148 -140 142 -152 -32 -433 -81 -630 -110 -132 -19 -255 -38 -272 -41 -40 -7 -39 -12 -18 151 38 291 90 573 133 728 l19 68 -117 92 c-189 149 -490 409 -484 418 8 14 331 298 443 389 57 47 115 95 129 106 l26 21 -42 181 c-39 168 -62 298 -108 609 -9 68 -15 126 -11 129 10 10 595 -72 792 -111 94 -18 170 -32 171 -31 18 28 206 271 271 351 96 118 240 275 252 275 4 0 37 -30 72 -67z" style="stroke: rgb(0, 8, 10); fill: rgba(0, 8, 10, 0.19); stroke-width: 10px;"/>
    <path d="M4934 6283 c-77 -98 -155 -199 -174 -226 l-35 -48 -55 6 c-58 6 -324 51 -500 85 -58 11 -108 20 -111 20 -4 0 4 -35 16 -79 18 -62 94 -377 120 -498 4 -18 -12 -37 -87 -100 -50 -43 -147 -126 -214 -184 l-123 -107 210 -172 c115 -95 212 -176 214 -180 3 -5 -11 -79 -31 -167 -91 -400 -101 -448 -93 -451 4 -2 124 17 266 43 142 25 274 48 293 51 19 3 47 7 61 10 22 4 36 -8 110 -98 46 -56 116 -144 154 -193 87 -113 125 -159 129 -154 14 18 350 436 355 441 5 6 362 -53 614 -100 26 -5 47 -6 47 -3 0 4 -7 34 -16 66 -19 73 -124 534 -124 545 0 9 230 210 348 305 40 32 69 61 65 65 -4 4 -89 75 -188 158 -99 82 -191 161 -204 175 l-23 26 42 186 c23 102 55 236 71 297 16 61 28 113 26 114 -3 3 -187 -29 -549 -95 l-97 -18 -29 31 c-16 17 -100 120 -186 229 -86 108 -158 197 -160 197 -2 0 -66 -80 -142 -177z m304 -409 c264 -54 486 -263 558 -524 29 -102 26 -312 -4 -410 -83 -266 -271 -445 -525 -501 -124 -28 -327 -23 -432 11 -189 60 -330 181 -419 358 -72 144 -96 350 -60 515 49 224 214 420 428 510 131 55 308 71 454 41z" style="stroke-width: 10px; fill: rgba(0, 8, 10, 0.5);"/>
  </g>
</svg>