<?xml version="1.0" encoding="utf-8"?>
<svg preserveAspectRatio="xMidYMid meet" xmlns="http://www.w3.org/2000/svg" viewBox="99.84 0 626.223 355.84" style="max-height: 500px" width="629.76" height="355.84000000000003">
  <g class="layer">
    <title>Layer 1</title>
    <g transform="translate(0.000000,1280.000000) scale(0.100000,-0.100000)" id="svg_1" fill="#00080a">
      <path id="svg_2" d="m6450,12543c-157,-141 -285,-261 -285,-267c0,-18 517,-387 534,-381c11,4 548,311 558,320c2,1 -465,525 -510,572c-9,10 -76,-45 -297,-244z" style="fill: rgba(0, 8, 10, 0.44); stroke: rgb(0, 8, 10); stroke-width: 3px;"/>
      <path id="svg_3" d="m5167,12413c-126,-173 -227,-316 -225,-318c10,-10 592,-265 599,-263c5,2 116,100 248,218c185,166 237,218 228,227c-12,12 -617,453 -620,452c-1,0 -105,-142 -230,-316z" style="fill: rgba(0, 8, 10, 0.44); stroke: rgb(0, 8, 10); stroke-width: 3px;"/>
      <path id="svg_4" d="m7723,12397c-183,-106 -334,-195 -335,-199c-3,-7 419,-481 433,-486c12,-5 630,198 626,206c-84,147 -381,659 -386,664c-3,3 -156,-80 -338,-185z" style="fill: rgba(0, 8, 10, 0.44); stroke: rgb(0, 8, 10); stroke-width: 3px;"/>
      <path id="svg_5" d="m3945,12025c-87,-195 -156,-357 -154,-359c6,-5 641,-138 643,-134c2,2 89,122 194,267c106,146 191,265 189,266c-4,4 -707,315 -711,315c-2,0 -75,-160 -161,-355z" style="fill: rgba(0, 8, 10, 0.44); stroke: rgb(0, 8, 10); stroke-width: 3px;"/>
      <path id="svg_6" d="m5900,11946c-107,-96 -196,-179 -197,-183c-3,-9 402,-193 425,-193c12,0 387,213 405,229c7,7 -415,321 -432,321c-4,0 -95,-78 -201,-174z" style="fill: rgba(0, 8, 10, 0.44); stroke: rgb(0, 8, 10); stroke-width: 3px;"/>
      <path id="svg_7" d="m8937,11990c-197,-65 -361,-120 -364,-124c-5,-5 298,-539 318,-560c7,-8 646,50 657,59c3,2 -67,221 -189,593c-28,83 -54,152 -57,151c-4,0 -168,-54 -365,-119z" style="fill: rgba(0, 8, 10, 0.44); stroke: rgb(0, 8, 10); stroke-width: 3px;"/>
      <path id="svg_8" d="m7058,11927c-125,-73 -228,-135 -228,-138c0,-6 328,-249 367,-272c9,-6 95,17 236,63c122,40 224,74 226,76c5,4 -359,404 -367,403c-4,0 -109,-60 -234,-132z" style="fill: rgba(0, 8, 10, 0.44); stroke: rgb(0, 8, 10); stroke-width: 3px;"/>
      <path id="svg_9" d="m4831,11821c-47,-64 -118,-162 -159,-219c-41,-56 -73,-104 -71,-106c2,-3 105,-26 228,-52c198,-41 227,-45 246,-33c37,23 334,293 331,302c-1,7 -383,182 -471,217c-17,6 -32,-9 -104,-109z" style="fill: rgba(0, 8, 10, 0.44); stroke: rgb(0, 8, 10); stroke-width: 3px;"/>
      <path id="svg_10" d="m2906,11753c-6,-21 -156,-728 -156,-737c0,-4 149,-5 331,-4l331,3l129,290c71,159 127,295 125,301c-2,6 -33,17 -68,23c-34,7 -198,42 -363,77c-165,35 -305,64 -312,64c-6,0 -14,-8 -17,-17z" style="fill: rgba(0, 8, 10, 0.44); stroke: rgb(0, 8, 10); stroke-width: 3px;"/>
      <path id="svg_11" d="m8188,11668c-137,-45 -248,-84 -248,-87c0,-16 313,-351 328,-351c23,0 411,40 439,46c19,4 10,23 -113,236c-74,128 -140,234 -147,235c-6,1 -123,-35 -259,-79z" style="fill: rgba(0, 8, 10, 0.44); stroke: rgb(0, 8, 10); stroke-width: 3px;"/>
      <path id="svg_12" d="m6488,11597c-98,-56 -178,-105 -178,-108c0,-3 78,-41 174,-83l174,-77l181,58c99,32 181,61 181,65c0,9 -321,240 -340,244c-8,2 -95,-42 -192,-99z" style="fill: rgba(0, 8, 10, 0.44); stroke: rgb(0, 8, 10); stroke-width: 3px;"/>
      <path id="svg_13" d="m5410,11507c-87,-78 -159,-144 -159,-147c-1,-8 362,-83 380,-79c20,5 329,182 329,189c0,3 -88,44 -196,92l-196,86l-158,-141z" style="fill: rgba(0, 8, 10, 0.44); stroke: rgb(0, 8, 10); stroke-width: 3px;"/>
      <path id="svg_14" d="m7568,11466c-102,-33 -189,-64 -193,-67c-3,-4 62,-57 145,-118c106,-77 160,-111 178,-110c50,1 351,35 357,40c7,8 -275,319 -289,318c-6,-1 -95,-29 -198,-63z" style="fill: rgba(0, 8, 10, 0.44); stroke: rgb(0, 8, 10); stroke-width: 3px;"/>
      <path id="svg_15" d="m3782,11473c-27,-54 -202,-449 -202,-457c0,-3 107,-6 238,-6l237,0l138,191c77,105 137,192 135,193c-1,2 -113,27 -248,55c-135,28 -253,54 -262,57c-12,4 -22,-6 -36,-33z" style="fill: rgba(0, 8, 10, 0.44); stroke: rgb(0, 8, 10); stroke-width: 3px;"/>
      <path id="svg_16" d="m5993,11312c-73,-42 -133,-79 -133,-82c0,-3 65,-19 145,-36l145,-30l140,45c77,25 140,48 140,51c0,8 -277,130 -293,130c-7,-1 -72,-36 -144,-78z" style="fill: rgba(0, 8, 10, 0.44); stroke: rgb(0, 8, 10); stroke-width: 3px;"/>
      <path id="svg_17" d="m10033,11340c-193,-21 -358,-40 -365,-42c-11,-2 8,-73 85,-308c54,-168 102,-309 106,-313c9,-9 643,-78 650,-71c5,4 -67,728 -75,757c-6,21 24,23 -401,-23z" style="fill: rgba(0, 8, 10, 0.44); stroke: rgb(0, 8, 10); stroke-width: 3px;"/>
      <path id="svg_18" d="m4368,11185l-127,-175l197,0l197,0l142,128c78,70 140,129 138,130c-3,4 -402,91 -415,92c-3,0 -62,-79 -132,-175z" style="fill: rgba(0, 8, 10, 0.44); stroke: rgb(0, 8, 10); stroke-width: 3px;"/>
      <path id="svg_19" d="m7022,11288c-85,-27 -152,-51 -150,-53c1,-2 64,-31 139,-64l137,-61l138,15c77,9 145,17 152,18c8,1 -47,46 -121,100c-74,53 -137,97 -139,96c-1,0 -72,-23 -156,-51z" style="fill: rgba(0, 8, 10, 0.44); stroke: rgb(0, 8, 10); stroke-width: 3px;"/>
      <path id="svg_20" d="m4982,11120l-123,-110l156,0l156,0l125,72c68,40 124,75 124,78c0,3 -64,18 -142,34c-79,16 -150,31 -158,33c-8,2 -70,-45 -138,-107z" style="fill: rgba(0, 8, 10, 0.44); stroke: rgb(0, 8, 10); stroke-width: 3px;"/>
      <path id="svg_21" d="m9237,11180c-136,-15 -249,-29 -252,-31c-5,-5 223,-402 235,-409c12,-7 460,-53 465,-48c3,2 -33,119 -78,259c-70,215 -86,254 -102,255c-11,1 -131,-10 -268,-26z" style="fill: rgba(0, 8, 10, 0.44); stroke: rgb(0, 8, 10); stroke-width: 3px;"/>
      <path id="svg_22" d="m6553,11136c-51,-16 -93,-33 -93,-36c0,-3 42,-13 93,-23c69,-14 112,-17 172,-11c112,9 118,16 43,49c-131,57 -113,55 -215,21z" style="fill: rgba(0, 8, 10, 0.44); stroke: rgb(0, 8, 10); stroke-width: 3px;"/>
      <path id="svg_23" d="m8570,11110c-86,-10 -163,-19 -172,-21c-17,-4 -4,-20 194,-238l49,-54l177,-19c97,-10 184,-17 193,-16c11,2 -11,49 -90,185l-106,183l-45,-1c-25,-1 -115,-9 -200,-19z" style="fill: rgba(0, 8, 10, 0.44); stroke: rgb(0, 8, 10); stroke-width: 3px;"/>
      <path id="svg_24" d="m5560,11060l-85,-50l105,1c89,0 118,4 190,28c47,16 78,31 70,34c-25,9 -162,37 -179,37c-9,0 -54,-22 -101,-50z" style="fill: rgba(0, 8, 10, 0.44); stroke: rgb(0, 8, 10); stroke-width: 3px;"/>
      <path id="svg_25" d="m8013,11052c-79,-8 -143,-18 -143,-21c1,-3 53,-44 118,-91l117,-85l150,-17c82,-9 151,-15 153,-14c1,2 -46,57 -105,122c-66,74 -114,119 -127,120c-12,1 -85,-5 -163,-14z" style="fill: rgba(0, 8, 10, 0.44); stroke: rgb(0, 8, 10); stroke-width: 3px;"/>
      <path id="svg_26" d="m6045,10971l-110,-36l90,-3c88,-4 360,17 351,26c-3,2 -47,13 -98,23c-51,11 -100,21 -108,23c-8,2 -64,-13 -125,-33z" style="fill: rgba(0, 8, 10, 0.44); stroke: rgb(0, 8, 10); stroke-width: 3px;"/>
      <path id="svg_27" d="m7515,10999c-38,-5 -74,-10 -78,-12c-5,-1 36,-21 90,-44c80,-33 115,-43 188,-48l90,-7l-85,61c-91,65 -88,64 -205,50z" style="fill: rgba(0, 8, 10, 0.44); stroke: rgb(0, 8, 10); stroke-width: 3px;"/>
      <path id="svg_28" d="m7013,10947c-57,-6 -103,-13 -103,-17c0,-15 403,-80 416,-67c3,3 -115,56 -181,81c-21,9 -59,9 -132,3z" style="fill: rgba(0, 8, 10, 0.44); stroke: rgb(0, 8, 10); stroke-width: 3px;"/>
      <path id="svg_29" d="m1870,10540c0,-214 3,-390 7,-390c7,0 480,100 583,123l55,12l67,310c37,171 67,316 67,323c1,9 -83,12 -389,12l-390,0l0,-390z" style="fill: rgba(0, 8, 10, 0.44); stroke: rgb(0, 8, 10); stroke-width: 3px;"/>
      <path id="svg_30" d="m2791,10837c-11,-29 -113,-509 -109,-513c3,-2 371,73 444,91c17,4 42,51 114,212c51,115 95,214 97,221c4,9 -53,12 -266,12l-271,0l-9,-23z" style="fill: rgba(0, 8, 10, 0.44); stroke: rgb(0, 8, 10); stroke-width: 3px;"/>
      <path id="svg_31" d="m3485,10808c-72,-158 -153,-343 -150,-346c3,-3 377,76 380,81c1,1 52,71 113,155c62,84 112,155 112,157c0,3 -97,5 -216,5l-215,0l-24,-52z" style="fill: rgba(0, 8, 10, 0.44); stroke: rgb(0, 8, 10); stroke-width: 3px;"/>
      <path id="svg_32" d="m4037,10728c-53,-73 -95,-134 -93,-136c2,-2 68,11 147,28c159,35 138,22 319,189l55,50l-166,1l-167,0l-95,-132z" style="fill: rgba(0, 8, 10, 0.44); stroke: rgb(0, 8, 10); stroke-width: 3px;"/>
      <path id="svg_33" d="m4618,10793c-42,-38 -75,-69 -73,-71c2,-2 43,4 92,14c65,13 110,29 170,63c45,25 82,49 83,54c0,4 -44,7 -98,7l-98,0l-76,-67z" style="fill: rgba(0, 8, 10, 0.44); stroke: rgb(0, 8, 10); stroke-width: 3px;"/>
      <path id="svg_34" d="m5113,10802c-56,-31 -100,-58 -99,-60c12,-11 392,91 413,112c3,3 -43,6 -103,6l-109,0l-102,-58z" style="fill: rgba(0, 8, 10, 0.44); stroke: rgb(0, 8, 10); stroke-width: 3px;"/>
      <path id="svg_35" d="m7900,10694c99,-47 148,-67 249,-98c95,-29 94,-25 -21,57c-69,49 -83,55 -145,61c-37,4 -88,9 -113,12l-45,4l75,-36z" style="fill: rgba(0, 8, 10, 0.44); stroke: rgb(0, 8, 10); stroke-width: 3px;"/>
      <path id="svg_36" d="m8370,10668c0,-3 35,-29 78,-60c54,-39 102,-62 161,-81c47,-15 86,-25 88,-23c2,2 -29,38 -69,80c-60,63 -78,76 -104,76c-17,0 -59,3 -93,6c-33,4 -61,5 -61,2z" style="fill: rgba(0, 8, 10, 0.44); stroke: rgb(0, 8, 10); stroke-width: 3px;"/>
      <path id="svg_37" d="m8800,10625c0,-4 44,-55 97,-113l97,-107l140,-47c78,-27 144,-48 148,-48c9,0 -150,273 -164,281c-5,3 -65,12 -131,18c-67,7 -137,14 -154,18c-18,3 -33,2 -33,-2z" style="fill: rgba(0, 8, 10, 0.44); stroke: rgb(0, 8, 10); stroke-width: 3px;"/>
      <path id="svg_38" d="m9409,10403l97,-166l157,-53c86,-29 170,-55 186,-59l30,-6l-66,198c-36,109 -69,201 -72,205c-7,8 -347,48 -401,48c-28,0 -28,-1 69,-167z" style="fill: rgba(0, 8, 10, 0.44); stroke: rgb(0, 8, 10); stroke-width: 3px;"/>
      <path id="svg_39" d="m4411,10534c-81,-19 -111,-30 -140,-55c-91,-80 -133,-119 -126,-119c28,0 385,182 385,196c0,6 -3,5 -119,-22z" style="fill: rgba(0, 8, 10, 0.44); stroke: rgb(0, 8, 10); stroke-width: 3px;"/>
      <path id="svg_40" d="m9910,10508c0,-2 33,-104 73,-227l73,-225l224,-72c123,-40 226,-72 227,-70c2,2 -9,123 -24,270c-26,247 -29,267 -48,271c-20,5 -491,55 -513,55c-7,0 -12,-1 -12,-2z" style="fill: rgba(0, 8, 10, 0.44); stroke: rgb(0, 8, 10); stroke-width: 3px;"/>
      <path id="svg_41" d="m10605,10463c3,-27 19,-171 35,-321c16,-151 31,-277 35,-280c10,-11 620,-209 623,-203c6,15 81,766 76,770c-6,6 -691,80 -742,81l-33,0l6,-47z" style="fill: rgba(0, 8, 10, 0.44); stroke: rgb(0, 8, 10); stroke-width: 3px;"/>
      <path id="svg_42" d="m3897,10424c-54,-12 -99,-24 -101,-26c-1,-1 -27,-38 -59,-80c-31,-43 -57,-79 -57,-82c0,-8 173,75 199,95c37,30 123,111 119,113c-2,1 -47,-8 -101,-20z" style="fill: rgba(0, 8, 10, 0.44); stroke: rgb(0, 8, 10); stroke-width: 3px;"/>
      <path id="svg_43" d="m3394,10318l-141,-31l-65,-146c-36,-80 -62,-147 -58,-149c3,-1 64,24 136,56l129,58l78,104c98,131 103,140 80,139c-10,0 -82,-15 -159,-31z" style="fill: rgba(0, 8, 10, 0.44); stroke: rgb(0, 8, 10); stroke-width: 3px;"/>
      <path id="svg_44" d="m8700,10335c0,-8 184,-137 245,-172c125,-72 124,-71 91,-32c-110,131 -119,138 -231,173c-58,19 -105,32 -105,31z" style="fill: rgba(0, 8, 10, 0.44); stroke: rgb(0, 8, 10); stroke-width: 3px;"/>
      <path id="svg_45" d="m2855,10204c-110,-25 -203,-48 -207,-52c-6,-6 -98,-414 -94,-418c3,-4 343,149 353,159c8,9 110,228 160,345c6,15 27,18 -212,-34z" style="fill: rgba(0, 8, 10, 0.44); stroke: rgb(0, 8, 10); stroke-width: 3px;"/>
      <path id="svg_46" d="m9247,10124c22,-27 54,-62 71,-77c30,-28 174,-118 181,-112c1,2 -19,42 -45,89l-49,86l-85,27c-47,14 -92,28 -100,31c-8,3 4,-16 27,-44z" style="fill: rgba(0, 8, 10, 0.44); stroke: rgb(0, 8, 10); stroke-width: 3px;"/>
      <path id="svg_47" d="m2204,10065c-133,-29 -247,-55 -253,-59c-17,-11 -16,-550 2,-543c46,19 422,189 425,192c3,2 24,98 48,212c24,114 46,218 49,231c7,29 16,30 -271,-33z" style="fill: rgba(0, 8, 10, 0.44); stroke: rgb(0, 8, 10); stroke-width: 3px;"/>
      <path id="svg_48" d="m3601,10032l-104,-47l-65,-88c-35,-48 -63,-90 -61,-92c6,-5 200,144 275,213c38,34 67,62 64,62c-3,0 -52,-22 -109,-48z" style="fill: rgba(0, 8, 10, 0.44); stroke: rgb(0, 8, 10); stroke-width: 3px;"/>
      <path id="svg_49" d="m1585,10010c-93,-20 -252,-54 -353,-75c-100,-22 -187,-42 -193,-46c-8,-4 10,-104 56,-325c38,-176 73,-343 79,-373c6,-30 16,-56 21,-58c6,-2 141,55 300,126l290,129l3,331c2,311 1,331 -15,330c-10,-1 -94,-18 -188,-39z" style="fill: rgba(0, 8, 10, 0.44); stroke: rgb(0, 8, 10); stroke-width: 3px;"/>
      <path id="svg_50" d="m9637,10007c11,-18 45,-78 78,-133l58,-102l96,-55c53,-30 112,-64 133,-76l36,-22l-18,59c-10,32 -33,103 -52,158l-33,99l-137,46c-195,66 -183,64 -161,26z" style="fill: rgba(0, 8, 10, 0.44); stroke: rgb(0, 8, 10); stroke-width: 3px;"/>
      <path id="svg_51" d="m10120,9867c0,-7 26,-91 58,-187l59,-174l166,-97l167,-97l0,29c0,51 -41,394 -48,400c-18,17 -402,136 -402,126z" style="fill: rgba(0, 8, 10, 0.44); stroke: rgb(0, 8, 10); stroke-width: 3px;"/>
      <path id="svg_52" d="m3115,9815l-90,-42l-42,-91c-23,-51 -39,-92 -36,-92c2,0 38,25 79,54c51,37 93,80 131,131c30,42 54,78 52,79c-2,2 -45,-15 -94,-39z" style="fill: rgba(0, 8, 10, 0.44); stroke: rgb(0, 8, 10); stroke-width: 3px;"/>
      <path id="svg_53" d="m9502,9728c54,-65 175,-186 229,-229l41,-33l-15,30c-77,149 -92,165 -198,226l-101,58l44,-52z" style="fill: rgba(0, 8, 10, 0.44); stroke: rgb(0, 8, 10); stroke-width: 3px;"/>
      <path id="svg_54" d="m10690,9668c1,-41 46,-447 51,-452c12,-12 404,-234 407,-231c8,8 60,530 54,536c-6,5 -370,127 -489,163c-19,6 -23,4 -23,-16z" style="fill: rgba(0, 8, 10, 0.44); stroke: rgb(0, 8, 10); stroke-width: 3px;"/>
      <path id="svg_55" d="m2659,9612l-146,-65l-32,-154c-18,-85 -31,-156 -28,-159c4,-5 218,148 235,168c15,18 123,261 120,268c-2,4 -69,-22 -149,-58z" style="fill: rgba(0, 8, 10, 0.44); stroke: rgb(0, 8, 10); stroke-width: 3px;"/>
      <path id="svg_56" d="m11360,9531c0,-10 -14,-148 -31,-306c-16,-158 -29,-299 -27,-312c3,-21 47,-50 278,-184c151,-87 278,-159 282,-159c4,0 59,160 123,357c65,196 119,362 122,369c3,9 -107,49 -365,133c-203,67 -372,121 -376,121c-3,0 -6,-8 -6,-19z" style="fill: rgba(0, 8, 10, 0.44); stroke: rgb(0, 8, 10); stroke-width: 3px;"/>
      <path id="svg_57" d="m9942,9478c8,-13 30,-49 48,-81c27,-48 167,-194 177,-184c1,2 -11,46 -28,98l-31,95l-83,47c-45,26 -86,47 -90,47c-4,0 -1,-10 7,-22z" style="fill: rgba(0, 8, 10, 0.44); stroke: rgb(0, 8, 10); stroke-width: 3px;"/>
      <path id="svg_58" d="m2140,9381l-195,-87l-3,-217c-1,-119 0,-217 2,-217c4,0 278,197 315,226c5,4 82,376 78,380c-1,2 -90,-36 -197,-85z" style="fill: rgba(0, 8, 10, 0.44); stroke: rgb(0, 8, 10); stroke-width: 3px;"/>
      <path id="svg_59" d="m2899,9366c-70,-53 -90,-73 -107,-113c-11,-26 -32,-75 -47,-108l-25,-60l37,42c115,127 253,303 236,303c-4,-1 -47,-29 -94,-64z" style="fill: rgba(0, 8, 10, 0.44); stroke: rgb(0, 8, 10); stroke-width: 3px;"/>
      <path id="svg_60" d="m10310,9283c0,-2 21,-69 46,-146l45,-142l110,-99c61,-54 112,-97 113,-95c5,5 -29,317 -35,323c-11,11 -279,164 -279,159z" style="fill: rgba(0, 8, 10, 0.44); stroke: rgb(0, 8, 10); stroke-width: 3px;"/>
      <path id="svg_61" d="m1535,9112c-165,-74 -239,-112 -238,-122c3,-28 106,-515 109,-518c1,-2 88,58 193,135l191,138l0,238c0,130 -3,237 -7,237c-5,0 -116,-49 -248,-108z" style="fill: rgba(0, 8, 10, 0.44); stroke: rgb(0, 8, 10); stroke-width: 3px;"/>
      <path id="svg_62" d="m2495,9073c-33,-25 -68,-51 -78,-58c-12,-9 -26,-46 -41,-114c-13,-56 -20,-101 -17,-100c3,0 33,31 66,69c39,45 75,100 102,159c23,50 39,91 35,90c-4,0 -34,-21 -67,-46z" style="fill: rgba(0, 8, 10, 0.44); stroke: rgb(0, 8, 10); stroke-width: 3px;"/>
      <path id="svg_63" d="m10110,9040c54,-104 210,-340 225,-340c2,0 -13,48 -32,107c-38,113 -45,122 -172,229c-33,28 -34,28 -21,4z" style="fill: rgba(0, 8, 10, 0.44); stroke: rgb(0, 8, 10); stroke-width: 3px;"/>
      <path id="svg_64" d="m10760,9007c0,-12 9,-99 19,-194l18,-172l54,-49c30,-27 95,-85 144,-130l90,-81l6,37c11,59 42,392 38,396c-2,2 -86,51 -186,109c-162,94 -183,103 -183,84z" style="fill: rgba(0, 8, 10, 0.44); stroke: rgb(0, 8, 10); stroke-width: 3px;"/>
      <path id="svg_65" d="m773,8856c-189,-84 -345,-155 -349,-158c-3,-3 66,-166 154,-362l159,-356l264,192c145,105 266,193 267,194c9,6 -133,644 -143,643c-5,0 -164,-69 -352,-153z" style="fill: rgba(0, 8, 10, 0.44); stroke: rgb(0, 8, 10); stroke-width: 3px;"/>
      <path id="svg_66" d="m2072,8764l-132,-95l0,-167l1,-167l50,55c28,30 75,83 105,116l55,62l30,142c17,78 29,144 27,146c-3,2 -64,-39 -136,-92z" style="fill: rgba(0, 8, 10, 0.44); stroke: rgb(0, 8, 10); stroke-width: 3px;"/>
      <path id="svg_67" d="m11276,8707c-6,-26 -46,-415 -46,-439c0,-15 334,-328 350,-328c9,0 173,511 167,517c-3,3 -109,65 -236,138c-212,122 -231,131 -235,112z" style="fill: rgba(0, 8, 10, 0.44); stroke: rgb(0, 8, 10); stroke-width: 3px;"/>
      <path id="svg_68" d="m10502,8689c4,-9 16,-50 28,-90c16,-52 39,-97 79,-153c63,-89 68,-86 52,38c-8,65 -14,83 -38,108c-47,50 -127,114 -121,97z" style="fill: rgba(0, 8, 10, 0.44); stroke: rgb(0, 8, 10); stroke-width: 3px;"/>
      <path id="svg_69" d="m2410,8630c-14,-16 -46,-53 -73,-83c-44,-51 -49,-62 -71,-163c-13,-60 -23,-110 -21,-112c1,-1 28,41 58,95c56,99 142,281 135,288c-2,2 -15,-9 -28,-25z" style="fill: rgba(0, 8, 10, 0.44); stroke: rgb(0, 8, 10); stroke-width: 3px;"/>
      <path id="svg_70" d="m1630,8444c-85,-63 -163,-120 -173,-127c-17,-11 -16,-23 27,-221c25,-114 46,-210 48,-211c2,-2 60,60 130,138l128,142l0,198c0,108 -1,197 -2,196c-2,0 -73,-52 -158,-115z" style="fill: rgba(0, 8, 10, 0.44); stroke: rgb(0, 8, 10); stroke-width: 3px;"/>
      <path id="svg_71" d="m11810,8140c-56,-171 -100,-314 -98,-319c4,-9 479,-436 485,-436c9,0 391,670 385,676c-4,4 -137,82 -297,174c-159,92 -309,179 -332,192l-42,24l-101,-311z" style="fill: rgba(0, 8, 10, 0.44); stroke: rgb(0, 8, 10); stroke-width: 3px;"/>
      <path id="svg_72" d="m10825,8364c3,-27 12,-96 18,-154l13,-105l84,-117c47,-65 87,-117 91,-118c5,0 41,322 36,325c-1,1 -49,44 -107,96c-153,138 -142,132 -135,73z" style="fill: rgba(0, 8, 10, 0.44); stroke: rgb(0, 8, 10); stroke-width: 3px;"/>
      <path id="svg_73" d="m2008,8182l-68,-76l0,-98c0,-54 3,-98 8,-98c4,0 27,37 52,81c31,57 51,110 66,175c11,52 18,94 15,94c-3,-1 -36,-35 -73,-78z" style="fill: rgba(0, 8, 10, 0.44); stroke: rgb(0, 8, 10); stroke-width: 3px;"/>
      <path id="svg_74" d="m10575,8213c4,-10 18,-54 32,-97c26,-83 113,-289 119,-283c2,2 -1,52 -8,111l-12,108l-63,89c-62,86 -83,108 -68,72z" style="fill: rgba(0, 8, 10, 0.44); stroke: rgb(0, 8, 10); stroke-width: 3px;"/>
      <path id="svg_75" d="m1095,8054c-110,-80 -208,-151 -217,-158c-15,-11 -6,-35 94,-259c61,-136 114,-246 118,-245c20,9 310,343 310,358c0,9 -20,111 -45,226c-25,114 -45,211 -45,216c0,4 -3,8 -7,8c-5,0 -98,-66 -208,-146z" style="fill: rgba(0, 8, 10, 0.44); stroke: rgb(0, 8, 10); stroke-width: 3px;"/>
      <path id="svg_76" d="m11206,8039c-6,-29 -36,-315 -36,-345c0,-23 211,-320 225,-317c7,1 134,373 135,394c0,5 -210,198 -297,273c-22,18 -22,18 -27,-5z" style="fill: rgba(0, 8, 10, 0.44); stroke: rgb(0, 8, 10); stroke-width: 3px;"/>
      <path id="svg_77" d="m1710,7852c-41,-46 -90,-101 -107,-122l-33,-38l33,-156c17,-86 35,-156 38,-156c3,0 38,56 77,125l73,125l-3,152l-3,153l-75,-83z" style="fill: rgba(0, 8, 10, 0.44); stroke: rgb(0, 8, 10); stroke-width: 3px;"/>
      <path id="svg_78" d="m435,7669c-143,-105 -284,-208 -313,-228l-52,-38l220,-304c122,-167 227,-309 233,-316c9,-9 61,43 227,227c118,131 216,243 218,248c4,12 -259,602 -267,601c-3,0 -123,-86 -266,-190z" style="fill: rgba(0, 8, 10, 0.44); stroke: rgb(0, 8, 10); stroke-width: 3px;"/>
      <path id="svg_79" d="m10890,7769c1,-84 20,-170 56,-253l39,-89l6,39c4,21 10,68 13,104l7,65l-61,84c-58,82 -60,83 -60,50z" style="fill: rgba(0, 8, 10, 0.44); stroke: rgb(0, 8, 10); stroke-width: 3px;"/>
      <path id="svg_80" d="m1998,7687l-58,-102l0,-109c0,-60 3,-106 6,-103c21,21 123,401 112,413c-2,1 -29,-43 -60,-99z" style="fill: rgba(0, 8, 10, 0.44); stroke: rgb(0, 8, 10); stroke-width: 3px;"/>
      <path id="svg_81" d="m11581,7436c-48,-147 -70,-229 -65,-238c24,-40 267,-368 273,-368c5,0 257,431 269,461c3,6 -391,369 -400,369c-2,0 -37,-101 -77,-224z" style="fill: rgba(0, 8, 10, 0.44); stroke: rgb(0, 8, 10); stroke-width: 3px;"/>
      <path id="svg_82" d="m1293,7390l-141,-158l86,-196c48,-107 89,-195 92,-196c3,0 48,75 100,166l96,165l-41,190c-22,104 -42,189 -45,188c-3,0 -69,-72 -147,-159z" style="fill: rgba(0, 8, 10, 0.44); stroke: rgb(0, 8, 10); stroke-width: 3px;"/>
      <path id="svg_83" d="m11140,7435c0,-11 -7,-80 -15,-153l-15,-134l62,-139c33,-77 63,-138 65,-136c2,2 25,73 52,157l50,154l-91,125c-109,151 -108,150 -108,126z" style="fill: rgba(0, 8, 10, 0.44); stroke: rgb(0, 8, 10); stroke-width: 3px;"/>
      <path id="svg_84" d="m10860,7319c0,-76 59,-424 69,-413c3,3 10,52 16,110l11,105l-44,102c-48,110 -52,118 -52,96z" style="fill: rgba(0, 8, 10, 0.44); stroke: rgb(0, 8, 10); stroke-width: 3px;"/>
      <path id="svg_85" d="m1736,7233l-49,-86l18,-91c10,-50 21,-94 25,-99c3,-4 19,32 34,80c23,75 26,102 24,185l-3,97l-49,-86z" style="fill: rgba(0, 8, 10, 0.44); stroke: rgb(0, 8, 10); stroke-width: 3px;"/>
      <path id="svg_86" d="m12058,6986c-86,-149 -160,-278 -163,-287c-4,-11 53,-98 182,-275c103,-141 193,-259 198,-260c8,-2 332,351 487,530l37,43l-266,239c-146,131 -277,249 -292,260l-26,22l-157,-272z" style="fill: rgba(0, 8, 10, 0.44); stroke: rgb(0, 8, 10); stroke-width: 3px;"/>
      <path id="svg_87" d="m856,6903c-102,-114 -174,-203 -171,-211c12,-31 310,-431 316,-424c17,17 229,393 229,404c0,18 -183,428 -190,428c-4,0 -86,-89 -184,-197z" style="fill: rgba(0, 8, 10, 0.44); stroke: rgb(0, 8, 10); stroke-width: 3px;"/>
      <path id="svg_88" d="m11387,6839l-58,-182l77,-173c42,-96 80,-174 83,-174c12,1 212,362 208,375c-9,21 -238,335 -245,335c-4,0 -33,-82 -65,-181z" style="fill: rgba(0, 8, 10, 0.44); stroke: rgb(0, 8, 10); stroke-width: 3px;"/>
      <path id="svg_89" d="m1495,6818c-38,-67 -74,-130 -79,-140c-7,-13 8,-55 55,-163c35,-80 66,-145 69,-145c7,0 91,252 92,277c2,26 -54,293 -61,293c-3,0 -37,-55 -76,-122z" style="fill: rgba(0, 8, 10, 0.44); stroke: rgb(0, 8, 10); stroke-width: 3px;"/>
      <path id="svg_90" d="m1829,6753l-36,-110l22,-107c13,-59 25,-109 28,-112c8,-9 29,264 25,350l-3,88l-36,-109z" style="fill: rgba(0, 8, 10, 0.44); stroke: rgb(0, 8, 10); stroke-width: 3px;"/>
      <path id="svg_91" d="m11077,6810c-18,-77 -18,-166 0,-256c10,-52 21,-94 24,-94c8,0 64,182 61,197c-2,7 -20,50 -41,95c-33,71 -39,79 -44,58z" style="fill: rgba(0, 8, 10, 0.44); stroke: rgb(0, 8, 10); stroke-width: 3px;"/>
      <path id="svg_92" d="m261,6356c-139,-156 -253,-287 -253,-291c0,-7 574,-527 577,-522c25,32 319,555 319,566c1,19 -365,530 -379,530c-5,0 -124,-127 -264,-283z" style="fill: rgba(0, 8, 10, 0.44); stroke: rgb(0, 8, 10); stroke-width: 3px;"/>
      <path id="svg_93" d="m11783,6508c-84,-139 -213,-369 -213,-380c0,-18 182,-428 190,-428c8,0 354,386 358,399c2,7 -276,400 -308,434c-4,5 -16,-6 -27,-25z" style="fill: rgba(0, 8, 10, 0.44); stroke: rgb(0, 8, 10); stroke-width: 3px;"/>
      <path id="svg_94" d="m1202,6309c-57,-99 -101,-186 -99,-194c8,-20 239,-335 246,-335c3,0 32,82 64,181l58,182l-77,173c-42,96 -80,174 -83,174c-3,0 -53,-82 -109,-181z" style="fill: rgba(0, 8, 10, 0.44); stroke: rgb(0, 8, 10); stroke-width: 3px;"/>
      <path id="svg_95" d="m11212,6300c-24,-71 -44,-137 -44,-147c-2,-26 54,-293 61,-293c5,0 129,209 155,262c7,13 -8,55 -55,163c-35,80 -66,145 -69,145c-3,0 -25,-58 -48,-130z" style="fill: rgba(0, 8, 10, 0.44); stroke: rgb(0, 8, 10); stroke-width: 3px;"/>
      <path id="svg_96" d="m10942,6266c-7,-62 -12,-162 -11,-222l1,-109l37,111l38,110l-22,108c-13,59 -25,109 -27,112c-2,2 -10,-47 -16,-110z" style="fill: rgba(0, 8, 10, 0.44); stroke: rgb(0, 8, 10); stroke-width: 3px;"/>
      <path id="svg_97" d="m1664,6245l-31,-94l41,-91c23,-53 43,-85 47,-78c18,35 20,181 3,261c-9,45 -20,85 -23,90c-4,4 -21,-36 -37,-88z" style="fill: rgba(0, 8, 10, 0.44); stroke: rgb(0, 8, 10); stroke-width: 3px;"/>
      <path id="svg_98" d="m12050,5790c-118,-132 -216,-243 -218,-248c-2,-8 252,-589 262,-599c2,-2 145,98 317,223c173,125 315,228 317,229c3,3 -433,603 -451,622c-10,10 -60,-40 -227,-227z" style="fill: rgba(0, 8, 10, 0.44); stroke: rgb(0, 8, 10); stroke-width: 3px;"/>
      <path id="svg_99" d="m875,5743c-71,-124 -131,-229 -133,-233c-3,-8 397,-374 403,-368c10,11 145,444 141,454c-8,20 -268,374 -275,374c-3,0 -64,-102 -136,-227z" style="fill: rgba(0, 8, 10, 0.44); stroke: rgb(0, 8, 10); stroke-width: 3px;"/>
      <path id="svg_100" d="m11375,5803c-50,-86 -92,-163 -94,-171c-4,-19 71,-382 79,-381c3,0 69,72 147,159l141,158l-86,196c-48,107 -89,196 -92,196c-3,0 -46,-70 -95,-157z" style="fill: rgba(0, 8, 10, 0.44); stroke: rgb(0, 8, 10); stroke-width: 3px;"/>
      <path id="svg_101" d="m1512,5775l-51,-158l97,-134c53,-73 98,-130 99,-125c1,4 9,72 18,151l15,143l-56,127c-31,69 -59,132 -64,140c-5,9 -26,-43 -58,-144z" style="fill: rgba(0, 8, 10, 0.44); stroke: rgb(0, 8, 10); stroke-width: 3px;"/>
      <path id="svg_102" d="m1867,5880c-4,-14 -10,-64 -15,-112l-8,-88l45,-104c25,-58 47,-104 49,-102c7,7 -20,215 -42,321c-17,80 -25,103 -29,85z" style="fill: rgba(0, 8, 10, 0.44); stroke: rgb(0, 8, 10); stroke-width: 3px;"/>
      <path id="svg_103" d="m11036,5763c-24,-76 -27,-101 -24,-185l3,-97l49,86l49,86l-18,91c-10,50 -21,94 -24,99c-4,4 -20,-32 -35,-80z" style="fill: rgba(0, 8, 10, 0.44); stroke: rgb(0, 8, 10); stroke-width: 3px;"/>
      <path id="svg_104" d="m1335,5234l-67,-207l24,-23c13,-12 84,-77 158,-143c111,-100 136,-118 142,-104c6,17 38,307 38,350c0,15 -156,244 -225,331c-1,1 -33,-90 -70,-204z" style="fill: rgba(0, 8, 10, 0.44); stroke: rgb(0, 8, 10); stroke-width: 3px;"/>
      <path id="svg_105" d="m10849,5425c-21,-34 -109,-366 -109,-407c0,-7 27,35 61,93l60,107l-3,108c-2,60 -6,105 -9,99z" style="fill: rgba(0, 8, 10, 0.44); stroke: rgb(0, 8, 10); stroke-width: 3px;"/>
      <path id="svg_106" d="m597,5413c-2,-4 -89,-154 -192,-333c-103,-179 -189,-328 -191,-332c-2,-3 132,-85 298,-181c167,-96 320,-185 340,-196l37,-22l101,311c56,171 100,315 98,319c-2,4 -97,92 -213,196c-116,103 -224,201 -241,217c-18,17 -34,26 -37,21z" style="fill: rgba(0, 8, 10, 0.44); stroke: rgb(0, 8, 10); stroke-width: 3px;"/>
      <path id="svg_107" d="m11082,5296l-72,-125l0,-153l1,-153l56,60c30,33 79,87 109,121l54,61l-33,157c-17,86 -35,156 -38,156c-3,0 -38,-56 -77,-124z" style="fill: rgba(0, 8, 10, 0.44); stroke: rgb(0, 8, 10); stroke-width: 3px;"/>
      <path id="svg_108" d="m11555,5241c-82,-92 -151,-175 -153,-184c-3,-16 86,-447 93,-456c3,-3 329,229 422,299l21,16l-108,245c-60,134 -112,245 -117,246c-4,1 -75,-74 -158,-166z" style="fill: rgba(0, 8, 10, 0.44); stroke: rgb(0, 8, 10); stroke-width: 3px;"/>
      <path id="svg_109" d="m1807,5325c-21,-173 -25,-151 44,-245l61,-85l-7,89c-7,94 -15,121 -62,226l-30,65l-6,-50z" style="fill: rgba(0, 8, 10, 0.44); stroke: rgb(0, 8, 10); stroke-width: 3px;"/>
      <path id="svg_110" d="m2074,4935c3,-22 8,-73 12,-113c6,-69 10,-77 71,-163c36,-50 67,-89 69,-87c7,8 -75,235 -115,318c-37,76 -41,81 -37,45z" style="fill: rgba(0, 8, 10, 0.44); stroke: rgb(0, 8, 10); stroke-width: 3px;"/>
      <path id="svg_111" d="m1747,4770l-16,-160l47,-44c102,-94 196,-176 198,-173c2,2 -4,70 -14,153l-17,149l-85,117c-47,65 -87,118 -91,118c-3,0 -13,-72 -22,-160z" style="fill: rgba(0, 8, 10, 0.44); stroke: rgb(0, 8, 10); stroke-width: 3px;"/>
      <path id="svg_112" d="m11137,4777l-127,-142l0,-197l0,-197l173,126c94,69 173,127 175,128c3,3 -86,416 -90,421c-2,2 -61,-61 -131,-139z" style="fill: rgba(0, 8, 10, 0.44); stroke: rgb(0, 8, 10); stroke-width: 3px;"/>
      <path id="svg_113" d="m10800,4809c-31,-57 -51,-110 -66,-175c-11,-52 -18,-94 -15,-93c3,0 36,35 74,77l67,77l0,97c0,54 -3,98 -7,98c-5,0 -28,-37 -53,-81z" style="fill: rgba(0, 8, 10, 0.44); stroke: rgb(0, 8, 10); stroke-width: 3px;"/>
      <path id="svg_114" d="m1131,4604c-46,-141 -79,-259 -74,-263c32,-29 456,-262 462,-255c4,5 18,111 31,235l23,226l-44,40c-148,135 -305,273 -310,273c-3,0 -43,-115 -88,-256z" style="fill: rgba(0, 8, 10, 0.44); stroke: rgb(0, 8, 10); stroke-width: 3px;"/>
      <path id="svg_115" d="m11814,4639c-137,-100 -257,-187 -268,-194c-17,-13 -16,-25 42,-297c33,-156 64,-300 67,-320c4,-21 11,-38 15,-38c9,0 700,307 707,313c2,3 -62,153 -143,333c-80,181 -152,341 -158,356l-12,28l-250,-181z" style="fill: rgba(0, 8, 10, 0.44); stroke: rgb(0, 8, 10); stroke-width: 3px;"/>
      <path id="svg_116" d="m10502,4442c-50,-86 -122,-236 -137,-283c-6,-18 4,-10 37,26c111,124 107,116 132,231c13,60 23,110 21,112c-1,1 -25,-37 -53,-86z" style="fill: rgba(0, 8, 10, 0.44); stroke: rgb(0, 8, 10); stroke-width: 3px;"/>
      <path id="svg_117" d="m10770,4368c-46,-51 -92,-102 -102,-114c-16,-18 -86,-300 -76,-309c2,-2 63,40 136,92l132,95l0,164c0,90 -2,164 -4,164c-2,0 -41,-42 -86,-92z" style="fill: rgba(0, 8, 10, 0.44); stroke: rgb(0, 8, 10); stroke-width: 3px;"/>
      <path id="svg_118" d="m2130,4403c1,-16 5,-59 9,-98l9,-70l73,-67c40,-38 74,-66 76,-65c2,2 -9,42 -23,88c-19,60 -42,106 -82,162c-30,42 -57,77 -59,77c-1,0 -3,-12 -3,-27z" style="fill: rgba(0, 8, 10, 0.44); stroke: rgb(0, 8, 10); stroke-width: 3px;"/>
      <path id="svg_119" d="m1707,4378c-14,-106 -40,-388 -36,-391c2,-3 86,-52 187,-110c161,-93 182,-103 182,-84c-1,59 -39,370 -46,376c-27,24 -233,208 -255,228l-26,24l-6,-43z" style="fill: rgba(0, 8, 10, 0.44); stroke: rgb(0, 8, 10); stroke-width: 3px;"/>
      <path id="svg_120" d="m11198,4193l-188,-137l0,-238c0,-131 3,-238 8,-237c20,1 487,217 486,225c-5,44 -109,524 -113,524c-3,-1 -90,-62 -193,-137z" style="fill: rgba(0, 8, 10, 0.44); stroke: rgb(0, 8, 10); stroke-width: 3px;"/>
      <path id="svg_121" d="m814,3873c-64,-197 -119,-363 -121,-370c-3,-7 43,-27 124,-53c70,-23 238,-77 372,-121c134,-44 245,-78 246,-77c2,2 18,148 36,325c21,205 30,326 24,332c-14,13 -548,321 -557,321c-4,0 -60,-161 -124,-357z" style="fill: rgba(0, 8, 10, 0.44); stroke: rgb(0, 8, 10); stroke-width: 3px;"/>
      <path id="svg_122" d="m2497,3995c37,-111 51,-130 172,-231l34,-28l-18,33c-52,101 -205,331 -220,331c-2,0 12,-47 32,-105z" style="fill: rgba(0, 8, 10, 0.44); stroke: rgb(0, 8, 10); stroke-width: 3px;"/>
      <path id="svg_123" d="m2173,3978c3,-13 11,-82 18,-155c7,-72 15,-136 18,-141c7,-12 281,-173 281,-165c0,2 -20,69 -45,146l-46,142l-109,98c-60,53 -112,97 -115,97c-4,0 -5,-10 -2,-22z" style="fill: rgba(0, 8, 10, 0.44); stroke: rgb(0, 8, 10); stroke-width: 3px;"/>
      <path id="svg_124" d="m10375,3930c-39,-45 -75,-100 -102,-160l-43,-91l28,16c15,9 54,38 86,64l60,46l21,98c12,53 19,97 16,96c-3,0 -33,-31 -66,-69z" style="fill: rgba(0, 8, 10, 0.44); stroke: rgb(0, 8, 10); stroke-width: 3px;"/>
      <path id="svg_125" d="m10710,3838c-74,-55 -143,-106 -153,-113c-14,-10 -29,-60 -58,-201c-22,-103 -38,-188 -37,-189c2,-2 91,36 198,84l195,87l3,217c1,119 -1,217 -5,216c-5,0 -69,-46 -143,-101z" style="fill: rgba(0, 8, 10, 0.44); stroke: rgb(0, 8, 10); stroke-width: 3px;"/>
      <path id="svg_126" d="m1649,3818c-13,-89 -55,-535 -51,-539c10,-10 505,-169 510,-164c4,4 -35,409 -43,450c-3,15 -54,50 -167,115c-220,127 -248,142 -249,138z" style="fill: rgba(0, 8, 10, 0.44); stroke: rgb(0, 8, 10); stroke-width: 3px;"/>
      <path id="svg_127" d="m9993,3618c-78,-88 -199,-248 -188,-248c3,0 45,29 94,65c72,53 92,73 109,112c11,27 32,74 46,106c14,31 25,57 23,57c-1,0 -39,-42 -84,-92z" style="fill: rgba(0, 8, 10, 0.44); stroke: rgb(0, 8, 10); stroke-width: 3px;"/>
      <path id="svg_128" d="m11300,3540l-285,-128l-3,-332l-2,-332l27,6c400,84 726,155 730,160c5,5 -39,223 -127,626c-18,85 -31,126 -41,127c-8,1 -142,-56 -299,-127z" style="fill: rgba(0, 8, 10, 0.44); stroke: rgb(0, 8, 10); stroke-width: 3px;"/>
      <path id="svg_129" d="m2632,3580c3,-8 18,-53 32,-100l28,-85l84,-49c47,-26 87,-46 89,-45c6,7 -81,149 -111,180c-46,49 -129,115 -122,99z" style="fill: rgba(0, 8, 10, 0.44); stroke: rgb(0, 8, 10); stroke-width: 3px;"/>
      <path id="svg_130" d="m10233,3491c-60,-44 -115,-86 -121,-93c-15,-18 -123,-261 -120,-268c2,-4 69,22 149,58l146,65l32,154c18,85 31,156 28,159c-2,2 -53,-32 -114,-75z" style="fill: rgba(0, 8, 10, 0.44); stroke: rgb(0, 8, 10); stroke-width: 3px;"/>
      <path id="svg_131" d="m2230,3464c0,-51 41,-399 48,-405c17,-16 402,-136 402,-125c0,21 -112,351 -124,362c-6,6 -82,52 -168,102c-151,87 -158,90 -158,66z" style="fill: rgba(0, 8, 10, 0.44); stroke: rgb(0, 8, 10); stroke-width: 3px;"/>
      <path id="svg_132" d="m3079,3240c62,-106 78,-120 225,-197l29,-15l-21,29c-28,39 -199,211 -251,252l-41,33l59,-102z" style="fill: rgba(0, 8, 10, 0.44); stroke: rgb(0, 8, 10); stroke-width: 3px;"/>
      <path id="svg_133" d="m10636,3245c-115,-52 -211,-97 -214,-99c-6,-7 -102,-459 -98,-463c4,-5 514,104 526,112c12,7 14,545 3,544c-5,0 -102,-43 -217,-94z" style="fill: rgba(0, 8, 10, 0.44); stroke: rgb(0, 8, 10); stroke-width: 3px;"/>
      <path id="svg_134" d="m9772,3155c-51,-36 -91,-78 -129,-130c-30,-42 -54,-78 -52,-79c2,-2 45,15 94,39l90,42l42,91c23,51 39,92 35,92c-4,-1 -40,-25 -80,-55z" style="fill: rgba(0, 8, 10, 0.44); stroke: rgb(0, 8, 10); stroke-width: 3px;"/>
      <path id="svg_135" d="m2809,3032c26,-82 51,-154 55,-160c3,-6 73,-32 154,-58c81,-25 151,-49 157,-52c5,-3 0,10 -11,29c-11,19 -46,79 -78,135l-59,101l-101,59c-56,32 -115,66 -133,76l-31,19l47,-149z" style="fill: rgba(0, 8, 10, 0.44); stroke: rgb(0, 8, 10); stroke-width: 3px;"/>
      <path id="svg_136" d="m1500,3141c0,-3 -18,-177 -40,-386c-21,-209 -35,-382 -30,-385c11,-7 759,-84 765,-78c7,7 -63,640 -72,649c-4,4 -100,38 -213,74c-113,37 -251,81 -307,100c-57,18 -103,30 -103,26z" style="fill: rgba(0, 8, 10, 0.44); stroke: rgb(0, 8, 10); stroke-width: 3px;"/>
      <path id="svg_137" d="m10068,2991c-92,-42 -172,-80 -177,-86c-7,-8 -120,-254 -158,-344c-4,-9 -1,-12 13,-7c10,3 105,24 209,46c105,23 193,44 197,48c4,4 25,93 48,197c22,105 43,198 46,208c3,9 2,16 -3,16c-4,-1 -83,-36 -175,-78z" style="fill: rgba(0, 8, 10, 0.44); stroke: rgb(0, 8, 10); stroke-width: 3px;"/>
      <path id="svg_138" d="m9395,2976c-136,-102 -189,-144 -245,-197l-65,-60l60,26c33,14 81,36 108,47c39,17 59,37 113,110c36,49 64,91 62,93c-1,1 -16,-7 -33,-19z" style="fill: rgba(0, 8, 10, 0.44); stroke: rgb(0, 8, 10); stroke-width: 3px;"/>
      <path id="svg_139" d="m2293,2851c3,-23 16,-145 28,-272c22,-213 25,-230 44,-234c34,-7 517,-56 521,-53c2,2 -30,105 -69,228l-73,224l-209,68c-116,38 -219,71 -229,74c-17,6 -18,2 -13,-35z" style="fill: rgba(0, 8, 10, 0.44); stroke: rgb(0, 8, 10); stroke-width: 3px;"/>
      <path id="svg_140" d="m3300,2865c0,-4 21,-44 48,-90l47,-82l94,-31c52,-17 96,-30 98,-28c9,8 -133,147 -175,171c-26,15 -62,36 -79,47c-18,11 -33,16 -33,13z" style="fill: rgba(0, 8, 10, 0.44); stroke: rgb(0, 8, 10); stroke-width: 3px;"/>
      <path id="svg_141" d="m9536,2755c-65,-30 -125,-60 -133,-66c-21,-18 -174,-231 -169,-237c3,-2 75,11 160,29l156,33l14,36c8,19 37,86 65,148c28,64 45,112 38,111c-7,0 -65,-25 -131,-54z" style="fill: rgba(0, 8, 10, 0.44); stroke: rgb(0, 8, 10); stroke-width: 3px;"/>
      <path id="svg_142" d="m3765,2668c106,-126 115,-133 228,-171c59,-19 107,-34 107,-32c0,15 -334,235 -357,235c-2,0 7,-15 22,-32z" style="fill: rgba(0, 8, 10, 0.44); stroke: rgb(0, 8, 10); stroke-width: 3px;"/>
      <path id="svg_143" d="m2987,2483c36,-109 68,-201 72,-205c6,-6 358,-48 407,-48c20,0 14,15 -74,167l-97,166l-175,59c-96,32 -180,58 -187,58c-7,0 13,-74 54,-197z" style="fill: rgba(0, 8, 10, 0.44); stroke: rgb(0, 8, 10); stroke-width: 3px;"/>
      <path id="svg_144" d="m10602,2585c-161,-35 -299,-65 -306,-68c-7,-3 -18,-29 -24,-59c-6,-29 -36,-170 -66,-313c-31,-143 -56,-263 -56,-267c0,-5 176,-8 390,-8l390,0l0,390c0,365 -1,390 -17,389c-10,-1 -150,-29 -311,-64z" style="fill: rgba(0, 8, 10, 0.44); stroke: rgb(0, 8, 10); stroke-width: 3px;"/>
      <path id="svg_145" d="m9027,2526c-86,-40 -240,-158 -214,-164c12,-2 187,34 191,40c1,2 28,38 60,81c32,43 56,80 54,82c-1,1 -43,-16 -91,-39z" style="fill: rgba(0, 8, 10, 0.44); stroke: rgb(0, 8, 10); stroke-width: 3px;"/>
      <path id="svg_146" d="m3592,2353c44,-76 82,-140 84,-143c6,-5 318,-39 323,-34c2,1 -41,52 -95,113l-99,110l-141,46c-77,25 -143,45 -147,45c-3,0 30,-62 75,-137z" style="fill: rgba(0, 8, 10, 0.44); stroke: rgb(0, 8, 10); stroke-width: 3px;"/>
      <path id="svg_147" d="m9878,2431c-120,-26 -220,-50 -223,-53c-6,-6 -195,-427 -195,-434c0,-9 539,-3 545,6c5,8 71,308 111,503c4,19 2,27 -8,26c-7,0 -111,-22 -230,-48z" style="fill: rgba(0, 8, 10, 0.44); stroke: rgb(0, 8, 10); stroke-width: 3px;"/>
      <path id="svg_148" d="m8548,2396c-93,-42 -282,-146 -276,-152c2,-1 52,9 112,22c88,20 117,31 145,56c95,83 132,118 125,118c-5,0 -53,-20 -106,-44z" style="fill: rgba(0, 8, 10, 0.44); stroke: rgb(0, 8, 10); stroke-width: 3px;"/>
      <path id="svg_149" d="m9261,2299c-96,-21 -175,-40 -176,-41c-24,-29 -225,-310 -225,-313c0,-3 98,-4 217,-3l217,3l67,150c112,250 111,245 91,244c-9,0 -95,-18 -191,-40z" style="fill: rgba(0, 8, 10, 0.44); stroke: rgb(0, 8, 10); stroke-width: 3px;"/>
      <path id="svg_150" d="m4138,2253c81,-96 93,-104 178,-114c124,-16 127,-11 38,52c-56,41 -103,64 -162,83c-46,14 -85,26 -88,26c-3,0 12,-21 34,-47z" style="fill: rgba(0, 8, 10, 0.44); stroke: rgb(0, 8, 10); stroke-width: 3px;"/>
      <path id="svg_151" d="m4570,2225c0,-2 40,-33 89,-68l89,-63l108,-12c59,-7 109,-10 111,-8c6,6 -189,88 -291,123c-108,36 -106,35 -106,28z" style="fill: rgba(0, 8, 10, 0.44); stroke: rgb(0, 8, 10); stroke-width: 3px;"/>
      <path id="svg_152" d="m8696,2179c-77,-17 -137,-36 -150,-47c-121,-107 -196,-177 -196,-184c0,-4 72,-8 159,-8l159,0l88,123c48,67 92,128 97,135c13,17 -5,15 -157,-19z" style="fill: rgba(0, 8, 10, 0.44); stroke: rgb(0, 8, 10); stroke-width: 3px;"/>
      <path id="svg_153" d="m2291,2168c0,-54 74,-736 80,-742c4,-4 731,68 765,76c10,3 -179,604 -196,621c-5,6 -595,76 -647,77c-2,0 -3,-15 -2,-32z" style="fill: rgba(0, 8, 10, 0.44); stroke: rgb(0, 8, 10); stroke-width: 3px;"/>
      <path id="svg_154" d="m3113,2098c2,-7 39,-121 82,-253c42,-132 80,-243 83,-247c7,-6 530,46 537,54c4,3 -220,396 -231,407c-6,6 -392,50 -443,50c-22,1 -32,-3 -28,-11z" style="fill: rgba(0, 8, 10, 0.44); stroke: rgb(0, 8, 10); stroke-width: 3px;"/>
      <path id="svg_155" d="m8164,2066c-86,-20 -253,-98 -254,-118c0,-5 43,-8 96,-8c89,0 98,2 128,26c50,42 128,116 124,118c-2,1 -44,-7 -94,-18z" style="fill: rgba(0, 8, 10, 0.44); stroke: rgb(0, 8, 10); stroke-width: 3px;"/>
      <path id="svg_156" d="m7660,2036c-114,-27 -271,-75 -284,-87c-6,-5 36,-9 100,-9l109,0l105,60c58,33 96,59 85,59c-11,0 -63,-11 -115,-23z" style="fill: rgba(0, 8, 10, 0.44); stroke: rgb(0, 8, 10); stroke-width: 3px;"/>
      <path id="svg_157" d="m3877,1858c58,-101 107,-185 109,-187c3,-4 426,38 430,42c2,2 -65,78 -202,231l-53,59l-163,18c-90,10 -177,18 -195,19l-31,0l105,-182z" style="fill: rgba(0, 8, 10, 0.44); stroke: rgb(0, 8, 10); stroke-width: 3px;"/>
      <path id="svg_158" d="m4405,1958c11,-12 60,-68 110,-123c49,-55 90,-101 90,-102c1,-4 325,32 325,37c0,3 -54,44 -120,91l-119,87l-118,11c-65,7 -134,14 -153,17l-35,6l20,-24z" style="fill: rgba(0, 8, 10, 0.44); stroke: rgb(0, 8, 10); stroke-width: 3px;"/>
      <path id="svg_159" d="m5572,1892l106,-48l109,12c59,7 110,13 113,14c24,8 -354,71 -420,70c-8,0 33,-22 92,-48z" style="fill: rgba(0, 8, 10, 0.44); stroke: rgb(0, 8, 10); stroke-width: 3px;"/>
      <path id="svg_160" d="m5081,1850l84,-60l60,6c33,4 80,10 104,13l45,6l-89,39c-86,37 -168,55 -249,56l-38,0l83,-60z" style="fill: rgba(0, 8, 10, 0.44); stroke: rgb(0, 8, 10); stroke-width: 3px;"/>
      <path id="svg_161" d="m6512,1857c-51,-5 -92,-11 -90,-12c2,-2 52,-15 112,-28l109,-25l100,34c55,19 102,36 105,39c9,8 -235,3 -336,-8z" style="fill: rgba(0, 8, 10, 0.44); stroke: rgb(0, 8, 10); stroke-width: 3px;"/>
      <path id="svg_162" d="m7025,1760c-45,-15 -73,-30 -65,-33c25,-9 161,-37 179,-37c9,0 54,23 101,50l85,50l-110,-1c-94,0 -122,-5 -190,-29z" style="fill: rgba(0, 8, 10, 0.44); stroke: rgb(0, 8, 10); stroke-width: 3px;"/>
      <path id="svg_163" d="m7505,1720c-66,-39 -121,-74 -123,-79c-1,-4 14,-11 35,-14c21,-3 92,-17 157,-31l119,-26l61,54c34,30 88,79 121,109l60,56l-155,0l-155,0l-120,-69z" style="fill: rgba(0, 8, 10, 0.44); stroke: rgb(0, 8, 10); stroke-width: 3px;"/>
      <path id="svg_164" d="m8023,1663c-78,-70 -141,-129 -139,-130c5,-5 419,-94 422,-91c1,2 59,81 128,176l125,172l-197,0l-197,0l-142,-127z" style="fill: rgba(0, 8, 10, 0.44); stroke: rgb(0, 8, 10); stroke-width: 3px;"/>
      <path id="svg_165" d="m8606,1599c-76,-104 -137,-191 -135,-193c4,-3 492,-106 518,-109c10,-1 50,76 122,238c60,132 108,243 108,248c1,4 -106,7 -237,7l-238,0l-138,-191z" style="fill: rgba(0, 8, 10, 0.44); stroke: rgb(0, 8, 10); stroke-width: 3px;"/>
      <path id="svg_166" d="m9364,1733c-14,-32 -73,-165 -131,-296c-59,-134 -102,-242 -97,-246c13,-11 744,-164 751,-157c5,5 163,729 163,749c0,4 -149,7 -330,7l-330,0l-26,-57z" style="fill: rgba(0, 8, 10, 0.44); stroke: rgb(0, 8, 10); stroke-width: 3px;"/>
      <path id="svg_167" d="m6033,1731c-28,-4 -54,-9 -57,-12c-3,-3 35,-23 85,-45l91,-40l94,30c52,17 94,33 94,36c0,10 -173,40 -216,39c-21,-1 -62,-5 -91,-8z" style="fill: rgba(0, 8, 10, 0.44); stroke: rgb(0, 8, 10); stroke-width: 3px;"/>
      <path id="svg_168" d="m5499,1675c-58,-7 -116,-15 -128,-17c-17,-2 8,-24 112,-100l134,-97l154,50c84,28 155,51 156,53c7,7 -275,126 -297,125c-14,-1 -73,-7 -131,-14z" style="fill: rgba(0, 8, 10, 0.44); stroke: rgb(0, 8, 10); stroke-width: 3px;"/>
      <path id="svg_169" d="m6510,1592c-77,-25 -140,-48 -140,-52c0,-6 280,-130 293,-130c6,0 259,143 276,157c9,7 -9,11 -146,40l-143,30l-140,-45z" style="fill: rgba(0, 8, 10, 0.44); stroke: rgb(0, 8, 10); stroke-width: 3px;"/>
      <path id="svg_170" d="m4898,1611c-81,-9 -149,-19 -152,-22c-4,-4 186,-223 258,-297l23,-24l159,52c87,29 175,57 195,63c19,7 37,16 40,21c2,5 -63,58 -145,118c-170,124 -138,116 -378,89z" style="fill: rgba(0, 8, 10, 0.44); stroke: rgb(0, 8, 10); stroke-width: 3px;"/>
      <path id="svg_171" d="m4320,1550c-80,-10 -164,-19 -187,-19c-23,-1 -45,-6 -48,-11c-5,-8 229,-432 255,-463c8,-9 520,152 520,163c0,3 -70,83 -155,178l-156,172l-42,-1c-23,-1 -107,-10 -187,-19z" style="fill: rgba(0, 8, 10, 0.44); stroke: rgb(0, 8, 10); stroke-width: 3px;"/>
      <path id="svg_172" d="m6998,1427c-87,-50 -158,-94 -158,-97c0,-3 86,-43 191,-89c140,-61 195,-81 208,-75c20,10 309,266 310,275c1,7 -346,80 -374,78c-11,0 -91,-42 -177,-92z" style="fill: rgba(0, 8, 10, 0.44); stroke: rgb(0, 8, 10); stroke-width: 3px;"/>
      <path id="svg_173" d="m3535,1468c-154,-16 -281,-31 -283,-32c-2,-3 26,-91 194,-608l45,-137l27,9c15,5 181,59 370,120c188,61 342,114 342,118c0,4 -72,131 -159,282l-159,275l-48,2c-27,0 -175,-12 -329,-29z" style="fill: rgba(0, 8, 10, 0.44); stroke: rgb(0, 8, 10); stroke-width: 3px;"/>
      <path id="svg_174" d="m5953,1412c-95,-31 -173,-59 -173,-63c0,-7 315,-238 336,-246c12,-4 373,197 374,208c0,8 -338,159 -354,158c-6,-1 -89,-26 -183,-57z" style="fill: rgba(0, 8, 10, 0.44); stroke: rgb(0, 8, 10); stroke-width: 3px;"/>
      <path id="svg_175" d="m7564,1248c-93,-83 -170,-154 -172,-158c-1,-4 109,-57 244,-118l247,-110l17,21c77,101 302,419 298,422c-6,6 -427,95 -448,95c-10,0 -94,-68 -186,-152z" style="fill: rgba(0, 8, 10, 0.44); stroke: rgb(0, 8, 10); stroke-width: 3px;"/>
      <path id="svg_176" d="m5545,1280c-11,-5 -105,-37 -210,-71c-104,-33 -192,-63 -193,-64c-6,-6 359,-406 367,-403c29,11 461,264 461,269c0,12 -364,273 -385,275c-11,2 -29,-1 -40,-6z" style="fill: rgba(0, 8, 10, 0.44); stroke: rgb(0, 8, 10); stroke-width: 3px;"/>
      <path id="svg_177" d="m8173,1003l-193,-266l356,-159c196,-87 358,-158 359,-158c6,0 318,710 314,714c-4,4 -625,136 -637,136c-4,0 -94,-120 -199,-267z" style="fill: rgba(0, 8, 10, 0.44); stroke: rgb(0, 8, 10); stroke-width: 3px;"/>
      <path id="svg_178" d="m6462,1117c-106,-62 -192,-116 -191,-122c2,-13 420,-316 431,-313c12,4 398,351 398,358c0,8 -412,190 -430,190c-8,-1 -102,-51 -208,-113z" style="fill: rgba(0, 8, 10, 0.44); stroke: rgb(0, 8, 10); stroke-width: 3px;"/>
      <path id="svg_179" d="m4652,989l-303,-100l18,-32c11,-18 99,-170 197,-339l178,-308l41,24c23,14 174,101 335,194c162,93 294,172 294,176c0,16 -428,485 -442,485c-8,0 -151,-45 -318,-100z" style="fill: rgba(0, 8, 10, 0.44); stroke: rgb(0, 8, 10); stroke-width: 3px;"/>
      <path id="svg_180" d="m7018,758c-130,-117 -237,-217 -239,-223c-1,-5 139,-112 311,-237l313,-227l229,316c126,173 227,317 225,320c-7,6 -586,263 -595,263c-4,0 -114,-96 -244,-212z" style="fill: rgba(0, 8, 10, 0.44); stroke: rgb(0, 8, 10); stroke-width: 3px;"/>
      <path id="svg_181" d="m5835,754c-149,-85 -276,-159 -283,-163c-8,-5 70,-99 245,-294c142,-157 263,-286 268,-287c13,-1 574,502 574,515c0,10 -502,377 -523,383c-6,1 -133,-68 -281,-154z" style="fill: rgba(0, 8, 10, 0.44); stroke: rgb(0, 8, 10); stroke-width: 3px;"/>
    </g>
  </g>
</svg>