<svg version="1.1" xmlns="http://www.w3.org/2000/svg" viewBox="209.52 511.91999999999996 358.56 371.52" style="max-height: 500px" width="358.56" height="371.52">

 <metadata id="metadata7">image/svg+xml</metadata>
 <g class="layer">
  <title>Layer 1</title>
  <g opacity="0.5" id="layer1">
   <g transform="matrix(0.722544 0 0 0.722544 2906.1 3458.1)" id="layer1-9">
    <g transform="matrix(0.785524 0 0 0.785524 -2414.05 -4243.14)" id="layer1-2"/>
    <path id="path3038" fill="#e99767" d="m-3242.18,-3593.22c-1.48,-5.11 -10.85,-37.04 -20.84,-70.95c-10,-33.91 -18.17,-63.14 -18.17,-64.96c0,-1.81 19.73,-3.29 43.85,-3.29c32.97,0 43.24,1.58 41.43,6.37c-1.33,3.5 -11.05,36.17 -21.59,72.59c-10.55,36.43 -19.81,66.97 -20.59,67.89c-0.78,0.91 -2.62,-2.53 -4.09,-7.65zm-163.95,-60.24c8.95,-120.81 8.15,-115.6 17.15,-111.67c4.65,2.02 22.21,8.48 39.02,14.35c16.81,5.87 31.41,11.15 32.44,11.72c1.7,0.95 -75.86,109.06 -86.99,121.26c-2.81,3.09 -3.45,-10.98 -1.62,-35.66zm293.35,-17.73c-22.71,-30.77 -42.35,-58.85 -43.63,-62.41c-1.51,-4.17 8.91,-10.29 29.41,-17.26c17.47,-5.93 35.53,-12.39 40.14,-14.35c7.43,-3.15 8.75,3.81 11.7,61.74c1.82,35.91 4.4,70.45 5.72,76.76c1.32,6.3 1.41,11.46 0.19,11.46c-1.23,0 -20.81,-25.17 -43.53,-55.94zm-426.1,-70.15c9.36,-21.71 22.96,-52.78 30.22,-69.05l13.19,-29.56l33.27,26.66c18.3,14.66 33.27,27.35 33.27,28.19c0,2.1 -121.33,83.24 -124.46,83.24c-1.38,0 5.15,-17.76 14.51,-39.48zm549.48,-2.74l-62.27,-40.58l13.87,-10.39c7.63,-5.71 22.47,-18.49 32.97,-28.39c11.39,-10.75 20.79,-16.06 23.28,-13.17c6.05,7 58.6,129.8 56.33,131.6c-1.05,0.84 -29.93,-16.74 -64.18,-39.07zm-324.16,-42.26c-69.95,-16.93 -150.38,-77.54 -185.35,-139.67c-114.61,-203.62 29.14,-453.24 261.02,-453.24c81.69,0 148.21,28.22 209.41,88.85c62.82,62.23 90.28,127.63 89.88,214.08c-0.37,82.16 -30.54,153.98 -88.98,211.84c-38.25,37.88 -97.94,70.96 -145.61,80.69c-36.56,7.47 -104.04,6.25 -140.37,-2.55zm427.18,-62c-39.23,-9.84 -72.14,-18.6 -73.15,-19.47c-1.01,-0.86 2.71,-8.01 8.25,-15.87c5.54,-7.87 15.17,-24.37 21.4,-36.67l11.32,-22.36l48.28,47.83c39.11,38.76 65.15,68.64 56.67,65.05c-0.79,-0.34 -33.54,-8.67 -72.77,-18.51zm-728.39,-38.18c27.24,-28.72 50.97,-52.71 52.74,-53.32c1.76,-0.6 12.69,15.45 24.29,35.67l21.09,36.75l-66.94,16.44c-36.82,9.05 -70.04,16.5 -73.83,16.56c-3.78,0.06 15.41,-23.39 42.65,-52.1zm-48.5,-98.3c-29.41,-3.71 -55.78,-6.99 -58.58,-7.29c-2.8,-0.31 25.65,-15.47 63.23,-33.69c46.99,-22.8 69.46,-31.31 71.96,-27.26c1.99,3.23 5.06,18.04 6.81,32.92c1.75,14.87 4.57,30.67 6.27,35.12c3.81,9.92 -12.11,9.96 -89.69,0.2zm761.04,-6.14c1.74,-7.7 4.62,-26.04 6.4,-40.75c1.78,-14.71 5.78,-26.63 8.89,-26.48c3.11,0.14 34.31,14.81 69.33,32.58c72.34,36.72 73.85,33.06 -17.83,43.44c-69.71,7.89 -70.54,7.78 -66.79,-8.79zm-755.94,-139.05c-37.83,-19.19 -65.56,-35.02 -61.64,-35.16c3.93,-0.15 37.86,-3.97 75.41,-8.5c37.55,-4.52 69.33,-7.16 70.64,-5.85c2.18,2.18 -4.14,38.86 -12.23,70.9l-3.41,13.51l-68.77,-34.9zm767.25,32.2c-1.71,-1.71 -3.1,-9.73 -3.1,-17.83c0,-8.1 -2.59,-24.99 -5.75,-37.55c-3.16,-12.56 -4.43,-24.14 -2.83,-25.74c2.44,-2.44 146.55,12.42 149.72,15.44c0.58,0.55 -29.55,16.25 -66.95,34.89c-37.4,18.63 -69.39,32.49 -71.09,30.79zm-721.26,-169.36c-28.72,-30.91 -50.42,-56.19 -48.22,-56.19c5.52,0 141.83,32.14 144.42,34.05c1.15,0.85 -1.64,5.66 -6.2,10.7c-4.55,5.03 -14.92,22.31 -23.03,38.39l-14.75,29.24l-52.22,-56.19zm673.63,16.22c-11.89,-21.2 -21.06,-38.81 -20.38,-39.13c6.57,-3.18 142.27,-33.99 143.55,-32.6c0.94,1.03 -21.53,26.26 -49.93,56.07l-51.63,54.2l-21.61,-38.54zm-562.03,-75.83c-2.98,-7.84 -13.57,-32.63 -23.54,-55.09c-32.94,-74.21 -33.32,-75.25 -26.06,-70.94c11.69,6.92 113.48,74.63 117.3,78.02c2.02,1.79 -11.16,16.54 -29.3,32.76l-32.98,29.5l-5.42,-14.25zm502.17,-1.63c-7.98,-8.33 -23.33,-21.25 -34.12,-28.73l-19.61,-13.59l62.5,-41.91c34.38,-23.05 63.24,-41.27 64.13,-40.5c1.33,1.16 -53.89,134.68 -57.34,138.64c-0.59,0.67 -7.59,-5.59 -15.56,-13.91zm-401.86,-97.75c-1.56,-20.51 -4.18,-55.64 -5.82,-78.05l-2.98,-40.76l46.61,62.75c25.64,34.52 45.82,63.42 44.84,64.23c-0.98,0.81 -15.53,6.14 -32.34,11.84c-16.81,5.7 -34.37,11.93 -39.02,13.83c-7.27,2.98 -8.84,-1.7 -11.29,-33.84zm300.01,30.4c-5.56,-3.22 -21.95,-9.52 -36.42,-14l-26.31,-8.14l43.68,-59.67c24.02,-32.82 44.68,-58.66 45.92,-57.43c1.23,1.24 0.57,34.46 -1.47,73.83c-3.83,73.99 -5.07,77.2 -25.4,65.41zm-180.93,-32.85c0,-1.84 9.59,-35.3 21.3,-74.34l21.3,-70.99l21.84,73.07c12.01,40.19 21.91,73.65 22,74.35c0.09,0.7 -19.32,1.27 -43.14,1.27c-23.81,0 -43.3,-1.51 -43.3,-3.36z"/>
   </g>
  </g>
 </g>
</svg>