<?xml version="1.0" encoding="UTF-8" standalone="no"?>
<svg
   xmlns:dc="http://purl.org/dc/elements/1.1/"
   xmlns:cc="http://creativecommons.org/ns#"
   xmlns:rdf="http://www.w3.org/1999/02/22-rdf-syntax-ns#"
   xmlns:svg="http://www.w3.org/2000/svg"
   xmlns="http://www.w3.org/2000/svg"
   xmlns:sodipodi="http://sodipodi.sourceforge.net/DTD/sodipodi-0.dtd"
   xmlns:inkscape="http://www.inkscape.org/namespaces/inkscape"
   width="151.0799mm"
   height="125.79719mm"
   viewBox="0 0 151.0799 125.79718"
   version="1.1"
   id="svg855"
   inkscape:version="1.0.2 (e86c870879, 2021-01-15, custom)"
   sodipodi:docname="Clelang frame 12005.svg">
  <defs
     id="defs849" />
  <sodipodi:namedview
     id="base"
     pagecolor="#ffffff"
     bordercolor="#666666"
     borderopacity="1.0"
     inkscape:pageopacity="0.0"
     inkscape:pageshadow="2"
     inkscape:zoom="0.7"
     inkscape:cx="-274.61751"
     inkscape:cy="50.939724"
     inkscape:document-units="mm"
     inkscape:current-layer="layer1"
     inkscape:document-rotation="0"
     showgrid="false"
     inkscape:window-width="1920"
     inkscape:window-height="1057"
     inkscape:window-x="-8"
     inkscape:window-y="-8"
     inkscape:window-maximized="1" />
  <metadata
     id="metadata852">
    <rdf:RDF>
      <cc:Work
         rdf:about="">
        <dc:format>image/svg+xml</dc:format>
        <dc:type
           rdf:resource="http://purl.org/dc/dcmitype/StillImage" />
        <dc:title></dc:title>
      </cc:Work>
    </rdf:RDF>
  </metadata>
  <g
     inkscape:label="Layer 1"
     inkscape:groupmode="layer"
     id="layer1"
     transform="translate(-54.355882,-101.36842)">
    <path
       style="fill:#000000;stroke-width:0.264583"
       d="m 96.424587,226.08433 c -4.819424,-0.91579 -10.010736,-3.21695 -13.614382,-6.03487 -0.897941,-0.70215 -1.682457,-1.27725 -1.743376,-1.27799 -0.554393,-0.007 -5.509426,-5.26247 -6.280022,-6.66116 -0.130228,-0.23639 -0.30576,-0.49015 -0.390071,-0.56394 -0.515389,-0.45107 -2.796879,-4.98217 -3.275012,-6.5043 -0.232602,-0.74045 -0.572722,-1.82439 -0.755824,-2.40873 -0.183103,-0.58435 -0.362494,-1.75054 -0.39865,-2.59152 l -0.06574,-1.52908 2.117666,-0.0696 c 1.959493,-0.0644 4.433849,-0.52443 6.364806,-1.18342 1.625655,-0.55478 4.1778,-1.85266 4.313369,-2.19354 0.07702,-0.19368 0.305885,-0.35012 0.508583,-0.34767 0.202696,0.002 0.369865,-0.10487 0.371485,-0.23851 0.0016,-0.13365 0.430411,-0.50006 0.952872,-0.81431 0.522461,-0.3142 1.263714,-1.05912 1.647231,-1.65537 0.383517,-0.59626 0.781318,-1.14261 0.884004,-1.21413 0.340181,-0.23693 1.638691,-3.64672 1.921722,-5.04626 0.414232,-2.04835 -0.07695,-5.5155 -0.782574,-5.52405 -0.136444,-0.002 -0.186632,0.0992 -0.111532,0.22405 0.211676,0.35197 -0.703889,3.24534 -1.305211,4.12473 -0.491348,0.71855 -2.275325,2.49161 -3.162225,3.14287 -0.199358,0.14639 -1.079582,0.48762 -1.956051,0.7583 -0.876468,0.27068 -1.707828,0.58538 -1.847463,0.69932 -0.363144,0.29635 -4.053963,0.19894 -5.303589,-0.13997 -0.580219,-0.15738 -1.529742,-0.4088 -2.110052,-0.55874 -1.081468,-0.27946 -5.190523,-2.57623 -5.344058,-2.98711 -0.04699,-0.12576 -0.198921,-0.23 -0.33763,-0.23168 -0.326807,-0.004 -3.639712,-2.7227 -3.636541,-2.98436 0.0013,-0.10959 -0.234778,-0.27771 -0.524678,-0.3736 -0.289901,-0.0959 -0.525822,-0.27926 -0.524268,-0.40746 0.0016,-0.12821 -0.302758,-0.57037 -0.676246,-0.98263 -0.568191,-0.62714 -2.13491,-3.08718 -2.93825,-4.61363 -1.038917,-1.97406 -2.385263,-5.61791 -2.84798,-7.70798 -0.11307,-0.51074 -0.442245,-1.82451 -0.731502,-2.9195 -0.440447,-1.66733 -0.51819,-2.76487 -0.478347,-6.75317 0.03551,-3.54961 0.154891,-5.09786 0.468987,-6.08018 0.231775,-0.72485 0.426317,-1.55599 0.432317,-1.84698 0.0059,-0.29099 0.192884,-0.86791 0.415302,-1.28208 0.22242,-0.41415 0.407034,-0.97047 0.410255,-1.23628 0.0032,-0.26581 0.117052,-0.55014 0.252955,-0.63187 0.135907,-0.0818 0.397924,-0.59165 0.582263,-1.13311 0.184344,-0.5415 0.813234,-1.69317 1.397538,-2.55927 3.503006,-5.19249 5.651899,-6.99233 9.158212,-7.67062 1.142199,-0.22094 1.922433,-0.22837 2.764404,-0.0263 0.64518,0.15483 1.276711,0.21916 1.4034,0.14298 0.222872,-0.13404 1.057554,0.13837 2.699776,0.88111 1.512102,0.68387 3.12655,3.03274 3.417108,4.97154 0.151644,1.01185 -0.309273,2.92337 -0.828612,3.43641 -0.188468,0.18616 -0.423337,0.544 -0.521929,0.79519 -0.163608,0.41677 -9.91e-4,0.44496 1.863116,0.32266 1.123304,-0.0737 2.39006,-0.29462 2.815009,-0.49089 0.42495,-0.1963 0.914633,-0.35515 1.088186,-0.35305 0.955338,0.0116 4.671322,-2.49004 6.135919,-4.13075 0.442602,-0.49581 0.985717,-1.09771 1.20692,-1.33757 0.458286,-0.49689 0.729149,-0.93407 2.037995,-3.28945 0.658454,-1.18493 1.029769,-2.29332 1.252761,-3.73953 0.379646,-2.46221 0.197604,-6.60812 -0.336481,-7.66311 -0.21032,-0.41546 -0.380838,-0.94499 -0.378927,-1.17676 0.002,-0.23176 -0.28626,-0.94969 -0.640383,-1.59538 -0.35412,-0.64569 -0.724308,-1.35356 -0.822639,-1.57305 -0.342295,-0.76406 -2.636092,-2.817 -3.839513,-3.43636 -0.824399,-0.42428 -1.826438,-0.66492 -3.135855,-0.75314 -1.604881,-0.10805 -1.758471,-0.0859 -0.925246,0.13385 3.632158,0.95782 4.910598,2.56206 5.768742,7.23889 0.224059,1.22114 0.517788,2.73402 0.652731,3.36202 0.216433,1.0072 0.166251,1.27309 -0.425766,2.25578 -0.69475,1.15325 -2.62169,3.2106 -3.516333,3.75434 -2.439118,1.48241 -2.510403,1.50034 -5.737639,1.44316 -3.143193,-0.0556 -4.609667,-0.42417 -5.816992,-1.46167 -0.252056,-0.21661 -0.459399,-0.30171 -0.460763,-0.18914 -0.0037,0.30259 -1.837598,-1.15725 -2.8343,-2.25616 -0.992082,-1.0938 -2.113562,-3.23562 -2.876666,-5.49391 -0.397353,-1.17589 -0.51502,-2.1781 -0.479147,-4.08097 0.04584,-2.43075 0.508438,-5.31508 0.91633,-5.71321 0.108157,-0.10559 0.199192,-0.40169 0.202298,-0.65803 0.01057,-0.87234 2.018665,-3.7576 3.809212,-5.47313 4.054679,-3.88482 5.178313,-4.64718 9.299097,-6.30925 0.365616,-0.14745 0.90413,-0.3697 1.196697,-0.49388 1.161149,-0.49282 3.569329,-1.0109 5.821293,-1.25234 4.679803,-0.50171 12.155117,0.68298 16.389047,2.59735 0.28947,0.13089 1.00014,0.44096 1.57926,0.68904 0.57912,0.24806 1.36687,0.62697 1.75054,0.84198 0.38368,0.21503 0.83376,0.39261 1.00019,0.39463 0.16643,0.002 0.91715,0.40392 1.66827,0.89314 0.75112,0.48919 1.7804,1.05657 2.28728,1.26081 0.50689,0.20428 1.0335,0.47273 1.17026,0.59661 0.44248,0.40075 2.52533,0.2911 2.69759,-0.14204 0.0864,-0.21725 0.32294,-0.39298 0.52563,-0.39053 0.20271,0.002 0.36979,-0.0988 0.37132,-0.22498 0.004,-0.36746 2.75338,-3.01426 4.31766,-4.15728 2.84216,-2.07675 4.40363,-2.72491 6.82067,-2.83127 1.80111,-0.0793 2.50567,0.0143 3.9625,0.52617 0.97453,0.34237 2.21262,0.90827 2.75136,1.25757 0.5387,0.34927 1.04639,0.63584 1.12817,0.63683 0.15668,0.002 0.61693,0.36334 1.45453,1.14219 0.27752,0.25805 0.55605,0.44003 0.61899,0.40441 0.22327,-0.12636 3.27647,2.36019 3.28315,2.67383 0.004,0.17537 0.41958,0.40148 0.92415,0.50248 0.76206,0.15255 1.34758,-0.0235 3.45828,-1.03923 1.39749,-0.6726 2.60607,-1.32554 2.68573,-1.451 0.0796,-0.1255 0.3611,-0.22552 0.62544,-0.22231 0.26432,0.003 1.16005,-0.28487 1.99047,-0.64017 4.4628,-1.90936 12.76993,-3.25681 18.01307,-2.9218 2.55419,0.16319 6.85669,1.00198 7.78155,1.51702 0.23883,0.13303 1.14616,0.48465 2.01628,0.78141 1.72501,0.58835 5.2088,2.39823 5.34564,2.77717 0.0469,0.12999 0.23883,0.23818 0.4264,0.24045 0.39751,0.005 3.78189,3.35383 5.11018,5.05677 2.2741,2.91548 3.36417,6.24371 3.3171,10.1277 -0.0331,2.73014 -0.3481,4.15076 -1.44015,6.4943 -0.27713,0.59471 -0.50534,1.20379 -0.50716,1.35353 -0.002,0.14975 -0.63614,0.90885 -1.4096,1.68688 -0.99334,0.99923 -2.08991,1.7349 -3.73411,2.50521 -2.24265,1.05063 -2.42613,1.09051 -5.01465,1.08933 l -2.68683,-0.001 -2.64692,-2.82599 c -1.45581,-1.55429 -2.81713,-3.16583 -3.02513,-3.58121 -0.20803,-0.41538 -0.44325,-0.81556 -0.52275,-0.88929 -0.22766,-0.21119 -0.74596,-2.87405 -0.73502,-3.77643 0.0267,-2.20037 1.60911,-4.87476 3.65976,-6.18507 0.45622,-0.29151 0.39439,-0.31467 -0.5001,-0.18752 -0.93513,0.13293 -2.77483,0.81819 -3.09642,1.15335 -0.0737,0.0768 -0.70503,0.58957 -1.40297,1.13945 -0.69794,0.54988 -1.27044,1.12112 -1.27224,1.26944 -0.002,0.14832 -0.17652,0.39977 -0.3883,0.5588 -0.60662,0.45546 -2.09394,4.34099 -2.32703,6.07912 -0.11632,0.86752 -0.14382,2.8914 -0.0615,4.4975 0.13025,2.52789 0.26072,3.15251 0.97134,4.65002 0.99411,2.09486 1.25929,2.53124 2.10107,3.4574 0.35904,0.39504 1.1226,1.25367 1.69679,1.90808 1.67801,1.91244 5.01408,3.93178 6.95099,4.20749 0.65926,0.0938 1.34529,0.28898 1.52455,0.43361 0.30224,0.24395 3.62852,0.0901 4.10028,-0.1896 0.10714,-0.0635 -0.19945,-0.47023 -0.6813,-0.90374 -1.8512,-1.66555 -1.79531,-4.41068 0.13284,-6.52257 1.28364,-1.406 3.1557,-2.2858 5.70912,-2.68309 2.34356,-0.36467 4.5355,-0.042 6.39956,0.94224 0.87339,0.46113 3.36428,2.85233 4.46666,4.28794 0.78653,1.02427 2.18943,3.24491 2.1868,3.46144 -0.002,0.13595 0.38735,1.10964 0.86446,2.16375 1.14295,2.52525 1.41079,3.34522 1.97012,6.03128 0.52514,2.52176 0.57602,8.2719 0.0913,10.32062 -0.15448,0.65301 -0.39483,1.75887 -0.53409,2.45746 -0.45296,2.27213 -1.43439,5.00398 -2.80995,7.82152 -0.74162,1.5191 -1.45418,2.8004 -1.58348,2.84734 -0.1293,0.0469 -0.23641,0.19559 -0.23804,0.3303 -0.004,0.33623 -3.33792,4.57261 -4.68055,5.94768 -0.60174,0.61626 -1.63465,1.51334 -2.29536,1.9935 -1.44013,1.04666 -4.62634,2.74247 -5.14091,2.73623 -0.20215,-0.002 -0.77526,0.19678 -1.27358,0.44275 -1.35789,0.67027 -7.01193,0.56471 -8.83669,-0.16498 -1.64669,-0.65847 -3.02508,-1.47332 -3.02129,-1.78606 0.002,-0.13112 -0.13473,-0.24009 -0.30294,-0.24213 -0.515,-0.006 -2.16691,-1.94511 -2.68124,-3.14697 -0.30868,-0.72134 -0.47363,-1.71311 -0.45198,-2.71765 0.0185,-0.87001 -0.0502,-1.58284 -0.15322,-1.58409 -0.10299,-0.001 -0.45489,0.59098 -0.78202,1.31605 -0.91673,2.03201 -0.7611,6.15285 0.31601,8.36886 0.13359,0.27477 0.45793,0.97849 0.72081,1.56381 0.62163,1.38425 4.10933,4.87617 5.52798,5.53467 0.60866,0.28254 1.25894,0.66325 1.44507,0.84605 0.37474,0.36796 1.73806,0.95976 3.8,1.64945 0.74538,0.24935 2.62789,0.54668 4.1834,0.66079 l 2.82818,0.20748 -0.14789,0.68419 c -0.32447,1.50116 -1.0772,3.86242 -1.30597,4.09677 -0.13341,0.13663 -0.24513,0.46241 -0.2483,0.72393 -0.003,0.26154 -0.35559,1.2158 -0.78319,2.12056 -0.42759,0.90479 -0.9374,2.05987 -1.13295,2.56686 -0.50963,1.32137 -2.61285,4.37477 -3.95548,5.74245 -0.63173,0.64353 -1.1498,1.2678 -1.15124,1.38728 -10e-4,0.11948 -0.0931,0.21614 -0.20376,0.2148 -0.11061,-0.001 -0.50467,0.2618 -0.87567,0.58474 -2.02595,1.76359 -5.19174,4.10459 -5.54496,4.10031 -0.13741,-0.002 -0.40427,0.17854 -0.59306,0.40048 -0.57541,0.67647 -6.24219,3.21171 -8.29643,3.71171 -4.64247,1.12996 -9.35863,1.30862 -18.20823,0.68977 -8.33409,-0.5828 -10.83234,-1.02398 -11.88069,-2.09806 -0.24378,-0.24974 -0.82335,-1.02118 -1.28799,-1.71432 -0.64175,-0.95742 -0.95046,-1.21284 -1.2847,-1.06302 -0.24199,0.10846 -1.76704,0.2273 -3.38898,0.26412 l -2.94899,0.0669 -1.47608,1.21771 c -1.51835,1.25259 -3.75368,2.11462 -5.43065,2.0943 -0.45623,-0.006 -1.14037,0.10385 -1.52029,0.24306 -0.94603,0.3466 -8.86769,0.7655 -14.17357,0.74949 -3.08093,-0.009 -5.103892,-0.15345 -6.873748,-0.48972 z m 3.256205,-0.58164 c 0.426408,-0.31543 0.431678,-0.36871 0.0514,-0.51993 -0.503803,-0.20038 -1.707231,0.0467 -1.710922,0.35127 -0.0027,0.22229 0.462365,0.47728 0.919998,0.50439 0.145426,0.009 0.47821,-0.14246 0.739501,-0.33573 z m 2.323348,0.12825 c 0.62066,-0.32255 0.68177,-0.77623 0.1055,-0.78321 -0.40095,-0.005 -1.17888,0.58247 -1.18264,0.89288 -0.003,0.2365 0.51188,0.1841 1.07714,-0.10967 z m 2.9761,-0.35984 0.48325,-0.64734 -0.80604,-0.01 c -0.54012,-0.007 -0.80763,0.12117 -0.81085,0.38709 -0.003,0.21826 -0.12387,0.39539 -0.26938,0.39363 -0.14551,-0.002 -0.26601,0.11585 -0.26777,0.26137 -0.006,0.52523 1.19856,0.24758 1.67079,-0.38498 z m 1.73635,0.16165 c 0.10223,0.001 0.40118,-0.35235 0.66434,-0.78576 0.35521,-0.58501 0.3894,-0.78805 0.13275,-0.78814 -0.48964,6e-5 -0.81898,0.27081 -1.39089,1.14459 -0.45262,0.69153 -0.45686,0.74694 -0.0456,0.5948 0.24944,-0.0923 0.53716,-0.16673 0.6394,-0.16549 z m 9.16799,-0.31258 c 5.80503,-0.8107 7.41312,-1.34152 8.11597,-2.67895 0.62163,-1.18286 0.67669,-1.19551 5.88206,-1.35084 l 3.63102,-0.10833 0.49841,1.00457 c 0.78502,1.58229 1.643,2.35646 3.01381,2.71936 2.18437,0.57825 6.77137,1.11977 10.1833,1.20216 1.80691,0.0436 3.38342,0.14162 3.50335,0.21777 0.11994,0.0762 0.21959,0.0127 0.22146,-0.14173 0.002,-0.15408 -0.32399,-0.28488 -0.72413,-0.29063 -0.40015,-0.005 -1.04001,-0.17832 -1.42194,-0.38352 -0.38192,-0.2052 -1.92657,-0.47598 -3.43254,-0.6017 -1.50597,-0.12576 -3.01211,-0.33624 -3.34698,-0.46774 -0.33485,-0.13152 -1.43766,-0.32629 -2.45066,-0.43285 -1.01302,-0.10658 -1.91394,-0.31359 -2.00206,-0.46008 -0.0987,-0.16412 0.0828,-0.2024 0.47261,-0.0997 0.34805,0.0916 1.58439,0.24904 2.74741,0.34976 1.16304,0.1007 2.8029,0.28531 3.64417,0.41018 0.84125,0.12487 1.58308,0.14275 1.64847,0.0398 0.16045,-0.25275 -1.70405,-0.76533 -3.96188,-1.0892 -2.78187,-0.39907 -5.05128,-0.84155 -5.72842,-1.1169 -0.86053,-0.34991 2.84262,-0.0302 5.44724,0.47032 1.14813,0.22063 2.13169,0.35804 2.18567,0.30537 0.44168,-0.43113 -2.92126,-1.50055 -4.85841,-1.54498 -0.47284,-0.0107 -0.85819,-0.14596 -0.85632,-0.30031 0.003,-0.25985 3.24227,-0.0925 4.17787,0.21593 0.23651,0.078 0.20097,-0.13333 -0.11492,-0.68317 -0.39037,-0.67952 -0.61739,-0.79798 -1.55087,-0.80929 -2.19295,-0.0266 -5.13765,-0.41124 -5.13451,-0.67072 0.002,-0.17253 1.06884,-0.19617 3.03139,-0.0671 l 3.02816,0.19911 -0.20874,-0.58751 c -0.19499,-0.54875 -0.39441,-0.59472 -3.02214,-0.6967 -1.58179,-0.0614 -2.81203,-0.2211 -2.81029,-0.36481 0.003,-0.24398 2.86028,-0.3846 4.71843,-0.23222 0.8175,0.067 0.87275,0.0209 0.80193,-0.67039 -0.0638,-0.62238 -0.2149,-0.75749 -0.9349,-0.83573 -0.47235,-0.0513 -0.85761,-0.19349 -0.85612,-0.31596 0.001,-0.12247 0.46543,-0.17244 1.03102,-0.11105 1.00976,0.10964 1.03559,0.0904 1.43195,-1.0662 0.37793,-1.10278 0.37324,-1.17819 -0.0737,-1.18361 -0.26247,-0.003 -0.54938,-0.12572 -0.63754,-0.27233 -0.0951,-0.15804 0.21149,-0.26204 0.75298,-0.25548 0.56775,0.007 0.97271,-0.13837 1.07036,-0.38393 0.19716,-0.49572 -0.20371,-0.50024 -3.66731,-0.0414 -1.45765,0.19318 -3.36577,0.34491 -4.24024,0.33714 -1.84943,-0.0164 -2.00804,0.13551 -2.55484,2.44702 -0.19725,0.8338 -0.44548,1.56825 -0.55164,1.63211 -0.10617,0.0638 -0.651,-0.0518 -1.21076,-0.25695 -0.66636,-0.2442 -1.67989,-0.33618 -2.93558,-0.26641 -1.59205,0.0885 -1.91702,0.0387 -1.91299,-0.29331 0.007,-0.5695 -0.82905,-2.42243 -1.31966,-2.92506 -0.31237,-0.32004 -1.22169,-0.47614 -3.69206,-0.6338 -1.80269,-0.11505 -3.97312,-0.26353 -4.82318,-0.32998 l -1.54558,-0.12079 0.58892,0.5234 c 0.32391,0.28787 0.68977,0.52463 0.81301,0.52612 0.12324,10e-4 0.2221,0.16672 0.21967,0.36718 -0.002,0.20044 0.16004,0.50432 0.36104,0.67531 0.43277,0.36812 0.76064,1.81542 0.78661,3.47233 0.0429,2.73931 -3.0285,6.5893 -6.25998,7.84675 -0.47835,0.18615 -0.9207,0.41871 -0.98299,0.51684 -0.16467,0.25935 2.7565,0.0899 5.8155,-0.33728 z m -2.50518,-0.70541 c 1.30305,-0.33595 5.13376,-0.93809 7.02535,-1.10435 2.43135,-0.21367 1.4893,0.39353 -1.07983,0.69601 -1.15876,0.13641 -2.94157,0.34937 -3.96179,0.47325 -2.30868,0.28032 -3.20865,0.25086 -1.98373,-0.0649 z m 22.90352,-1.26976 c -0.20289,-0.33734 0.14734,-0.33309 0.66141,0.008 0.33931,0.22516 0.3319,0.26108 -0.0537,0.2599 -0.24607,2e-5 -0.51955,-0.12132 -0.60771,-0.26792 z m -19.57867,-0.5087 c -0.0976,-0.1623 -0.13538,-0.32996 -0.0839,-0.37258 0.23214,-0.19217 6.04962,-0.28187 6.04733,-0.0933 -0.001,0.11664 -1.10479,0.28015 -2.45197,0.36341 -1.34718,0.0832 -2.64844,0.20673 -2.89169,0.27443 -0.24325,0.0678 -0.52215,-0.009 -0.61977,-0.17201 z m 3.74827,-1.46943 c -0.41818,-0.42846 -0.003,-0.59515 1.44052,-0.57766 0.88188,0.0107 1.58596,0.1368 1.58418,0.28379 -0.002,0.14551 -0.27121,0.27164 -0.59875,0.28032 -0.32755,0.009 -0.97315,0.0503 -1.43464,0.0926 -0.4615,0.0423 -0.90758,0.007 -0.99131,-0.079 z m 15.73017,-0.6691 c -0.29349,-0.19476 -0.14511,-0.2593 0.58282,-0.2535 0.5371,0.004 1.04869,0.12773 1.13685,0.27433 0.20675,0.34378 -1.19579,0.32679 -1.71967,-0.0208 z m 4.79168,-6.47316 c 0.19191,-0.0741 0.41998,-0.0619 0.50683,0.027 0.0868,0.089 -0.0702,0.14963 -0.34892,0.13478 -0.30806,-0.0164 -0.36998,-0.0799 -0.15791,-0.1618 z m -43.751267,11.03885 c 0.570204,-0.35102 0.230368,-0.55544 -1.049648,-0.63139 -1.367521,-0.0812 -1.780552,0.49834 -0.480738,0.67449 0.481021,0.0651 0.933902,0.13648 1.006402,0.15842 0.0725,0.0221 0.308294,-0.0688 0.523984,-0.20152 z m 67.746647,-0.0566 c 2.73765,-0.80302 7.42472,-2.99289 7.67281,-3.58482 0.0499,-0.1192 0.19622,-0.21544 0.32504,-0.21388 0.35102,0.004 3.17587,-1.94143 4.33699,-2.9872 0.55995,-0.50432 1.07354,-0.91627 1.14133,-0.91545 0.48779,0.006 4.66649,-4.65037 4.67324,-5.20736 0.002,-0.16096 0.11692,-0.29126 0.2555,-0.28958 0.3298,0.004 2.25396,-3.86698 3.00453,-6.04442 0.32377,-0.93929 0.68296,-1.88751 0.79821,-2.10716 0.11525,-0.21968 0.28745,-1.02357 0.38269,-1.78645 l 0.17314,-1.38708 -1.11182,-0.0235 c -0.6115,-0.0124 -1.88363,-0.20004 -2.82697,-0.41621 -0.94333,-0.21616 -2.07138,-0.47472 -2.50676,-0.57459 -2.11323,-0.48472 -5.63033,-2.63991 -7.99162,-4.89705 -0.79851,-0.76326 -1.48692,-1.3535 -1.52984,-1.31163 -0.24076,0.23499 2.91728,3.56298 4.44631,4.68562 0.68517,0.50306 1.24458,1.01354 1.24311,1.13436 -10e-4,0.12085 0.16627,0.22177 0.37275,0.22427 0.41669,0.005 2.04064,0.8332 2.27771,1.16153 0.0832,0.11531 0.61706,0.28716 1.18627,0.38186 0.5692,0.0947 1.17221,0.2825 1.34003,0.41735 0.16779,0.13483 0.76137,0.28083 1.31907,0.32442 0.99704,0.078 1.01343,0.0968 0.98067,1.12288 -0.0183,0.57397 -0.25463,1.81487 -0.5251,2.75755 -0.50051,1.74433 -2.39435,5.80729 -2.97753,6.38783 -0.17655,0.17575 -0.69677,0.85083 -1.15607,1.50016 -0.45928,0.64932 -1.32805,1.71043 -1.93062,2.35803 -0.60258,0.64759 -1.09831,1.26671 -1.10171,1.37581 -0.004,0.1091 -0.11269,0.19709 -0.24294,0.19551 -0.13024,-0.002 -0.81048,0.526 -1.51162,1.17239 -0.70114,0.6464 -1.43445,1.17334 -1.62957,1.17097 -0.19511,-0.002 -0.35619,0.11476 -0.35796,0.26027 -0.002,0.14551 -0.1672,0.26257 -0.36767,0.26014 -0.20042,-0.002 -0.51273,0.16994 -0.69398,0.38302 -0.18123,0.21306 -0.64638,0.5467 -1.03363,0.74138 -0.38727,0.19466 -1.06363,0.54455 -1.50305,0.77752 -1.29096,0.68445 -3.2638,1.45922 -3.70219,1.45391 -0.22328,-0.003 -0.85688,0.15655 -1.40797,0.35391 -1.93466,0.69284 -6.97891,0.99168 -10.05814,0.59588 -3.23391,-0.4157 -4.69317,-0.92999 -6.56875,-2.31499 -1.62148,-1.19734 -2.55469,-2.39722 -3.07618,-3.95515 -0.62913,-1.87952 -0.45593,-4.20209 0.31268,-4.19278 0.26015,0.003 0.29142,0.19979 0.12168,0.76565 -0.27506,0.91704 0.12761,1.87356 0.91415,2.17153 0.78879,0.29882 2.11003,-0.40396 2.59848,-1.38215 0.36179,-0.72449 0.36577,-0.93046 0.0339,-1.75276 -0.74753,-1.85189 -2.09824,-2.48145 -4.14919,-1.93391 -1.70426,0.45496 -2.43779,1.80251 -2.46133,4.52158 -0.0161,1.90658 0.0411,2.11583 0.95793,3.48224 1.27714,1.90332 2.29488,2.82075 4.3422,3.91423 3.27125,1.7472 5.58239,2.21935 10.58547,2.16243 3.20023,-0.0364 3.89096,-0.13399 6.62642,-0.93641 z m -55.71757,-0.20912 c 0.65021,-0.47971 1.49332,-1.71587 1.50148,-2.20151 0.005,-0.2949 -0.0948,-0.28242 -0.48287,0.0602 -0.26902,0.23761 -0.61468,0.43047 -0.76814,0.42861 -0.15346,-0.002 -0.35058,0.20413 -0.43804,0.45774 -0.0875,0.25362 -0.35974,0.72661 -0.60507,1.05109 -0.53062,0.70177 -0.0499,0.82538 0.79264,0.20377 z m -14.953664,-0.54877 c 0.259329,-0.15987 0.04862,-0.28494 -0.712819,-0.42311 -1.255329,-0.22777 -2.150332,0.0999 -1.105017,0.4045 0.937118,0.2731 1.397395,0.27783 1.817831,0.019 z m 8.487264,-0.20594 c 1.68296,-0.13568 3.43714,-0.41209 3.89819,-0.61427 0.46103,-0.20221 1.02157,-0.3654 1.24563,-0.36268 0.22407,0.003 0.47113,-0.0954 0.54904,-0.21816 0.0779,-0.1227 -0.4199,-0.22343 -1.10623,-0.22387 -3.19779,-0.002 -6.41223,-0.25699 -7.85541,-0.62311 -4.513052,-1.14496 -5.931617,-1.77733 -9.775085,-4.35743 -1.175365,-0.78902 -2.531993,-1.83635 -3.01473,-2.32741 -0.482736,-0.49107 -1.068301,-1.00518 -1.301253,-1.14244 -0.530697,-0.31273 -3.103406,-3.4789 -3.099342,-3.81426 0.0017,-0.13633 -0.154447,-0.31048 -0.346883,-0.387 -0.486581,-0.1935 -3.090137,-5.74176 -2.908584,-6.19827 0.08137,-0.20458 0.450916,-0.36829 0.821232,-0.3638 0.370318,0.004 0.881334,-0.0968 1.135594,-0.22501 0.254261,-0.12824 1.285243,-0.60673 2.291075,-1.0633 1.005834,-0.45659 2.02866,-1.0214 2.27295,-1.25515 0.244292,-0.23376 1.00716,-0.83495 1.695268,-1.33597 0.688107,-0.50102 1.255865,-1.0002 1.261688,-1.10927 0.0058,-0.10908 0.191689,-0.40451 0.41304,-0.65651 1.503022,-1.71112 1.598372,-1.8483 2.794955,-4.02143 1.630693,-2.9615 2.026559,-4.53216 2.058044,-8.16566 0.02579,-2.97798 -0.04302,-3.5037 -0.676581,-5.16795 -0.387919,-1.01903 -0.837422,-2.03295 -0.998899,-2.25321 -0.161476,-0.22025 -0.502921,-0.828 -0.758768,-1.35055 -0.498478,-1.01808 -2.370081,-3.18561 -2.754723,-3.19027 -0.12797,-0.002 -0.388862,-0.19573 -0.579757,-0.4315 -0.190896,-0.23578 -0.588796,-0.53798 -0.88422,-0.67159 -0.295427,-0.1336 -0.714398,-0.35399 -0.93105,-0.48976 -0.903583,-0.56625 -3.353359,-0.93619 -4.237547,-0.63993 -0.475547,0.15935 -1.149242,0.28627 -1.4971,0.28205 -1.809204,-0.0219 -4.348349,2.12546 -5.054592,4.27477 -0.415635,1.26487 -0.432379,1.62696 -0.142418,3.07981 0.410132,2.05493 1.703553,3.75559 3.253852,4.27834 1.462181,0.49305 1.649657,0.73566 0.807015,1.04439 -1.273749,0.4667 -4.203865,0.27789 -5.885134,-0.37925 -0.84575,-0.33057 -1.596296,-0.68082 -1.667879,-0.77835 -0.07158,-0.0976 -0.39701,-0.26418 -0.72317,-0.37032 -0.32616,-0.10614 -0.591673,-0.30402 -0.590029,-0.43972 0.0016,-0.13569 -0.130495,-0.24835 -0.293641,-0.25033 -0.391978,-0.005 -4.416064,-4.13522 -4.411306,-4.52794 0.002,-0.16771 -0.174055,-0.37562 -0.391305,-0.46203 -0.217251,-0.0864 -0.393168,-0.30834 -0.390927,-0.49322 0.0022,-0.18489 -0.164996,-0.47997 -0.371638,-0.65574 -0.343876,-0.29251 -0.597869,-0.73091 -1.783706,-3.07891 -0.508489,-1.00684 -1.092695,-2.46217 -1.334216,-3.32371 -0.102341,-0.36507 -0.269964,-0.78385 -0.372495,-0.93062 -0.17237,-0.24674 -0.574176,-2.08565 -1.24635,-5.70406 -0.661631,-3.56166 -0.143569,-9.4497 1.104679,-12.55525 0.706652,-1.75808 2.347909,-4.99333 2.579333,-5.08439 0.11962,-0.0471 0.219537,-0.25424 0.222034,-0.46036 0.0025,-0.20615 0.05433,-0.3742 0.115185,-0.37346 0.06086,7.3e-4 0.299839,-0.0687 0.531074,-0.15419 0.346399,-0.12812 0.417794,0.0621 0.405455,1.08029 -0.0091,0.74721 0.229574,1.78129 0.60357,2.61551 0.69383,1.54762 2.539047,3.58628 3.467867,3.83139 0.336236,0.0887 0.610168,0.25776 0.608739,0.37565 -0.0014,0.11786 0.797688,0.49873 1.775812,0.84637 1.465455,0.52085 2.290593,0.63322 4.68896,0.63865 1.727847,0.004 3.565381,-0.15737 4.522047,-0.39688 2.033868,-0.50919 6.471451,-2.70279 7.607762,-3.76072 0.24304,-0.22625 0.793276,-0.67192 1.222745,-0.99035 1.275361,-0.94561 2.21156,-1.85445 2.215146,-2.15044 0.0018,-0.15245 0.097,-0.27606 0.211452,-0.27467 0.249667,0.003 2.203682,-2.50713 2.207667,-2.83598 0.0015,-0.12676 0.243511,-0.44304 0.537723,-0.70288 0.294212,-0.25985 0.536965,-0.6404 0.539453,-0.84568 0.0025,-0.20527 0.151787,-0.63154 0.331777,-0.94722 0.600804,-1.05381 1.3075,-3.97045 1.716477,-7.08421 0.629374,-4.79174 -0.06376,-9.4268 -1.988098,-13.29443 -0.459371,-0.92328 -0.264689,-1.15888 0.615528,-0.74485 1.079822,0.50789 3.608648,0.4143 5.259538,-0.19463 0.81702,-0.30135 1.48674,-0.65045 1.48826,-0.77577 0.002,-0.12532 0.12182,-0.2264 0.26733,-0.22464 0.14551,0.002 0.50555,-0.23201 0.8001,-0.5195 0.29455,-0.2875 0.53698,-0.64177 0.53874,-0.78728 0.002,-0.14552 0.11382,-0.26323 0.249,-0.26159 0.487,0.006 1.11764,-2.74311 0.85196,-3.71375 -0.1364,-0.49828 -0.24688,-0.99832 -0.24552,-1.11121 0.003,-0.21998 1.36632,0.0623 1.58365,0.32785 0.0717,0.0876 0.72204,0.46412 1.44518,0.83672 0.72313,0.37259 1.40083,0.79756 1.50596,0.94436 0.10515,0.14681 0.19398,0.1857 0.19741,0.0864 0.009,-0.24791 2.40437,1.42743 3.32134,2.32252 0.73859,0.72098 0.77714,0.72779 3.39467,0.60051 1.45617,-0.0709 6.24331,-0.15648 10.63809,-0.19031 6.55374,-0.0505 8.67007,0.0264 11.76963,0.42813 2.07852,0.26931 4.04276,0.54739 4.36499,0.61795 0.57372,0.12565 0.92904,-0.13001 3.41137,-2.45458 1.46471,-1.37163 5.53155,-3.28483 7.9896,-3.75861 l 0.80167,-0.15452 -0.007,1.96841 c -0.006,1.76057 0.084,2.11329 0.85062,3.34049 0.47143,0.75465 1.22397,1.65812 1.67231,2.00775 1.28436,1.00157 3.4471,1.76772 5.04464,1.78708 0.80504,0.01 1.44387,0.13693 1.44205,0.28708 -0.002,0.14826 -0.36854,0.93452 -0.81498,1.74729 -0.44645,0.81274 -0.81449,1.7069 -0.81789,1.987 -0.003,0.28009 -0.13937,0.75107 -0.30216,1.04659 -0.74516,1.35267 -0.44287,10.49469 0.40068,12.11785 0.14573,0.28041 0.26247,0.71663 0.25941,0.96934 -0.005,0.40973 0.80275,2.34789 2.01096,4.82553 0.23203,0.47579 0.51384,0.86618 0.62625,0.86755 0.11242,0.001 0.2024,0.16865 0.19993,0.37176 -0.006,0.49825 3.90518,4.52064 5.29489,5.44538 0.6121,0.40731 1.20632,0.89167 1.32046,1.0764 0.11413,0.1847 0.40212,0.33819 0.63998,0.34107 0.23784,0.003 0.91378,0.23459 1.50208,0.51487 3.41422,1.62676 6.33395,2.13792 9.84326,1.72334 2.28347,-0.26974 5.11701,-1.13172 5.12218,-1.55814 0.001,-0.11874 0.18209,-0.21371 0.40147,-0.21105 0.50249,0.006 3.58319,-2.98403 4.21506,-4.09109 0.2602,-0.45592 0.47655,-1.11413 0.48078,-1.46273 0.004,-0.34858 0.14796,-0.77074 0.31945,-0.9381 0.56804,-0.55445 1.53329,0.94089 3.42831,5.31121 0.23162,0.53417 0.41838,1.19728 0.41503,1.47357 -0.003,0.27631 0.11892,0.63045 0.27174,0.78702 0.72415,0.74191 1.09673,8.04588 0.57855,11.3418 -0.44553,2.83387 -0.89553,4.21104 -2.32522,7.11609 -2.97949,6.05419 -6.07447,9.70902 -9.64759,11.39276 -1.00527,0.47372 -2.14572,1.01601 -2.53431,1.20509 -0.44203,0.21511 -1.63196,0.32945 -3.17893,0.30544 -2.23168,-0.0351 -2.42197,-0.0756 -1.95418,-0.42058 0.28506,-0.21021 0.67411,-0.38032 0.86453,-0.37801 0.34146,0.004 1.41564,-0.89843 1.41921,-1.19242 0.001,-0.0832 0.1739,-0.31911 0.38421,-0.52439 0.5602,-0.54678 0.8199,-3.00333 0.49021,-4.63691 -0.15628,-0.77437 -0.3685,-1.47295 -0.47157,-1.5524 -0.10311,-0.0795 -0.3835,-0.50405 -0.62309,-0.94355 -0.23962,-0.4395 -0.64778,-0.92073 -0.90707,-1.06941 -0.25924,-0.14867 -0.59165,-0.39917 -0.73864,-0.55668 -1.02044,-1.09347 -1.82877,-1.32138 -4.75269,-1.34006 -2.86339,-0.0183 -2.93623,-0.003 -4.5094,0.92029 -2.41261,1.41661 -4.16669,3.17213 -5.2947,5.29915 -1.07254,2.0224 -1.67034,7.37048 -1.08835,9.73663 1.07309,4.36291 1.48959,5.41597 3.24625,8.20762 1.91598,3.0449 3.7634,4.66364 7.59812,6.65769 1.41297,0.73472 2.79064,1.33868 3.06147,1.34209 0.42343,0.005 0.46536,0.14141 0.29932,0.97091 -0.41064,2.05149 -3.51683,7.40635 -5.18941,8.94624 -0.34359,0.31632 -0.62569,0.656 -0.62689,0.75485 -0.006,0.51108 -4.48984,4.28937 -5.08164,4.2822 -0.14424,-0.002 -0.26336,0.0878 -0.26471,0.19891 -0.002,0.17112 -1.48804,0.90964 -2.92827,1.45535 -0.2193,0.0831 -0.57865,0.25881 -0.79854,0.39048 -1.02708,0.61505 -4.90711,1.84745 -7.17188,2.27795 -1.18062,0.22442 -1.17354,0.22737 0.65821,0.27269 2.29318,0.0568 6.44495,-0.48249 8.21561,-1.06709 2.31629,-0.7647 3.44234,-1.22197 3.87664,-1.57419 0.23204,-0.18817 0.62085,-0.33973 0.86404,-0.33678 0.24319,0.003 0.44332,-0.0896 0.44473,-0.20575 0.001,-0.11608 0.69794,-0.64233 1.54785,-1.16941 4.40757,-2.73342 10.05532,-9.67398 10.70581,-13.15643 0.0814,-0.4356 0.32148,-1.23883 0.53353,-1.78494 0.21208,-0.54614 0.3892,-1.29044 0.39361,-1.65406 0.007,-0.55621 -0.0881,-0.6382 -0.59759,-0.51686 -0.33309,0.0793 -0.95671,-0.0443 -1.38583,-0.27474 -0.42915,-0.23042 -0.93547,-0.42157 -1.12524,-0.42474 -0.18975,-0.002 -0.95941,-0.35717 -1.71038,-0.78661 -0.75096,-0.42945 -1.86818,-1.05037 -2.4827,-1.37983 -0.61451,-0.32945 -1.116,-0.70604 -1.11442,-0.83687 0.002,-0.1308 -0.11617,-0.23929 -0.26168,-0.24105 -0.14551,-0.002 -0.47499,-0.21413 -0.73218,-0.47193 -0.25722,-0.25779 -0.91623,-0.86762 -1.46453,-1.35518 -0.93402,-0.83053 -3.28539,-4.18643 -3.28054,-4.68205 0.001,-0.1235 -0.16023,-0.60174 -0.35876,-1.06276 -0.19853,-0.46098 -0.55911,-1.64432 -0.80126,-2.62964 -0.51619,-2.10043 -0.33343,-5.79496 0.35272,-7.1296 0.2302,-0.44781 0.41994,-0.92761 0.42162,-1.06619 0.004,-0.30428 1.53776,-2.242 2.28384,-2.88478 1.86628,-1.60792 5.13145,-1.55341 6.34942,0.10604 0.7324,0.99783 0.69023,3.01285 -0.0787,3.7634 -0.313,0.30547 -0.78799,0.51049 -1.05557,0.4556 -0.44266,-0.0909 -0.42821,-0.15286 0.16051,-0.68817 1.27413,-1.15849 0.66765,-3.256 -1.05736,-3.65681 -2.2959,-0.53354 -3.95194,0.86832 -4.17743,3.5362 -0.0908,1.07406 -0.004,1.79838 0.28667,2.39966 0.22918,0.47372 0.41535,0.97145 0.41372,1.10608 -0.007,0.56969 2.44628,2.68502 4.14485,3.57399 1.78732,0.93542 1.92094,0.96276 4.99231,1.02167 2.56225,0.0491 3.42654,-0.0372 4.59476,-0.45889 2.18212,-0.78775 4.55287,-1.8767 4.96813,-2.28201 0.2041,-0.19921 0.45186,-0.36217 0.55061,-0.36217 0.37993,6.1e-4 3.2048,-2.81135 4.33189,-4.3113 0.65023,-0.86531 1.30925,-1.69357 1.46447,-1.84056 0.15523,-0.14701 0.4278,-0.50093 0.60571,-0.78647 0.17791,-0.28557 0.82042,-1.30268 1.42783,-2.26027 1.17082,-1.84594 1.99745,-3.72635 2.58814,-5.88766 0.19819,-0.72526 0.54165,-1.79568 0.7632,-2.37869 0.99312,-2.61332 1.36885,-8.70861 0.77377,-12.55274 -0.39258,-2.53593 -1.27127,-5.79489 -1.67352,-6.20702 -0.14646,-0.15005 -0.2639,-0.46916 -0.26099,-0.70914 0.006,-0.5127 -1.77446,-4.06916 -2.1039,-4.20199 -0.12402,-0.05 -0.22358,-0.24924 -0.22124,-0.44274 0.006,-0.50416 -4.04964,-4.68058 -4.55124,-4.68665 -0.23064,-0.003 -0.41803,-0.11443 -0.41641,-0.24809 0.002,-0.13363 -0.78044,-0.51426 -1.73788,-0.84582 -1.99833,-0.69199 -3.60911,-0.66465 -5.26493,0.0894 -1.25695,0.57243 -1.44173,0.7371 -2.18426,1.94652 -1.54067,2.5094 -0.66917,5.45262 1.93386,6.53091 1.02748,0.42565 1.18406,0.42948 2.00673,0.0494 1.03795,-0.47962 1.52625,-1.72079 1.292,-3.28391 -0.13993,-0.93371 -0.12497,-0.95851 0.30956,-0.51331 0.63793,0.65357 0.65894,3.16389 0.0322,3.83985 -0.25132,0.271 -0.45798,0.57938 -0.45926,0.68526 -0.005,0.38256 -1.74664,1.73574 -2.92779,2.27435 -2.31821,1.05702 -7.87015,1.18932 -9.6651,0.23029 -0.39788,-0.21255 -0.89,-0.3885 -1.09361,-0.39097 -0.2036,-0.002 -0.57562,-0.11284 -0.82674,-0.24527 -0.25109,-0.13246 -0.91184,-0.46791 -1.46835,-0.74545 -0.55648,-0.27756 -1.30077,-0.77608 -1.65397,-1.1078 -0.3532,-0.33172 -0.7551,-0.6045 -0.8931,-0.60618 -0.13802,-0.002 -0.24954,-0.11813 -0.24783,-0.25879 0.002,-0.14065 -0.38328,-0.65157 -0.85547,-1.13536 -1.14077,-1.16876 -2.93338,-3.67515 -3.15889,-4.41663 -0.0993,-0.32642 -0.28206,-0.59475 -0.40619,-0.59625 -0.12416,-0.002 -0.30377,-0.39066 -0.39915,-0.8648 -0.0954,-0.47413 -0.27995,-0.99804 -0.41011,-1.16422 -0.33535,-0.42814 -0.88458,-2.78931 -1.22636,-5.27222 -0.42839,-3.11229 0.2203,-7.17485 1.51813,-9.50731 0.16086,-0.28912 0.47017,-0.86725 0.68736,-1.28473 0.55117,-1.05959 3.52702,-3.80554 4.32821,-3.99383 0.36487,-0.0858 0.90017,-0.31392 1.18958,-0.50698 0.28942,-0.19307 0.83305,-0.34734 1.2081,-0.34279 0.37505,0.005 0.81543,-0.12205 0.97861,-0.28132 0.16317,-0.15928 0.82606,-0.24054 1.47305,-0.18061 l 1.17641,0.10896 -0.23902,-0.7967 c -0.13146,-0.43819 -0.29822,-0.99757 -0.37057,-1.24304 -0.0747,-0.25363 -0.29531,-0.38577 -0.51084,-0.30603 -0.29429,0.10886 -0.31103,0.22454 -0.0748,0.51636 0.16747,0.20685 0.2243,0.45437 0.12629,0.55002 -0.098,0.0957 -0.35763,-0.0889 -0.57694,-0.41027 -0.25829,-0.37847 -0.67593,-0.5876 -1.18574,-0.59377 -0.50727,-0.006 -0.84643,-0.17484 -0.95425,-0.47462 -0.18198,-0.506 -1.64106,-3.04673 -1.87448,-3.26409 -0.33151,-0.30871 -1.83275,-2.70272 -1.83014,-2.91849 0.002,-0.12913 -0.086,-0.27555 -0.19451,-0.32539 -0.10854,-0.0498 -0.54802,-0.63065 -0.97661,-1.29074 -1.01673,-1.56588 -1.18856,-1.74136 -1.89467,-1.93479 -0.95366,-0.26127 -0.96795,0.25473 -0.0329,1.18852 0.47726,0.47661 1.2595,1.49627 1.73832,2.26587 0.47884,0.7696 0.97724,1.40058 1.10756,1.40216 0.13035,0.002 0.23484,0.18145 0.2322,0.39972 -0.003,0.21827 0.12033,0.39836 0.27325,0.40021 0.35514,0.004 1.02494,1.64875 1.01473,2.49136 -0.009,0.73822 -2.24225,3.05043 -2.93819,3.04199 -0.23792,-0.003 -0.5612,0.12026 -0.71835,0.27365 -0.15713,0.15337 -1.18054,0.33566 -2.27419,0.40504 -1.53991,0.0977 -2.1829,0.0263 -2.85033,-0.31687 -0.47399,-0.2437 -0.99227,-0.45123 -1.1517,-0.46121 -0.4244,-0.0265 -1.35394,-1.34185 -1.55292,-2.19731 -0.23538,-1.01192 0.49554,-2.4206 1.60087,-3.08537 0.48714,-0.29297 0.92513,-0.63517 0.97332,-0.76046 0.17433,-0.45327 4.14052,-0.88374 5.25857,-0.57074 0.57631,0.16132 1.04895,0.19994 1.05033,0.0858 0.003,-0.26337 -1.3136,-1.91478 -1.75495,-2.20092 -0.18292,-0.1186 -0.33135,-0.31728 -0.32985,-0.44155 0.007,-0.54069 -1.69596,-2.14973 -2.2821,-2.15683 -0.46392,-0.006 -0.55626,0.0778 -0.36138,0.32637 0.81945,1.04527 1.99756,2.53327 2.32679,2.93883 0.33563,0.41349 0.32933,0.46705 -0.0545,0.46239 -0.23874,-0.003 -1.04762,-0.84619 -1.79751,-1.874 -0.98982,-1.35663 -1.52846,-1.87074 -1.96557,-1.87604 -0.35886,-0.004 -0.60406,0.15305 -0.60693,0.38955 -0.003,0.21827 0.0861,0.39795 0.19711,0.3993 0.21222,0.003 2.41027,2.78967 2.40709,3.0522 -0.008,0.64879 -1.69045,-0.92061 -2.99754,-2.79587 l -0.50885,-0.73007 -2.92331,0.0964 c -1.60782,0.053 -3.04348,0.18757 -3.19036,0.29907 -0.14688,0.1115 -0.86337,0.28121 -1.59219,0.37714 -0.72883,0.0959 -1.44525,0.26145 -1.59207,0.36787 -0.14682,0.10644 -0.74499,0.33781 -1.32925,0.51418 -1.45657,0.4397 -4.16307,1.66942 -5.70183,2.5907 -0.97905,0.58619 -1.5943,0.76075 -2.63673,0.74812 -1.15377,-0.014 -1.36061,0.0587 -1.36572,0.48027 -0.003,0.27318 -0.18639,0.64276 -0.40686,0.82126 -0.22046,0.1785 -0.40282,0.48856 -0.40525,0.68898 -0.002,0.20047 -0.18606,0.36226 -0.40806,0.35957 -0.40981,-0.005 -0.26622,-0.45186 0.68952,-2.14608 0.13392,-0.23736 0.172,-0.50481 0.0846,-0.59433 -0.31381,-0.32151 -0.88403,-0.16262 -1.03954,0.28963 -0.42486,1.2356 -1.58057,3.22222 -1.87244,3.21869 -0.38581,-0.005 -0.19606,-0.98738 0.30585,-1.58392 0.18183,-0.21609 0.54166,-0.8334 0.79966,-1.37184 0.41483,-0.86575 0.42417,-1.0249 0.081,-1.37657 -0.34324,-0.35166 -0.43819,-0.34363 -0.82119,0.0695 -0.23819,0.25687 -0.43612,0.71851 -0.43984,1.02585 -0.004,0.30737 -0.11027,0.62106 -0.23675,0.69714 -0.12651,0.0761 -0.38929,0.68179 -0.58397,1.34604 -0.23206,0.7918 -0.44249,1.11701 -0.61107,0.94429 -0.16855,-0.17268 -0.003,-0.92743 0.48215,-2.19159 1.08779,-2.83736 1.07512,-2.76194 0.48984,-2.92258 -0.59869,-0.16436 -1.10472,0.22036 -1.11229,0.84557 -0.003,0.23282 -0.10989,0.53516 -0.23795,0.67186 -0.12806,0.13671 -0.43919,0.78187 -0.69145,1.43369 -0.48543,1.25446 -1.49466,2.71804 -1.49798,2.17237 -8.5e-4,-0.17777 0.30382,-0.99263 0.67757,-1.81077 0.37374,-0.81814 0.68189,-1.62156 0.68478,-1.78531 0.002,-0.16379 0.17552,-0.61474 0.38364,-1.00214 0.42918,-0.7989 0.34612,-1.00376 -0.33808,-0.83365 -0.2807,0.0698 -0.7229,0.72932 -1.0808,1.61188 -0.33314,0.8216 -0.71905,1.67104 -0.85757,1.88765 -0.13852,0.21662 -0.37373,0.66745 -0.5227,1.00185 -0.14896,0.3344 -0.3829,0.53685 -0.51987,0.44988 -0.14155,-0.0898 0.0774,-0.865 0.50731,-1.79584 0.416,-0.90075 0.8407,-1.96097 0.9438,-2.35607 0.2923,-1.12028 -0.49873,-0.6504 -1.12302,0.66708 -1.90094,4.01178 -2.316,4.74803 -2.41229,4.27908 -0.056,-0.27264 0.13926,-0.9847 0.43386,-1.58236 1.05063,-2.13144 1.50107,-3.33223 1.31969,-3.51806 -0.27215,-0.27883 -1.04691,0.27173 -1.39989,0.99477 -1.9052,3.90255 -2.13596,4.29108 -2.20994,3.72091 -0.0423,-0.32618 0.3584,-1.45922 0.89048,-2.5179 1.11411,-2.21674 1.13025,-2.28986 0.50731,-2.2974 -0.27365,-0.003 -0.61724,0.34589 -0.83611,0.84982 -1.08763,2.50414 -1.77533,3.7188 -1.86259,3.28988 -0.0513,-0.2526 0.0967,-0.72381 0.32905,-1.04715 0.23237,-0.32333 0.42512,-0.8054 0.42835,-1.07129 0.003,-0.26586 0.1849,-0.81959 0.40374,-1.23048 0.36693,-0.68897 0.3592,-0.7577 -0.0993,-0.88357 -0.54258,-0.14893 -1.07545,0.23148 -1.082,0.77244 -0.007,0.54413 -0.92492,2.45141 -1.17882,2.44834 -0.12675,-0.002 -0.14448,-0.21013 -0.0394,-0.46353 0.51541,-1.24289 0.90775,-3.12083 0.69795,-3.34077 -0.3067,-0.32153 -1.05448,0.29177 -1.06149,0.87061 -0.003,0.24538 -0.18299,0.67514 -0.40006,0.95503 -0.21706,0.27986 -0.4015,0.76211 -0.40989,1.07171 -0.0166,0.63081 -0.75608,2.47071 -0.99124,2.46786 -0.22994,-0.003 0.18676,-2.03436 0.58384,-2.84643 0.19213,-0.3929 0.42778,-1.1149 0.52368,-1.60439 0.17119,-0.87384 0.16347,-0.88299 -0.42551,-0.503 -0.35777,0.23081 -0.90112,1.17161 -1.34631,2.3311 -0.41056,1.06926 -0.74896,1.97385 -0.75202,2.0102 -0.003,0.0364 -0.007,0.18514 -0.009,0.33064 -0.002,0.14551 -0.13272,0.263 -0.29103,0.26108 -0.35168,-0.004 -0.0652,-1.83708 0.49134,-3.14374 0.2099,-0.49279 0.33924,-0.93941 0.28742,-0.99248 -0.27488,-0.28164 -1.4606,1.06066 -1.74778,1.97858 -0.42029,1.34337 -0.97613,1.7559 -0.78997,0.58628 0.0726,-0.45637 0.0633,-0.82878 -0.0206,-0.82757 -0.31631,0.004 -0.75041,0.40389 -1.06026,0.97535 -0.36512,0.67344 -0.83356,0.78024 -0.82639,0.18844 0.003,-0.28563 -0.28741,-0.40039 -1.03782,-0.40948 -0.57346,-0.007 -1.1068,-0.11928 -1.1852,-0.24965 -0.0784,-0.13036 -0.43516,-0.31425 -0.7928,-0.40862 -0.35765,-0.0943 -0.98124,-0.31354 -1.38576,-0.48699 -0.40453,-0.17346 -0.79479,-0.33636 -0.86724,-0.36201 -0.45805,-0.16209 -1.29462,-0.51234 -1.97451,-0.82667 -0.71086,-0.32866 -1.83148,-0.75671 -4.60921,-1.76059 -0.50714,-0.18327 -1.37952,-0.43241 -1.93862,-0.55359 -1.01369,-0.21976 -1.01614,-0.21823 -0.87317,0.54455 0.1856,0.99028 -0.12239,0.96996 -0.68386,-0.0452 -0.44372,-0.80218 -1.13385,-1.27136 -1.43613,-0.97632 -0.0883,0.0861 -0.0179,0.33265 0.15619,0.5478 0.17418,0.21511 0.27427,0.72525 0.22242,1.13363 -0.088,0.69304 -0.13628,0.65091 -0.72478,-0.63184 -0.52099,-1.13562 -0.77065,-1.39753 -1.437054,-1.50753 -0.44359,-0.0732 -0.826131,-0.11773 -0.850094,-0.0989 -0.02396,0.0187 0.178523,0.50474 0.44997,1.07976 0.531899,1.12675 0.601529,1.48166 0.289854,1.47745 -0.109131,-0.001 -0.525474,-0.60188 -0.925208,-1.33422 -0.607234,-1.11253 -0.851098,-1.33306 -1.482516,-1.34071 l -0.75573,-0.009 0.622376,1.26441 c 0.67804,1.37747 0.743741,1.66277 0.381929,1.65838 -0.130818,-0.002 -0.490606,-0.51199 -0.799525,-1.13425 -0.69015,-1.39016 -1.183319,-1.8004 -2.178826,-1.81246 l -0.769256,-0.009 0.543855,0.94783 c 0.595904,1.03851 0.638277,1.18419 0.342616,1.17793 -0.109132,-0.001 -0.476579,-0.42353 -0.816572,-0.93601 -0.527293,-0.79482 -0.768739,-0.93362 -1.642326,-0.94421 -0.563286,-0.007 -1.0251,0.0657 -1.026256,0.16104 -0.0012,0.0954 0.302635,0.58317 0.675095,1.08398 0.999197,1.34346 0.549052,1.37353 -0.649623,0.0434 -0.876249,-0.97235 -1.124117,-1.11257 -1.601998,-0.90623 l -0.565353,0.2441 0.660097,0.91778 c 0.800404,1.11286 0.889262,1.85204 0.129006,1.07313 -0.287494,-0.29456 -0.521594,-0.62814 -0.520223,-0.74132 0.005,-0.41489 -1.069294,-1.13017 -1.709153,-1.13792 -0.362111,-0.004 -0.659036,0.0456 -0.659828,0.11105 -7.94e-4,0.0655 0.349306,0.65256 0.777998,1.30465 0.428694,0.65211 0.775717,1.34695 0.771161,1.54407 -0.01014,0.4405 -1.804491,-1.649 -1.812766,-2.111 -0.0068,-0.37971 -1.591695,-0.48335 -1.596287,-0.10435 -0.0016,0.13511 0.17344,0.4264 0.38906,0.6473 0.21562,0.22091 0.390491,0.52923 0.388602,0.68514 -0.0019,0.1559 0.08585,0.28527 0.194968,0.28753 0.272647,0.006 1.155079,1.63777 0.978587,1.81004 -0.07823,0.0764 -0.182057,0.0887 -0.230717,0.0275 -0.04866,-0.0612 -0.593986,-0.80772 -1.211833,-1.65889 -0.723288,-0.99643 -1.258343,-1.49764 -1.50238,-1.40737 -0.208461,0.0771 -0.48834,0.13887 -0.62195,0.13725 -0.435631,-0.005 -0.262934,0.43767 0.530145,1.35974 0.428235,0.49787 0.779431,0.99456 0.780433,1.10372 0.0011,0.10916 0.280243,0.20184 0.620536,0.20596 0.595388,0.007 0.615686,0.0777 0.538431,1.86703 l -0.08028,1.85952 -2.322113,0.0911 c -1.565613,0.0614 -2.468276,0.22017 -2.770771,0.48733 -0.246761,0.21795 -0.651815,0.39379 -0.900119,0.39078 -0.847271,-0.0103 -3.633638,2.10389 -3.641626,2.7631 -0.0023,0.18736 0.28372,0.65893 0.635538,1.04791 l 0.639667,0.7072 0.859756,-0.95559 c 1.522342,-1.69205 2.606656,-2.04682 5.6703,-1.85525 2.376715,0.14864 2.823832,0.26054 4.234119,1.05945 0.867235,0.49129 1.710425,1.08091 1.873759,1.31024 0.163331,0.22932 0.574086,0.72398 0.912789,1.09924 0.338701,0.37523 0.948156,1.39472 1.354342,2.26552 0.40619,0.87079 0.8995,1.92232 1.096247,2.33669 0.196748,0.41439 0.35433,1.03368 0.350179,1.37618 -0.0041,0.34254 0.117579,0.95948 0.270507,1.37101 0.384219,1.03393 0.472606,4.97081 0.14746,6.56793 -0.519106,2.54983 -0.897508,3.96444 -1.234659,4.61559 -0.187203,0.36156 -0.568287,1.12908 -0.84685,1.70561 -0.278564,0.57655 -0.657226,1.20558 -0.841471,1.39789 -0.184244,0.19227 -0.33629,0.45697 -0.33788,0.58814 -0.0063,0.52367 -4.808335,4.8874 -6.380892,5.79852 -0.922438,0.53446 -1.739924,0.971 -1.816636,0.97007 -0.07672,-9.3e-4 -0.516681,0.16276 -0.977705,0.36378 -0.971207,0.42342 -4.083015,1.16396 -4.833684,1.15028 -0.941859,-0.0174 -4.726823,-1.09502 -4.815193,-1.37122 -0.04798,-0.14997 -0.321318,-0.27551 -0.607426,-0.27897 -0.63181,-0.008 -2.01939,-1.38004 -2.791729,-2.76115 -0.697353,-1.247 -0.770835,-3.8989 -0.122577,-4.42376 0.573966,-0.4647 0.689085,-0.22414 0.382236,0.79886 -0.495465,1.65179 0.155749,2.87508 1.829818,3.43727 2.048631,0.688 4.226726,-1.13392 4.256126,-3.56012 0.03666,-3.02511 -1.797355,-5.17818 -4.668716,-5.48091 -1.687639,-0.17794 -4.250809,0.36466 -5.599689,1.18539 -1.238828,0.75376 -4.008825,3.36151 -4.013882,3.77878 -0.0016,0.13004 -0.09264,0.27502 -0.202356,0.32222 -0.409088,0.1759 -3.078659,4.60985 -3.053105,5.07097 0.0042,0.0756 -0.296874,0.80418 -0.66904,1.61888 -0.372167,0.8147 -0.679189,1.68959 -0.682275,1.94422 -0.0031,0.25461 -0.190324,0.96693 -0.416085,1.58291 -0.630873,1.72132 -0.657503,9.4487 -0.04331,12.56811 1.24468,6.32159 4.152209,12.8065 7.198112,16.05454 0.57364,0.61171 1.171369,1.11376 1.328288,1.11566 0.156917,0.002 0.283732,0.1332 0.281811,0.29175 -0.0043,0.3533 1.059137,1.29121 1.483562,1.30845 0.169699,0.007 0.34702,0.11313 0.394043,0.23606 0.04702,0.12295 0.675802,0.63998 1.397291,1.14899 1.224205,0.86364 1.706401,1.10435 4.471199,2.23201 3.217968,1.3125 5.935359,1.45352 8.8573,0.45962 1.095273,-0.37254 2.033149,-0.79769 2.084169,-0.9448 0.05103,-0.14709 0.228486,-0.2658 0.394365,-0.26379 0.443411,0.005 2.860518,-2.61436 2.871047,-3.11173 0.0049,-0.23404 0.189836,-0.92498 0.410847,-1.53544 1.190817,-3.28921 -1.768756,-6.50796 -4.987576,-5.42436 -0.704954,0.2373 -1.711303,1.48972 -1.719177,2.13955 -0.0068,0.55838 0.842503,2.07943 1.163218,2.08331 0.183866,0.002 0.48035,0.18443 0.65885,0.40489 0.273347,0.33761 0.223076,0.39961 -0.318696,0.39304 -1.082325,-0.0131 -2.313874,-1.50367 -2.298386,-2.78176 0.008,-0.65746 0.955565,-2.48531 1.478049,-2.85107 1.673457,-1.17139 4.857142,-0.35606 7.049846,1.80542 0.261573,0.25785 0.474322,0.5733 0.472774,0.701 -0.0015,0.12768 0.173972,0.38253 0.390042,0.56632 0.21607,0.18379 0.39062,0.51857 0.38789,0.74393 -0.0027,0.22538 0.166945,0.60441 0.37706,0.84233 0.210112,0.23788 0.554536,1.50992 0.765381,2.82673 0.305304,1.90673 0.321893,2.79281 0.08147,4.35187 -0.354685,2.30003 -0.833146,3.94551 -1.146154,3.94172 -0.122478,-0.001 -0.224717,0.16491 -0.227199,0.36973 -0.0098,0.81213 -1.537689,3.17155 -2.962382,4.57475 -2.774101,2.7322 -6.748069,4.46069 -10.160639,4.41934 -1.311922,-0.0159 -1.758526,0.0666 -1.680433,0.31039 0.0585,0.18263 0.149188,0.93654 0.201536,1.67537 0.05234,0.73882 0.226687,1.59637 0.387423,1.90565 0.160737,0.30931 0.289454,0.79316 0.286036,1.07524 -0.0062,0.51098 0.952251,2.98615 1.255159,3.24148 0.08758,0.0739 0.35647,0.57499 0.597518,1.11371 0.486243,1.08666 0.964496,1.75367 2.224447,3.10241 0.466921,0.4998 0.848368,0.9565 0.847661,1.01486 -0.0024,0.19723 2.21607,2.31714 2.877313,2.74948 0.360969,0.23601 0.749675,0.58194 0.863792,0.76874 0.114116,0.18679 0.380149,0.34171 0.591184,0.34427 0.211034,0.003 0.38234,0.11687 0.380678,0.25402 -0.0037,0.30737 3.91222,2.97323 4.375701,2.97885 0.184198,0.002 0.72283,0.22504 1.196961,0.49515 0.474131,0.27011 2.049347,0.7735 3.500481,1.11863 1.451133,0.34514 2.994386,0.73074 3.429452,0.85691 1.128642,0.32726 2.205638,0.33843 5.674237,0.0587 z M 92.865885,115.79529 c -0.290172,-0.0735 -0.639384,-0.24256 -0.776026,-0.37562 -0.136643,-0.13306 -0.461379,-0.2445 -0.721633,-0.24765 -0.514576,-0.006 -1.223934,-0.51953 -2.363661,-1.71041 -1.872781,-1.95678 0.134369,-4.66706 3.426731,-4.62717 1.282835,0.0156 3.866711,0.6892 4.473846,1.16642 1.46098,1.14831 1.935897,1.67262 2.327256,2.56935 0.417812,0.95733 0.420958,1.11282 0.03711,1.83357 -0.605306,1.13657 -1.903763,1.64065 -4.064439,1.57785 -0.996375,-0.029 -2.049004,-0.11284 -2.339177,-0.18634 z m 0.391139,-1.06519 c -1.14726,-0.79855 -1.733577,-1.50291 -2.067942,-2.48427 -0.273871,-0.80383 -0.25515,-1.06786 0.12654,-1.78454 0.442284,-0.83046 0.440115,-0.84123 -0.170737,-0.84863 -0.809365,-0.01 -2.056288,1.2765 -2.066654,2.13192 -0.0086,0.71095 0.760451,1.82128 1.265757,1.82741 0.164817,0.002 0.298413,0.1075 0.296874,0.23446 -0.0032,0.26509 2.298614,1.36391 2.89389,1.38145 0.239626,0.007 0.129629,-0.17426 -0.277728,-0.4578 z m 4.571209,-0.0473 c 0.69235,-0.48043 0.785254,-0.68062 0.670687,-1.44513 -0.233599,-1.55869 -2.639356,-3.30331 -4.587718,-3.32692 -0.845209,-0.0102 -1.878518,0.53049 -2.059545,1.07778 -0.25282,0.7643 0.337676,2.25016 1.097321,2.76116 0.746382,0.50209 3.145276,1.45461 3.71969,1.47697 0.195743,0.007 0.717545,-0.23712 1.159565,-0.54386 z m 77.208957,1.65799 c -0.19441,-0.24013 -0.27407,-0.51414 -0.17698,-0.60888 0.25008,-0.24409 0.77146,0.35074 0.63988,0.73004 -0.0756,0.21802 -0.21858,0.18058 -0.4629,-0.12116 z m -15.20563,-8.29396 c -0.75141,-0.74595 -1.36388,-1.54501 -1.36109,-1.77565 0.004,-0.29563 0.25583,-0.16707 0.85468,0.43551 0.46728,0.47023 1.11432,1.11833 1.43786,1.44028 0.48303,0.48063 0.79783,1.26052 0.50742,1.257 -0.04,-4.8e-4 -0.6875,-0.61119 -1.43887,-1.35714 z m -4.70673,0.47127 c -0.27917,-0.46418 0.0464,-0.55783 0.40387,-0.11621 0.20565,0.25397 0.22389,0.40602 0.0484,0.40389 -0.15474,-0.002 -0.3583,-0.13133 -0.45232,-0.28768 z m -50.21191,-0.9793 c -0.0794,-0.21459 -0.0296,-0.45915 0.11058,-0.54347 0.1402,-0.0843 0.25194,0.0919 0.24831,0.39144 -0.008,0.63879 -0.15565,0.70146 -0.35889,0.15203 z m 52.5249,0.4125 c -0.31231,-0.34059 -0.5652,-0.79018 -0.562,-0.99907 0.003,-0.22705 0.32042,-0.0359 0.78805,0.47533 0.43023,0.47028 0.78143,0.92105 0.78045,1.00172 -0.004,0.32747 -0.47161,0.10541 -1.0065,-0.47798 z m 4.29871,-0.20775 c -1.59696,-1.85345 -1.74565,-2.05952 -1.48387,-2.05635 0.32156,0.004 1.49744,1.17687 2.21186,2.20636 0.71202,1.02603 0.19318,0.91912 -0.72799,-0.15001 z m -49.15867,114.69369 c 0.35502,-0.71039 0.74119,-1.5286 0.85817,-1.81824 0.40037,-0.99132 1.38326,-3.15802 1.84104,-4.05834 0.25163,-0.49494 0.46019,-0.9687 0.46343,-1.05279 0.003,-0.0841 0.0944,-0.28829 0.20253,-0.45373 0.10815,-0.16545 -0.0227,-0.57846 -0.29072,-0.9178 l -0.48736,-0.61701 -0.20687,0.91178 c -0.11376,0.50146 -0.30027,1.02971 -0.41445,1.17386 -0.11417,0.14415 -0.29906,0.91586 -0.41084,1.71494 -0.15155,1.08329 -0.50547,1.89713 -1.39141,3.19951 -0.6535,0.96067 -1.1898,1.88115 -1.19179,2.04552 -0.002,0.1644 -0.20053,0.59164 -0.44121,0.9494 -0.42938,0.63833 -0.42577,0.64643 0.19322,0.4325 0.38169,-0.13189 0.88569,-0.72803 1.27626,-1.5096 z m -21.330986,0.82351 c 0.03045,-0.14516 -0.271568,-0.30557 -0.671163,-0.35646 -0.399595,-0.0509 -0.727955,0.0245 -0.729689,0.16754 -0.0065,0.53315 1.291902,0.70823 1.400852,0.18892 z m -2.185406,-0.95259 c -0.518647,-0.34416 -1.395229,-0.35478 -1.190537,-0.0144 0.08817,0.1466 0.480698,0.2686 0.87229,0.27112 0.55688,0.004 0.626211,-0.0523 0.318247,-0.25669 z m 67.867382,0.26551 c 2.79743,-0.51542 4.44279,-1.07694 8.3696,-2.85642 4.1155,-1.86498 7.21688,-4.58127 10.23037,-8.96008 1.01538,-1.47543 1.07633,-1.59905 1.9652,-3.98468 l 0.61469,-1.64973 -0.62635,-0.16533 c -0.75559,-0.1994 -1.94851,-0.82541 -3.44445,-1.80755 -0.61076,-0.401 -1.17147,-0.72982 -1.24599,-0.73072 -0.47887,-0.006 -4.05114,-3.50364 -4.92515,-4.82254 -0.43751,-0.66019 -0.86214,-1.26069 -0.94362,-1.33445 -0.55765,-0.50476 -3.3788,-6.47848 -3.37081,-7.13759 0.003,-0.28057 -0.16627,-1.01843 -0.37703,-1.63971 -0.6586,-1.94128 -0.24353,-7.01045 0.76834,-9.38408 0.12345,-0.28958 0.37951,-0.923 0.56905,-1.40762 0.1895,-0.48463 0.59691,-1.17729 0.9053,-1.53928 1.65817,-1.94624 2.42732,-2.72855 2.96876,-3.01953 0.33045,-0.17762 1.00212,-0.54316 1.4926,-0.81235 1.73516,-0.95226 6.3412,-1.52417 6.75356,-0.83856 0.0766,0.12739 0.42009,0.23501 0.76334,0.23917 1.30615,0.0158 5.13436,2.60023 5.12395,3.45917 -0.002,0.16903 0.11293,0.30873 0.25546,0.31046 0.14255,0.002 0.49728,0.48419 0.78831,1.07211 0.7129,1.44025 0.75022,5.47724 0.0601,6.50315 -0.25087,0.37294 -0.39673,0.73895 -0.32416,0.81333 0.23547,0.24121 2.12894,-0.50833 3.57099,-1.41358 1.2814,-0.80439 3.79975,-2.97683 3.80343,-3.28097 8.4e-4,-0.0692 0.34236,-0.49002 0.75892,-0.93515 1.00174,-1.0704 3.88194,-6.65106 4.68623,-9.07996 1.4127,-4.26628 1.71941,-10.7479 0.67574,-14.28037 -0.64592,-2.18617 -1.73804,-4.6516 -2.06229,-4.65553 -0.14733,-0.002 -0.26938,0.11929 -0.27119,0.26906 -0.006,0.53209 -3.41895,3.54698 -4.80442,4.24462 -2.92797,1.47432 -7.43619,1.87618 -11.26511,1.00414 -2.2593,-0.51456 -6.8183,-2.66493 -8.1586,-3.8482 -2.33022,-2.05724 -4.83757,-4.75191 -4.83222,-5.19326 0.002,-0.14937 -0.10499,-0.27291 -0.23735,-0.27451 -0.31047,-0.004 -2.37936,-3.24696 -3.06199,-4.79996 -1.083,-2.46389 -1.36297,-3.22223 -1.35746,-3.67693 0.003,-0.257 -0.092,-0.58155 -0.21125,-0.72125 -1.2229,-1.43195 -1.0218,-9.24445 0.32366,-12.57352 0.25352,-0.62731 0.22012,-0.68106 -0.4293,-0.69105 -0.38736,-0.005 -1.36666,-0.33533 -2.17633,-0.73197 -0.80967,-0.39665 -1.67418,-0.72362 -1.92115,-0.72662 -0.28092,-0.003 -0.41784,-0.17845 -0.3657,-0.46748 0.0669,-0.37085 -0.0848,-0.45106 -0.76894,-0.40636 -0.66399,0.0434 -0.81758,-0.0316 -0.69524,-0.33918 0.0863,-0.21717 0.29315,-0.397 0.45954,-0.39961 0.16637,-0.003 0.0748,-0.18138 -0.20345,-0.39725 -0.44718,-0.34689 -0.56272,-0.34237 -0.99438,0.0389 -0.26861,0.23721 -0.57585,0.34095 -0.68277,0.23047 -0.10693,-0.11047 0.14282,-0.46373 0.55497,-0.78502 0.64781,-0.50498 0.69644,-0.6292 0.35876,-0.91641 -0.28664,-0.24382 -0.53218,-0.25865 -0.92265,-0.0557 -0.71062,0.36928 -0.8441,0.34672 -0.66171,-0.11188 0.0842,-0.21174 0.38787,-0.45637 0.67483,-0.54365 0.30926,-0.0941 0.48444,-0.33849 0.43017,-0.6002 -0.0967,-0.46632 -0.19558,-0.48197 -1.2538,-0.19846 -0.60977,0.16336 -0.59034,0.11476 0.23947,-0.59877 0.99399,-0.85475 0.96889,-1.58631 -0.0368,-1.07239 -0.32059,0.16383 -0.64346,0.38233 -0.71747,0.48557 -0.0741,0.10325 -0.43242,0.27685 -0.79643,0.38581 -0.61933,0.18539 -0.63608,0.16646 -0.26102,-0.29464 0.68418,-0.84114 1.45023,-1.39538 1.93325,-1.39871 0.45777,-0.003 0.69224,-0.79423 0.23703,-0.79975 -0.73733,-0.009 -5.08595,2.44387 -5.09114,2.87165 -0.002,0.13302 -0.14932,0.24009 -0.32824,0.23792 -0.1789,-0.002 -1.23192,0.91872 -2.34007,2.04641 l -2.01476,2.05037 -4.09653,-0.39735 c -3.90941,-0.37922 -18.88726,-0.52944 -23.21607,-0.23283 -1.00915,0.0692 -1.65389,0.0109 -1.65195,-0.1494 0.002,-0.14453 -0.34955,-0.63252 -0.78067,-1.08436 -0.43112,-0.45185 -0.78246,-0.93649 -0.78076,-1.077 0.002,-0.14048 -0.0907,-0.25657 -0.20538,-0.25796 -0.11466,-0.001 -0.83692,-0.60703 -1.60503,-1.34588 -0.7681,-0.73885 -1.67927,-1.41798 -2.02483,-1.50917 -0.34555,-0.0912 -0.69242,-0.27246 -0.77083,-0.40283 -0.0784,-0.13037 -0.28822,-0.23878 -0.46628,-0.24094 -0.23374,-0.003 -0.30137,0.50042 -0.24326,1.81054 0.075,1.691 0.0203,1.90313 -0.80499,3.11798 -1.50172,2.21074 -3.85792,3.47932 -6.40498,3.44846 -0.70926,-0.009 -1.290251,0.0415 -1.291097,0.11131 -8.46e-4,0.0698 0.162211,0.57782 0.362351,1.12895 0.727186,2.00241 1.213826,5.66718 1.010876,7.61264 -0.289119,2.77152 -0.932036,5.97014 -1.26538,6.2955 -0.161443,0.15758 -0.296022,0.47103 -0.299064,0.69657 -0.0086,0.6429 -2.108141,4.46547 -3.327662,6.05877 -1.186177,1.54974 -2.412781,2.77587 -4.201536,4.19987 -0.618573,0.49242 -1.503849,1.21629 -1.967283,1.60855 -0.463437,0.39228 -0.92342,0.71415 -1.022186,0.71528 -0.09878,0.002 -0.338801,0.15709 -0.533405,0.34656 -0.391652,0.38135 -3.537702,1.86288 -5.807149,2.73472 -2.258698,0.86772 -5.207183,1.16164 -7.820901,0.77963 -1.210246,-0.17689 -2.416281,-0.43214 -2.680078,-0.56723 -0.263799,-0.13511 -1.060509,-0.53822 -1.770471,-0.89587 -1.275398,-0.64245 -3.23357,-2.44976 -4.1765,-3.85469 -0.437525,-0.65192 -0.526649,-0.68374 -0.898421,-0.32087 -0.371774,0.36286 -0.338409,0.50359 0.336339,1.41853 0.411977,0.55862 1.282341,1.54574 1.934138,2.19361 1.027259,1.02106 1.072554,1.10863 0.340101,0.65756 -0.464741,-0.28623 -1.378575,-1.02633 -2.030742,-1.64467 -0.652166,-0.61837 -1.187045,-1.01794 -1.188621,-0.88794 -0.0016,0.13001 -0.06613,0.39545 -0.143449,0.58987 -0.177485,0.44627 1.009953,1.79124 2.437889,2.76127 0.602672,0.40942 1.094517,0.84763 1.092988,0.9738 -0.0015,0.12617 0.175801,0.23157 0.394066,0.23422 0.218265,0.003 0.395434,0.12132 0.393708,0.26371 -0.004,0.33202 -1.377191,-0.27796 -1.65799,-0.73651 -0.114123,-0.18636 -0.327776,-0.3403 -0.474783,-0.34209 -0.14701,-0.002 -0.82048,-0.43695 -1.496599,-0.96708 -1.058927,-0.83026 -1.243378,-0.89849 -1.330795,-0.49227 -0.09905,0.46026 0.592162,1.21781 2.977857,3.2637 0.760906,0.65253 0.81642,0.74118 0.208713,0.33328 -0.455356,-0.30563 -0.937153,-0.55701 -1.070657,-0.55863 -0.133504,-0.002 -0.706106,-0.36246 -1.27245,-0.80187 -1.281376,-0.99419 -1.477284,-1.00781 -1.279096,-0.089 0.208658,0.96735 2.333719,3.02277 3.57259,3.45553 0.253607,0.0886 0.45986,0.26367 0.45834,0.38909 -0.0034,0.28206 -1.064681,-0.18642 -2.661058,-1.17469 -1.471976,-0.91127 -1.547236,-0.91728 -1.556842,-0.12454 -0.0056,0.4648 0.369379,0.89563 1.435404,1.64903 0.793663,0.56092 1.384706,1.07678 1.313422,1.14636 -0.07128,0.0695 -0.723052,-0.19057 -1.448378,-0.57811 l -1.318778,-0.70461 -0.0083,0.68453 c -0.0106,0.87485 0.960332,1.79892 2.805472,2.6701 0.790608,0.37327 1.361107,0.75322 1.267776,0.84433 -0.09333,0.0911 -0.549664,-0.025 -1.014077,-0.25773 -2.770287,-1.38895 -3.207365,-1.44455 -2.930522,-0.37274 0.120964,0.4683 1.731245,1.45604 2.386678,1.46398 0.152778,0.002 0.423821,0.18375 0.602321,0.40421 0.418047,0.51633 0.146604,0.50343 -1.382362,-0.0656 -1.344416,-0.50033 -1.658988,-0.42173 -1.422637,0.35551 0.132464,0.43557 2.916634,1.96051 3.59445,1.96872 0.132856,0.002 0.240111,0.12198 0.238348,0.26749 -0.0045,0.36859 -0.237365,0.33502 -1.965979,-0.28324 -1.299832,-0.46489 -1.49454,-0.48305 -1.362896,-0.12717 0.08447,0.22837 0.151769,0.56494 0.149552,0.74796 -0.0022,0.183 0.298634,0.4751 0.668563,0.64908 0.691314,0.32516 0.662226,0.93847 -0.03142,0.66261 -0.224325,-0.0892 -0.384876,-0.002 -0.382503,0.20538 0.0079,0.695 0.801344,1.43179 2.02957,1.88462 l 1.241168,0.45758 -0.948267,0.009 c -1.18004,0.0111 -1.355927,0.17467 -0.965509,0.89729 0.433562,0.80247 0.71192,0.96369 1.692465,0.9802 0.472872,0.009 0.858341,0.13352 0.856578,0.27903 -0.0018,0.14551 -0.360368,0.26023 -0.796898,0.25494 -0.436531,-0.005 -0.794911,0.091 -0.7964,0.21394 -0.0047,0.39034 0.889671,1.05863 1.55283,1.16026 0.714159,0.10947 1.086943,0.76496 0.430507,0.75701 -0.230391,-0.003 -0.42038,0.1177 -0.422199,0.26779 -0.0035,0.28576 0.187818,0.37619 1.381253,0.65287 0.815955,0.18919 0.960316,0.6039 0.255702,0.73457 -0.388845,0.0721 -0.34127,0.19381 0.293401,0.75061 0.416625,0.36549 0.946464,0.85917 1.177418,1.09705 1.079683,1.11205 5.016909,3.20194 5.023398,2.66644 0.0015,-0.12287 -0.107706,-0.29349 -0.242653,-0.37918 -0.39491,-0.25058 -1.040503,-2.91046 -1.024619,-4.22129 0.02399,-1.97977 0.968298,-3.97766 2.63818,-5.58172 2.061133,-1.97989 3.292264,-2.45244 6.290395,-2.41461 2.430643,0.0294 3.762125,0.40632 6.097532,1.72023 2.293088,1.29006 5.465555,6.1143 5.748569,8.74161 0.765415,7.10555 -0.564667,12.49826 -4.235837,17.17381 -1.742582,2.21933 -3.277241,3.65981 -5.19337,4.87463 -0.953279,0.60439 -1.878476,1.21675 -2.055993,1.36082 -0.177518,0.14404 -0.399082,0.26098 -0.492365,0.25985 -0.09328,-10e-4 -0.546827,0.16389 -1.007872,0.36672 -0.461047,0.20281 -1.076869,0.40667 -1.368493,0.45299 -0.377115,0.0599 -0.508364,0.25465 -0.454518,0.67444 0.09253,0.72134 1.727615,3.52305 3.264378,5.59351 1.224249,1.64942 4.177566,4.61074 4.603426,4.6159 0.143315,0.002 0.259257,0.11144 0.257653,0.2438 -0.0039,0.32237 3.208022,2.47801 5.431641,3.64536 3.803646,1.99686 11.347954,3.57327 12.216134,2.55261 0.18686,-0.21968 0.42358,-0.39841 0.52605,-0.39717 0.10246,0.001 1.19,-0.52328 2.41677,-1.16561 1.22676,-0.64232 2.33897,-1.13021 2.47159,-1.08423 0.26232,0.091 -1.7928,1.49355 -2.18156,1.48884 -0.13081,-0.002 -0.38822,0.17389 -0.572,0.38996 -0.18379,0.21607 -0.5577,0.39015 -0.8309,0.38684 -0.2732,-0.003 -0.49817,0.11304 -0.49994,0.25855 -0.004,0.35412 0.42389,0.33491 1.86552,-0.0837 1.68148,-0.48824 2.87882,-1.24945 3.48084,-2.21287 0.28197,-0.45125 0.51394,-0.90689 0.51548,-1.0125 0.002,-0.10561 -0.6969,-0.16091 -1.55211,-0.12293 -1.42761,0.0634 -1.63197,-1.7e-4 -2.4963,-0.77786 -0.89398,-0.80432 -0.97869,-0.82797 -1.6821,-0.46981 -0.40738,0.20746 -1.18981,0.59126 -1.73873,0.85289 -0.54891,0.26163 -0.99913,0.56769 -1.00049,0.6801 -0.001,0.11242 -0.3147,0.20063 -0.69629,0.196 -0.58672,-0.007 -0.64223,-0.0691 -0.35964,-0.40126 0.18379,-0.21607 0.50955,-0.39073 0.72391,-0.38813 0.21437,0.003 0.72531,-0.22814 1.13543,-0.51275 0.41012,-0.28461 1.18841,-0.66217 1.72952,-0.83901 0.94669,-0.30938 0.98708,-0.37239 1.06909,-1.66812 0.0982,-1.55112 0.83227,-2.70672 2.16085,-3.40158 0.76661,-0.40092 1.48554,-0.42507 6.78479,-0.22774 3.26001,0.12141 6.34247,0.35239 6.84988,0.51336 0.64705,0.20523 1.17475,0.67378 1.76706,1.56899 0.46447,0.70198 0.84276,1.4184 0.84066,1.59199 -0.003,0.22384 0.64086,0.30699 2.21315,0.28596 l 2.21696,-0.0296 0.49239,-1.44935 c 0.27081,-0.79714 0.62242,-1.58285 0.78133,-1.74601 0.17268,-0.17731 1.7799,-0.34242 3.99476,-0.41036 2.03819,-0.0625 4.18345,-0.22606 4.76725,-0.36341 0.58379,-0.13733 2.31149,-0.23392 3.83934,-0.2146 2.71959,0.036 2.79613,0.0522 3.6471,0.84498 0.85091,0.79282 1.60771,2.22829 1.59798,3.03092 -0.003,0.22194 -0.21523,0.87335 -0.47231,1.44758 -0.56925,1.27151 -1.74167,1.95659 -3.05771,1.78677 -0.91583,-0.11817 -0.93286,-0.10391 -0.70126,0.58731 0.46555,1.38941 2.59291,3.37211 4.0537,3.77804 2.63475,0.73212 4.02108,0.7868 6.8296,0.26933 z m -52.76812,-1.66022 c 0.003,-0.25718 3.29829,-1.86842 4.52506,-2.21259 0.66073,-0.1854 0.66142,-0.18369 0.15293,0.37195 -0.28096,0.307 -0.6542,0.55644 -0.82943,0.55432 -0.17523,-0.002 -0.99223,0.34519 -1.81556,0.77181 -1.57594,0.81659 -2.03808,0.93356 -2.033,0.51451 z m -0.98719,-0.68857 c 0.92087,-0.83337 4.16302,-2.45868 4.86181,-2.43727 0.29095,0.009 -0.42926,0.48575 -1.60046,1.05963 -1.17121,0.57389 -2.17048,1.15213 -2.22059,1.28501 -0.0501,0.1329 -0.31932,0.23883 -0.59822,0.23545 -0.27889,-0.003 -0.50852,0.11291 -0.51028,0.25842 -0.002,0.14551 -0.15081,0.26278 -0.33121,0.26059 -0.1804,-0.002 -0.001,-0.30002 0.39895,-0.66183 z m 1.04243,-3.62049 c 0.004,-0.18188 0.51447,-0.55582 1.13464,-0.83098 0.62017,-0.27515 1.33715,-0.5981 1.59328,-0.71763 0.33868,-0.1581 0.46434,-0.10663 0.46076,0.18876 -0.003,0.2234 -0.12634,0.40469 -0.27474,0.40289 -0.1484,-0.002 -0.74491,0.28865 -1.32558,0.64545 -1.174,0.72137 -1.59885,0.8047 -1.58836,0.31151 z m 2.21156,-2.61924 c 0.0628,-0.18115 0.31264,-0.36538 0.55529,-0.40938 0.30764,-0.0558 0.39132,0.0453 0.27647,0.3341 -0.19361,0.4868 -0.99962,0.55977 -0.83176,0.0752 z m 68.7459,-6.50789 c 0.98264,-1.78476 1.41372,-2.23341 1.40437,-1.46152 -0.01,0.78747 -1.76556,3.30757 -2.30024,3.30109 -0.0639,-7.7e-4 0.33928,-0.82857 0.89587,-1.83957 z m -2.73029,1.28814 c 0.0916,-0.14442 0.21922,-0.26195 0.28337,-0.26117 0.0642,7.8e-4 0.11523,0.12046 0.11347,0.26597 -0.002,0.14551 -0.1293,0.26304 -0.28338,0.26117 -0.15411,-0.002 -0.20515,-0.12156 -0.11346,-0.26597 z m 1.25861,-2.10158 c 0.46826,-0.86751 0.9522,-1.57608 1.07549,-1.57458 0.12328,0.001 0.22346,0.0582 0.22264,0.12603 -0.003,0.27779 -0.97942,2.13956 -1.34679,2.56895 -0.80161,0.93688 -0.77883,0.4128 0.0487,-1.1204 z m -0.94597,-1.86368 c 0.0917,-0.14442 0.28577,-0.26113 0.43128,-0.25937 0.14551,0.002 0.18954,0.12136 0.0979,0.26578 -0.0917,0.14442 -0.28577,0.26114 -0.43128,0.25938 -0.14551,-0.002 -0.18954,-0.12137 -0.0979,-0.26579 z m -1.42273,-0.96539 c 0.0164,-0.30806 0.0799,-0.36998 0.16178,-0.15791 0.0741,0.19191 0.0619,0.41998 -0.027,0.50684 -0.089,0.0868 -0.14963,-0.0702 -0.13477,-0.34893 z M 65.891899,169.10687 c 0.0018,-0.14551 0.181786,-0.2624 0.400052,-0.25976 0.218265,0.003 0.395403,0.12387 0.39364,0.26938 -0.0018,0.14551 -0.181787,0.2624 -0.400052,0.25975 -0.218266,-0.003 -0.395403,-0.12386 -0.39364,-0.26937 z m -0.292421,-8.46779 c -0.09087,-0.1511 0.01587,-0.19418 0.25021,-0.10098 0.456204,0.18143 0.537765,0.37209 0.157208,0.36747 -0.136922,-0.002 -0.320262,-0.12156 -0.407418,-0.26649 z m 121.355202,-3.03075 c 0.002,-0.14551 0.34431,-0.26042 0.76121,-0.25537 0.41693,0.005 1.04465,-0.20911 1.39493,-0.4759 0.83026,-0.63234 1.74603,-0.8987 1.94608,-0.56608 0.20374,0.33878 -0.67554,0.79198 -2.36918,1.22109 -1.61492,0.40919 -1.73714,0.41457 -1.73304,0.0763 z m -7.38855,-1.67715 c 0.002,-0.1455 0.35333,-0.26031 0.78129,-0.25513 0.42793,0.005 0.85021,0.12937 0.93837,0.27597 0.0954,0.15863 -0.22091,0.26194 -0.78128,0.25514 -0.51786,-0.006 -0.94014,-0.13047 -0.93838,-0.27598 z m 5.15937,0.032 c 0.43819,-0.13202 1.27422,-0.34074 1.85784,-0.46385 1.44755,-0.30535 3.00618,-0.88103 3.38409,-1.24989 0.37078,-0.3619 1.36619,-0.40323 1.14022,-0.0474 -0.47126,0.74228 -4.49854,2.08952 -6.08922,2.03703 -1.07621,-0.0355 -1.07982,-0.039 -0.29293,-0.27593 z M 68.198683,154.06281 c -0.21241,-0.13797 -0.316491,-0.3189 -0.231286,-0.40206 0.0852,-0.0832 0.303312,0.0321 0.484687,0.25608 0.376087,0.46452 0.30238,0.50697 -0.253401,0.14598 z m 124.166227,-1.20138 c 0.16945,-0.48857 0.73998,-0.56305 0.73432,-0.0958 -0.003,0.23038 -0.19358,0.4166 -0.42395,0.41381 -0.23042,-0.003 -0.37006,-0.14589 -0.31037,-0.31798 z m -76.28816,65.88637 c 0.37044,-1.38702 0.38907,-2.37838 0.0487,-2.59443 -0.14442,-0.0917 -0.26464,0.004 -0.26717,0.21271 -0.003,0.20868 -0.41334,1.25262 -0.9129,2.31984 -0.49957,1.06721 -0.99308,2.29658 -1.09671,2.73192 -0.18318,0.76951 -0.15894,0.75878 0.87212,-0.38633 0.59132,-0.65673 1.19121,-1.66715 1.35588,-2.28371 z m -29.21104,2.34283 c -0.752788,-0.40429 -1.366587,-0.3266 -1.087389,0.13764 0.08207,0.13647 0.529135,0.25199 0.993466,0.25672 l 0.844254,0.007 -0.750314,-0.40298 z m -1.482489,-0.94384 c 0.0018,-0.14551 -0.241928,-0.26753 -0.541536,-0.27116 -0.299608,-0.004 -0.472605,0.11334 -0.384438,0.25994 0.08817,0.1466 0.33186,0.26862 0.541537,0.27116 0.209678,0.003 0.382674,-0.11443 0.384437,-0.25994 z m -1.602361,-1.2974 c -0.776483,-0.61084 -1.442301,-0.8724 -1.66571,-0.65433 -0.193908,0.18926 1.368297,1.10696 1.924542,1.13055 0.208674,0.009 0.09731,-0.19605 -0.258832,-0.47622 z m -1.805882,-1.30968 c 0.0035,-0.28625 -1.208942,-1.13632 -1.639836,-1.14972 -0.627179,-0.0195 -0.585914,0.16193 0.208339,0.91609 0.567657,0.53903 1.426098,0.67914 1.431497,0.23363 z m 30.924872,-2.84301 c 0.48833,-1.35589 0.82348,-2.5723 0.74479,-2.70315 -0.32285,-0.53685 -0.85912,-0.18584 -1.13413,0.74233 -0.55351,1.86809 -1.24627,3.62329 -1.4638,3.70874 -0.51312,0.20158 -0.20329,0.86885 0.36896,0.79466 0.49382,-0.064 0.7489,-0.50103 1.48418,-2.54258 z m 0.31344,1.45514 c 0.005,-0.48789 -0.0487,-0.46255 -0.39921,0.1901 -0.50995,0.94954 -0.51148,1.10593 -0.006,0.69734 0.22046,-0.17851 0.40318,-0.57786 0.40603,-0.88743 z m -2.42694,-0.0851 c 0.0497,-0.2784 0.2653,-0.87926 0.47923,-1.33525 0.21395,-0.45602 0.39064,-0.96583 0.39266,-1.13296 0.002,-0.16713 0.19451,-0.66217 0.42773,-1.10009 0.4142,-0.77771 0.41005,-0.79437 -0.17838,-0.71667 -0.44966,0.0594 -0.73163,0.41347 -1.11198,1.39639 -0.82,2.11913 -1.05928,3.01879 -0.88152,3.31436 0.24651,0.4099 0.76871,0.15499 0.87226,-0.42578 z m -30.901264,-0.74942 c 0.0018,-0.14551 -0.107345,-0.2659 -0.24246,-0.26754 -0.135119,-0.002 -0.430671,-0.19253 -0.656788,-0.42418 -0.226116,-0.23168 -0.593231,-0.38496 -0.815815,-0.34064 -0.359618,0.0716 -0.35882,0.14742 0.0072,0.68091 0.411214,0.59939 1.701665,0.86494 1.707888,0.35145 z m 30.198454,-1.56898 c 0.16025,-0.5529 0.3658,-1.2053 0.45677,-1.44978 0.12194,-0.32771 -0.0149,-0.28438 -0.52062,0.16494 -0.69297,0.61562 -1.19604,2.17653 -0.87404,2.71194 0.22962,0.3818 0.55875,-0.11903 0.93789,-1.4271 z m 4.60533,-0.95564 c -0.27399,-0.45557 -0.51362,-0.21695 -0.86436,0.86076 -0.29279,0.89965 -0.29533,1.1353 -0.014,1.31663 0.24774,0.1598 0.43567,-0.0787 0.67982,-0.86299 0.18558,-0.5961 0.27503,-1.18757 0.19876,-1.31439 z m -37.023724,0.11629 c -0.539218,-0.61055 -1.182064,-0.71374 -1.1884,-0.19081 -0.0063,0.51664 0.262132,0.7088 1.002521,0.71777 0.641562,0.008 0.646295,-0.006 0.185879,-0.52696 z m -1.015262,-1.22466 c -0.08553,-0.23124 -0.154191,-0.52975 -0.152572,-0.66336 0.0016,-0.1336 -0.354217,-0.24725 -0.790748,-0.25254 -0.944499,-0.0114 -1.018294,0.29826 -0.209084,0.87744 0.780872,0.55888 1.351961,0.57795 1.152403,0.0386 z m -0.934058,-1.68027 c 0.006,-0.49365 -0.942682,-1.34878 -1.701333,-1.53359 -0.772014,-0.18805 -0.780244,-0.17978 -0.334829,0.33625 0.251154,0.29099 0.45506,0.65977 0.453124,0.81951 -0.0033,0.27189 0.485532,0.4981 1.249855,0.57838 0.181683,0.0191 0.331616,-0.0712 0.333183,-0.20055 z m -0.774374,-2.08938 c -0.007,-0.39722 -0.922133,-1.30598 -1.62829,-1.61686 -0.629616,-0.27719 -0.72399,-0.25915 -0.725287,0.13869 -0.002,0.61801 0.256755,0.94679 1.038373,1.31936 0.77671,0.37021 1.320058,0.4358 1.315204,0.15881 z m -0.996297,-2.67984 c -0.34822,-0.67007 -0.808383,-1.00875 -1.662693,-1.22383 -1.166897,-0.29375 -0.875091,0.51923 0.447933,1.24795 1.095531,0.60342 1.536343,0.59466 1.21476,-0.0241 z m -0.527386,-2.11057 c 0.0061,-0.50018 -1.232111,-1.39499 -1.942187,-1.4036 -1.151924,-0.014 0.485974,1.73539 1.738247,1.85651 0.109023,0.0103 0.200793,-0.19327 0.20394,-0.45291 z m -0.243531,-1.73891 c 0.0061,-0.49933 -0.778721,-1.16667 -1.636901,-1.39192 -0.609982,-0.16013 -0.72637,-0.10621 -0.731766,0.3391 -0.0044,0.36235 0.305216,0.66322 0.980711,0.95306 1.235838,0.53023 1.382612,0.54079 1.387956,0.0997 z m 6.051467,-1.72744 c 0.980036,-0.30113 1.842272,-0.61812 1.916083,-0.70445 0.07381,-0.0863 0.613268,-0.38931 1.198787,-0.67328 1.6708,-0.81031 4.299987,-3.12313 4.895702,-4.30662 0.182026,-0.36162 0.620393,-1.15461 0.974144,-1.76222 0.667296,-1.14614 1.353429,-4.03084 0.959882,-4.03561 -0.123422,-10e-4 -0.227904,0.28643 -0.232186,0.63981 -0.0043,0.35338 -0.18853,0.81891 -0.40944,1.03453 -0.22091,0.21562 -0.402962,0.49988 -0.404559,0.63166 -0.0054,0.44453 -2.134741,3.20988 -3.128053,4.06226 -2.97641,2.55422 -6.924375,4.17546 -11.465226,4.70826 -0.765127,0.0897 -1.392483,0.27394 -1.394123,0.40929 -0.0016,0.13538 0.116962,0.17396 0.263562,0.0858 0.1466,-0.0881 0.265017,-0.0342 0.26315,0.11988 -0.0065,0.53781 4.609818,0.39057 6.562277,-0.20931 z m 85.610635,-20.21915 c 1.60444,-4.5063 5.45979,-7.57914 10.17729,-8.11164 1.20127,-0.1356 1.26341,-0.17414 0.6665,-0.41312 -1.37076,-0.54883 -4.0473,0.11113 -6.43648,1.587 -2.256,1.39362 -4.75275,4.6777 -4.77213,6.27702 -0.005,0.3732 -0.15883,0.82546 -0.34292,1.00501 -0.22967,0.22402 -0.35993,1.42236 -0.41508,3.81848 l -0.0803,3.49203 0.22709,-2.77559 c 0.15751,-1.925 0.45664,-3.42021 0.9761,-4.87919 z m -87.856314,3.95029 c -0.279866,-0.21705 -0.786231,-0.39801 -1.125256,-0.40212 -1.189154,-0.0144 -5.74991,-2.62565 -6.645126,-3.80465 -0.288129,-0.37947 -2.760492,-3.2918 -3.065327,-3.61084 -0.179636,-0.188 -0.325671,-0.41943 -0.324521,-0.5143 0.0012,-0.0949 -0.379089,-0.79264 -0.844975,-1.5506 -1.265916,-2.05958 -1.49544,-2.52639 -1.903065,-3.87067 -0.874531,-2.88408 -1.169752,-4.31993 -1.479591,-7.19619 -0.285486,-2.65019 -0.269757,-3.52851 0.120807,-6.7459 0.246967,-2.03444 0.624649,-4.04259 0.839293,-4.46256 0.214644,-0.41997 0.392232,-0.92613 0.39464,-1.12479 0.0024,-0.19866 0.35899,-1.00677 0.792408,-1.79581 0.481928,-0.87735 0.733856,-1.65252 0.648565,-1.9956 -0.134266,-0.5401 -0.162709,-0.53327 -0.763348,0.18303 -0.343136,0.40923 -0.62947,0.85157 -0.636297,0.98296 -0.0068,0.1314 -0.319627,0.86847 -0.695116,1.63794 -1.34699,2.76029 -2.290677,8.86219 -1.853348,11.98376 0.290599,2.07425 0.892161,5.27511 1.196219,6.36496 1.187123,4.25509 3.599343,8.83402 5.779067,10.96997 0.405049,0.39692 0.734929,0.84743 0.733066,1.00114 -0.0019,0.15372 0.146555,0.28131 0.329819,0.28353 0.183263,0.002 0.481189,0.24752 0.662054,0.54509 0.393167,0.64687 2.913202,2.36742 4.386155,2.99463 0.579138,0.24661 1.70767,0.46488 2.507848,0.48503 1.334185,0.0337 1.412662,0.004 0.946026,-0.35801 z m 17.513523,-2.56683 c -0.499364,-3.61796 -2.274175,-6.76789 -4.927205,-8.74482 -2.271532,-1.69262 -3.256123,-2.01498 -6.294828,-2.0609 -2.394681,-0.036 -2.834234,0.0317 -3.834888,0.5922 -1.341806,0.75167 -1.503215,1.15003 -0.263138,0.64948 0.481589,-0.19442 1.585791,-0.42486 2.453782,-0.51214 1.674764,-0.16842 4.687435,0.28673 4.830833,0.7298 0.04676,0.14449 0.272204,0.26497 0.500985,0.26774 1.273616,0.0154 4.477125,3.4557 5.695094,6.11598 1.497008,3.26977 1.62245,3.58513 1.794653,4.51166 0.31928,1.71791 0.34978,0.66127 0.0447,-1.549 z m 92.576631,2.01135 c 1.40567,-0.66299 2.61832,-1.36272 2.69477,-1.55496 0.0764,-0.19223 0.24134,-0.34825 0.36645,-0.34673 0.35009,0.004 2.11915,-1.80228 2.12359,-2.16857 0.002,-0.17842 0.22745,-0.46022 0.50062,-0.62625 0.54738,-0.3327 0.95236,-1.39549 0.53372,-1.40057 -0.14504,-0.002 -0.58494,0.37199 -0.97756,0.83058 -2.84486,3.32254 -5.82983,5.50268 -7.87732,5.75337 -0.4911,0.0602 -1.11969,0.23738 -1.39691,0.39393 -0.43181,0.24383 -0.36215,0.28744 0.48647,0.30462 0.65275,0.0129 1.86177,-0.39093 3.54617,-1.18542 z m 7.25972,-7.07672 c 0.29555,-0.25111 0.62768,-0.73088 0.73806,-1.06617 0.18892,-0.57391 0.16453,-0.58971 -0.41666,-0.26965 -0.74672,0.41122 -1.27768,1.00858 -1.29451,1.45633 -0.0172,0.46093 0.34095,0.41656 0.97311,-0.12051 z m 1.62383,-2.6761 c 0.64823,-0.8107 0.3878,-1.13103 -0.44797,-0.55104 -0.87875,0.60982 -1.12294,1.40988 -0.34443,1.12849 0.25581,-0.0925 0.61238,-0.35232 0.7924,-0.57745 z m 0.89788,-1.99645 c 0.18675,-0.21955 0.27284,-0.4675 0.19131,-0.55104 -0.26381,-0.27027 -1.25044,0.17178 -1.25517,0.56238 -0.006,0.49956 0.6351,0.49272 1.06386,-0.0114 z m 0.80282,-1.951 c 0.39287,-0.71317 0.35411,-1.07151 -0.1165,-1.07721 -0.32438,-0.004 -0.93095,0.94171 -0.93725,1.46119 -0.004,0.34713 0.81555,0.0484 1.05375,-0.38398 z m 0.58273,-1.86255 c 0.1336,0.002 0.24653,-0.29468 0.25094,-0.65846 0.0126,-1.04355 -0.7023,-0.74823 -1.15843,0.47846 -0.13967,0.37561 -0.0833,0.45368 0.2411,0.33368 0.23292,-0.0861 0.53278,-0.1553 0.66639,-0.15368 z m 0.31278,-2.02174 c 0.51172,-0.45193 0.68167,-1.40604 0.25139,-1.41126 -0.3168,-0.004 -1.08619,1.05409 -1.09161,1.50097 -0.006,0.45599 0.25367,0.42834 0.84022,-0.0897 z m 0.56404,-2.59929 c 0.17043,-0.3624 0.23483,-0.73579 0.14307,-0.82978 -0.26616,-0.27273 -0.98082,0.44043 -0.98742,0.98535 -0.009,0.70947 0.47981,0.61947 0.84435,-0.15557 z m -0.18301,-1.61704 c 0.51846,-0.19177 0.57157,-1.15547 0.0641,-1.16162 -0.34667,-0.004 -0.69623,0.52878 -0.70281,1.07154 -0.003,0.28607 0.0779,0.29756 0.63877,0.09 z m 0.14316,-2.73233 c 0.0651,-0.40968 -0.0177,-0.56701 -0.25866,-0.4909 -0.19489,0.0617 -0.39745,0.38339 -0.45007,0.71501 -0.0651,0.40969 0.0177,0.56702 0.25865,0.4909 0.19489,-0.0616 0.39745,-0.38338 0.45008,-0.71501 z m -0.23868,-1.87913 c 0.0865,-0.54734 0.0451,-0.58308 -0.32734,-0.28158 -0.50426,0.40828 -0.58175,1.16439 -0.10379,1.0134 0.18261,-0.0577 0.37665,-0.38701 0.43118,-0.73182 z m -0.2029,-1.72992 c 0.003,-0.20969 -0.17395,-0.3834 -0.39223,-0.38604 -0.39848,-0.005 -0.55063,0.55191 -0.23825,0.87191 0.2439,0.24991 0.62513,-0.0439 0.63048,-0.48587 z m -0.50989,-1.5938 c 0.003,-0.20968 -0.17396,-0.38339 -0.39222,-0.38604 -0.39849,-0.005 -0.55064,0.55191 -0.23827,0.87192 0.2439,0.2499 0.62513,-0.0439 0.63049,-0.48588 z m -0.51187,-1.43029 c 0.004,-0.31213 -0.50818,-0.65232 -0.69999,-0.4651 -0.1918,0.18721 0.13589,0.70726 0.44801,0.71104 0.13694,0.002 0.25032,-0.109 0.25198,-0.24594 z m -118.096521,-2.6508 c 0.975674,-0.21387 2.171643,-0.58635 2.657709,-0.82776 0.486069,-0.24141 1.400362,-0.69716 2.031764,-1.01278 0.631404,-0.31564 1.725298,-1.10611 2.430875,-1.75661 0.705579,-0.65053 1.395896,-1.18139 1.534038,-1.17972 0.138145,0.002 0.253335,-0.17553 0.25598,-0.39381 0.0026,-0.21826 0.107672,-0.39559 0.233392,-0.39407 0.125721,0.002 0.577969,-0.49905 1.004997,-1.11238 0.427026,-0.61333 0.836995,-1.17396 0.911042,-1.24582 0.29764,-0.28889 0.840828,-1.37136 0.739992,-1.4747 -0.05927,-0.0607 -0.398979,0.27078 -0.754916,0.73664 -1.676464,2.1942 -4.262351,4.48758 -6.364262,5.64439 -1.503746,0.8276 -6.075033,1.82199 -8.254434,1.79559 -1.365025,-0.0165 -5.032604,-0.69301 -5.656915,-1.04338 -0.155147,-0.0871 0.01179,0.15605 0.370957,0.5403 0.902207,0.96519 3.738721,2.01712 5.581307,2.06985 0.827487,0.0238 2.302801,-0.13189 3.278474,-0.34574 z m 117.325461,0.77361 c -0.20215,-0.38897 -0.39668,-0.5017 -0.57142,-0.33113 -0.17478,0.17058 -0.14952,0.44854 0.0741,0.8165 0.4459,0.7337 0.90031,0.29017 0.49728,-0.48537 z m -9.31981,-0.61446 c 1.5017,-0.73743 1.45515,-1.11484 -0.12047,-0.97641 -3.65323,0.32096 -7.19462,0.33626 -8.53388,0.0369 -0.79826,-0.17846 -1.62959,-0.35764 -1.84739,-0.39822 -1.21993,-0.22732 -4.82158,-2.50596 -5.71133,-3.61338 -0.17921,-0.22307 -0.32733,-0.28263 -0.32915,-0.13235 -0.002,0.15024 0.74457,1.00896 1.65864,1.90825 1.58091,1.55531 3.12437,2.47237 5.55482,3.30039 2.60432,0.88726 7.39806,0.82294 9.32876,-0.12516 z m 8.67853,-0.4633 c 0.23463,-0.36959 -0.40938,-1.13852 -0.70881,-0.84628 -0.26454,0.25823 -0.0241,1.11358 0.31414,1.11768 0.12137,0.001 0.29896,-0.12065 0.39467,-0.2714 z M 75.644153,145.86631 c 0.666077,-0.69202 1.409237,-2.57119 1.421642,-3.59483 0.01253,-1.03435 -1.206241,-3.38315 -2.090766,-4.02928 -0.42035,-0.30707 -0.765815,-0.43111 -0.767698,-0.27572 -0.0019,0.15544 0.105009,0.28391 0.237538,0.28551 0.13253,0.002 0.512603,0.5718 0.844604,1.2671 0.750682,1.5721 0.79618,4.00443 0.08917,4.76689 -0.253049,0.27291 -0.461375,0.60207 -0.462943,0.73149 -0.0016,0.12942 -0.322294,0.50316 -0.712726,0.8305 l -0.709876,0.59517 0.788726,0.01 c 0.478784,0.006 1.014132,-0.22464 1.362332,-0.58639 z m 110.115947,1.14344 c 0.002,-0.14551 -0.11585,-0.266 -0.26136,-0.26777 -0.14551,-0.002 -0.266,0.11585 -0.26777,0.26136 -0.002,0.14551 0.11585,0.266 0.26136,0.26777 0.14551,0.002 0.26601,-0.11585 0.26777,-0.26136 z m -0.91613,-0.82333 c 0.002,-0.20416 -0.20336,-0.41383 -0.45741,-0.46595 -0.45497,-0.0933 -0.6503,0.46574 -0.29124,0.83363 0.27395,0.28067 0.74359,0.05 0.74865,-0.36768 z m -0.86781,-1.00296 c 0.38008,-0.14894 0.39756,-0.26566 0.11944,-0.79847 -0.30045,-0.5756 -0.35943,-0.59111 -0.76015,-0.20002 -0.23892,0.23322 -0.36932,0.59998 -0.28976,0.81501 0.15743,0.42562 0.26067,0.44597 0.93047,0.18348 z m -87.706847,-3.42563 c 2.777498,-5.92718 3.239317,-7.74729 3.108863,-12.25249 -0.05186,-1.79101 -0.213128,-3.61505 -0.358368,-4.0534 -0.600938,-1.81372 -1.07165,-3.47182 -1.066953,-3.75832 0.0032,-0.20176 0.351106,-0.25483 1.023803,-0.15629 1.250742,0.18321 3.788722,-0.47628 5.145992,-1.33717 1.64696,-1.04462 2.34589,-2.3925 2.37234,-4.57497 0.0144,-1.19105 -0.0835,-1.8585 -0.27291,-1.8608 -0.17317,-0.002 -0.24594,0.27332 -0.17585,0.6657 0.0658,0.3681 0.0157,0.73175 -0.11125,0.80807 -0.12693,0.0764 -0.23358,0.36831 -0.23697,0.6488 -0.009,0.71261 -1.30173,2.41362 -2.4456,3.21714 -1.53384,1.07746 -3.548283,1.72559 -5.297315,1.70439 -0.867674,-0.0105 -1.578145,0.0268 -1.578826,0.0829 -6.79e-4,0.0561 0.17248,0.44519 0.384797,0.86462 0.212318,0.41943 0.384147,0.97876 0.381842,1.24297 -0.0024,0.26423 0.125615,0.73019 0.284266,1.03547 0.281486,0.54161 0.587506,2.54207 0.847351,5.53907 0.139166,1.60512 -0.447683,5.74325 -1.17585,8.29145 -0.248661,0.87017 -0.487569,1.81984 -0.530906,2.11038 -0.04333,0.29054 -0.385921,1.14966 -0.761295,1.90914 -0.375373,0.7595 -0.584307,1.3821 -0.464298,1.38355 0.120009,10e-4 0.537219,-0.67815 0.927137,-1.51024 z m 87.688227,1.15349 c 0.006,-0.50637 -0.10088,-0.60965 -0.52308,-0.50467 -0.29378,0.073 -0.53351,0.35445 -0.53685,0.63021 -0.004,0.3219 0.18128,0.50056 0.5231,0.5047 0.38253,0.005 0.53125,-0.16998 0.53683,-0.63024 z m 0.3324,-1.57642 c 0.32041,-0.46782 -0.0441,-0.69609 -0.58573,-0.36687 -0.65623,0.39887 -0.70629,1.02944 -0.0636,0.80113 0.25579,-0.0909 0.54797,-0.28631 0.64931,-0.43426 z m -22.47015,-3.90409 c -0.1352,-0.35023 -0.25505,-0.49776 -0.26631,-0.32789 -0.0275,0.4126 0.27128,1.19968 0.40554,1.06864 0.0586,-0.0572 -0.004,-0.39055 -0.13923,-0.74075 z m -0.49865,-3.65084 c -0.4715,-3.6508 0.16281,-9.42436 1.17925,-10.73403 0.11191,-0.14418 0.28882,-0.52901 0.39316,-0.8552 0.16075,-0.50251 0.0913,-0.59425 -0.45505,-0.60087 -0.70935,-0.009 -3.51362,-0.89052 -4.45953,-1.40251 -0.93924,-0.50835 -1.63177,-1.32619 -2.51285,-2.96745 -0.64271,-1.19729 -0.81057,-1.83143 -0.79631,-3.0085 0.0221,-1.82444 -0.59141,-1.91734 -0.74636,-0.11303 -0.10397,1.20985 0.61078,4.22048 1.00303,4.22523 0.12246,0.001 0.22117,0.12689 0.21933,0.2787 -0.002,0.15178 0.59676,0.84369 1.33018,1.53758 1.28841,1.21887 2.52304,1.7905 4.64485,2.15051 0.95795,0.16254 1.017,0.32931 0.47922,1.35313 -0.97896,1.86373 -1.31243,9.64972 -0.52331,12.21839 0.4476,1.45701 0.56847,0.42737 0.24439,-2.08195 z m -81.398387,0.59692 c 0.222806,-0.35094 -0.75841,-1.47308 -1.105527,-1.26434 -0.22172,0.13335 -0.224452,0.35074 -0.01039,0.83579 0.290198,0.65792 0.837071,0.86793 1.116035,0.42855 z m -3.286043,-0.3678 c 0.0042,-0.34885 -1.215815,-1.56655 -1.573911,-1.57089 -0.381437,-0.005 0.0139,0.87908 0.622195,1.39083 0.644477,0.54218 0.946635,0.59935 0.951716,0.18006 z m 1.850909,0.10813 c 0.0046,-0.37602 -1.047376,-1.3856 -1.448775,-1.39046 -0.472982,-0.006 -0.497507,0.35973 -0.0712,1.06114 0.309586,0.50935 1.51463,0.77043 1.519975,0.32932 z m 3.970467,-0.0679 c 0.0025,-0.18276 0.350577,-0.33866 0.777941,-0.34848 0.425331,-0.01 0.971829,-0.21155 1.214441,-0.44834 0.242611,-0.23682 0.533114,-0.42944 0.645561,-0.42808 0.299937,0.004 2.325533,-2.0439 3.101371,-3.13496 l 0.669705,-0.9418 -0.437035,-1.51621 c -0.240368,-0.83389 -0.524884,-1.51726 -0.632257,-1.51856 -0.107373,-0.001 -0.133608,0.1642 -0.05831,0.36777 0.197073,0.53278 -1.187503,2.97404 -2.3115,4.07559 -1.193066,1.16924 -1.754004,1.58416 -3.018458,2.23273 -0.548102,0.28114 -0.99985,0.63288 -1.003881,0.78164 -0.0039,0.14877 -0.102463,0.11648 -0.218738,-0.0718 -0.28437,-0.46039 -1.171548,-0.11563 -0.986908,0.38354 0.07855,0.21236 0.141505,0.49546 0.139885,0.62907 -0.0016,0.1336 0.473272,0.24869 1.055312,0.25574 0.669908,0.008 1.059948,-0.10853 1.062866,-0.31787 z m 97.630124,0.63381 c 0.005,-0.44275 -0.9523,-1.31738 -1.89737,-1.73286 -0.96858,-0.4258 -0.91499,-0.20829 0.2522,1.02368 1.00313,1.05883 1.63762,1.33233 1.64517,0.70918 z m 1.94817,-0.0225 c -0.0812,-0.21927 -0.27042,-0.40017 -0.42069,-0.40199 -0.1503,-0.002 -0.41098,-0.19653 -0.57932,-0.43269 -0.16831,-0.23616 -0.51771,-0.38924 -0.77639,-0.34017 -0.42506,0.0807 -0.41158,0.15841 0.14,0.80803 0.66586,0.78421 1.89251,1.05917 1.6364,0.36682 z m 2.01967,0.12169 c 0.005,-0.44434 -1.05053,-1.30064 -1.61226,-1.30745 -0.26877,-0.003 -0.49081,0.17266 -0.49345,0.39092 -0.003,0.21828 0.16104,0.39886 0.36372,0.40132 0.20272,0.002 0.4349,0.18387 0.51601,0.40315 0.17092,0.46204 1.22057,0.55797 1.22598,0.11207 z M 73.60194,131.94196 c -0.535682,-0.47217 -0.77977,-0.56038 -0.865641,-0.31281 -0.06577,0.18964 0.21613,0.64071 0.626456,1.00242 0.535682,0.47216 0.77977,0.56038 0.865641,0.3128 0.06577,-0.18964 -0.216129,-0.64071 -0.626456,-1.00241 z m 112.31488,2.13458 c 0.005,-0.42767 -1.32441,-1.13574 -1.83886,-0.97929 -0.4771,0.14509 -0.48058,0.18175 -0.062,0.6527 0.45031,0.5067 1.89568,0.75503 1.90087,0.32659 z m 1.53429,-0.80869 c 0.044,-0.21609 -0.17398,-0.55523 -0.48441,-0.75366 -0.47609,-0.30432 -0.62494,-0.30168 -0.95127,0.0168 -0.3373,0.32924 -0.33018,0.43569 0.0555,0.8309 0.51362,0.52619 1.26423,0.47506 1.38012,-0.0941 z M 81.225697,131.53789 c 1.218865,-0.46392 3.547127,-2.03532 4.210209,-2.84157 1.15008,-1.39841 1.449865,-2.31754 1.492556,-4.57623 0.05893,-3.11819 -0.680071,-4.50763 -2.967127,-5.57867 -1.44479,-0.67658 -2.319085,-0.70896 -3.96505,-0.14676 -1.64532,0.56203 -2.239251,1.49552 -2.277799,3.58009 -0.02529,1.36918 0.05442,1.6167 0.706018,2.19153 0.788505,0.69564 2.19306,0.87778 3.106841,0.40288 0.385938,-0.20057 0.514012,-0.18179 0.510902,0.0749 -0.0066,0.54114 -0.888522,0.94175 -2.793666,1.26897 -1.605012,0.27567 -1.850413,0.25578 -2.729505,-0.22126 -1.169144,-0.63445 -2.222805,-1.76387 -2.980381,-3.19462 -1.064191,-2.00986 -0.549411,-7.22392 0.876166,-8.87441 0.19639,-0.22738 0.358873,-0.562 0.361074,-0.7436 0.0022,-0.18159 1.119027,-1.40894 2.481837,-2.72743 3.499739,-3.38589 5.892912,-4.44777 12.302813,-5.4588 2.967601,-0.46811 9.05553,-0.27368 12.363005,0.3948 1.48654,0.30046 1.73156,0.30065 1.48906,0.001 -0.15966,-0.19718 -0.52163,-0.36131 -0.8044,-0.36474 -0.28277,-0.003 -0.75902,-0.14113 -1.05833,-0.306 -2.436073,-1.34198 -12.111691,-2.2108 -15.177288,-1.36285 -4.368827,1.20842 -5.410469,1.54131 -5.412753,1.72984 -0.0014,0.11321 -0.143487,0.20414 -0.315813,0.20206 -0.282784,-0.003 -1.543482,0.57004 -3.03484,1.38051 -1.661694,0.90305 -5.43041,4.25601 -6.790694,6.0416 -2.223479,2.91867 -2.645937,4.31779 -2.467706,8.17279 0.115991,2.50877 0.246915,3.15784 0.944959,4.68478 0.445672,0.9749 0.809463,1.84271 0.808423,1.92849 -0.0042,0.34861 3.316154,3.43257 4.061945,3.77273 2.1851,0.99662 5.281557,1.24654 7.059544,0.56982 z m -9.937585,-1.4062 c -0.232015,-0.17402 -0.420199,-0.45209 -0.418189,-0.61793 0.002,-0.16584 -0.104254,-0.30285 -0.236142,-0.30445 -0.348385,-0.004 -0.03059,1.1184 0.458485,1.61961 0.371022,0.38023 0.429261,0.38292 0.517862,0.0238 0.05491,-0.22256 -0.09,-0.54702 -0.322016,-0.721 z m 113.437878,2.01105 c 0.81704,-0.30135 1.48675,-0.65045 1.48827,-0.77577 0.002,-0.12533 0.15891,-0.22596 0.34976,-0.22364 0.5239,0.006 3.51572,-2.862 4.16168,-3.98987 1.02576,-1.79108 1.51184,-3.85697 1.53528,-6.52521 0.02,-2.31289 -0.0481,-2.66212 -0.8578,-4.37634 -0.94257,-1.99552 -1.0846,-2.22655 -1.98976,-3.23658 -0.32308,-0.36049 -0.58683,-0.70388 -0.58611,-0.7631 0.005,-0.43424 -4.71935,-4.6883 -5.21355,-4.69429 -0.15739,-0.002 -0.28474,-0.12253 -0.28298,-0.26804 0.002,-0.14551 -0.18127,-0.2668 -0.40678,-0.26953 -0.43611,-0.005 -2.00492,-0.76701 -2.2229,-1.07931 -0.0716,-0.10248 -0.36729,-0.26017 -0.65726,-0.35044 -0.28997,-0.0902 -1.06057,-0.36761 -1.71245,-0.61638 -3.60078,-1.37405 -6.03335,-1.78707 -10.87082,-1.84569 -2.83891,-0.0344 -4.75217,0.0467 -4.85317,0.20579 -0.0917,0.14443 -0.48712,0.261 -0.87871,0.25906 -0.39162,-0.002 -1.30935,0.16082 -2.03944,0.36166 l -1.32744,0.36516 1.85352,-0.10719 c 5.77133,-0.33378 6.62605,-0.3213 9.34567,0.13625 3.05702,0.51444 6.68682,1.68509 8.5129,2.74558 0.6324,0.36723 1.44566,0.81914 1.80725,1.00418 0.36158,0.18508 0.75218,0.49149 0.86798,0.68095 0.11579,0.18942 0.32311,0.27671 0.4607,0.19397 0.13759,-0.0827 0.24863,-0.0244 0.24676,0.12974 -0.002,0.15408 0.11475,0.2816 0.25918,0.28335 0.36261,0.004 3.92731,3.60767 3.92297,3.96541 -0.002,0.15919 0.14416,0.38644 0.32464,0.50501 0.49037,0.32214 1.13399,1.9102 1.46758,3.62109 0.51411,2.63651 -0.63984,6.2039 -2.42232,7.48865 -1.04411,0.75255 -3.62996,1.44284 -4.61796,1.23275 -1.07066,-0.22764 -2.56654,-1.20132 -2.5609,-1.66693 0.006,-0.46294 0.71416,-0.49105 0.86049,-0.0342 0.17726,0.55361 2.51876,0.40541 2.97045,-0.18799 0.4835,-0.63525 0.79439,-2.28633 0.56962,-3.02544 -0.3708,-1.21929 -2.12652,-2.39224 -3.60765,-2.41019 -1.78602,-0.0216 -4.41551,1.64945 -5.11134,3.24838 -0.55917,1.28488 -0.41392,4.55422 0.26168,5.88933 0.60963,1.20475 2.16987,3.00154 2.61102,3.00689 0.14551,0.002 0.30292,0.11364 0.34982,0.2486 0.0469,0.13495 0.73714,0.49019 1.53393,0.7894 2.0008,0.75135 4.55995,0.78495 6.45818,0.0853 z m 3.83539,-0.34881 c -0.35349,-0.43657 -0.92466,-0.48231 -1.17132,-0.0938 -0.27232,0.42887 0.71391,1.06905 1.12907,0.73289 0.25421,-0.20581 0.2647,-0.36435 0.0423,-0.6391 z m 1.6277,-0.90367 c 0.002,-0.1277 -0.17577,-0.23434 -0.39403,-0.23699 -0.21828,-0.003 -0.39523,-0.13844 -0.39325,-0.30176 0.002,-0.20299 -0.12537,-0.19253 -0.40397,0.033 -0.36389,0.29461 -0.36064,0.38317 0.0302,0.82566 0.33286,0.37689 0.52405,0.42575 0.79801,0.20391 0.19815,-0.16043 0.36154,-0.39617 0.36309,-0.52385 z m 0.80826,-1.02014 c 0.22997,-0.41745 0.205,-0.56412 -0.11796,-0.69255 -0.22533,-0.0896 -0.58989,-0.0172 -0.8101,0.16125 -0.35287,0.2857 -0.3456,0.36684 0.0612,0.68342 0.58607,0.4561 0.52595,0.46665 0.86683,-0.15212 z M 69.329997,127.53599 c -0.136125,-0.37152 -0.388279,-0.76488 -0.560344,-0.87413 -0.327517,-0.20793 -0.319163,-0.17501 0.255721,1.00761 0.434274,0.89338 0.646743,0.80026 0.304623,-0.13348 z m 122.403023,0.95779 c 0.54718,-1.12251 1.16723,-2.98174 1.16751,-3.50068 2.7e-4,-0.35273 -0.13824,-0.2237 -0.42975,0.40055 -0.2365,0.50649 -0.66078,1.35106 -0.94283,1.87683 -0.53929,1.0053 -0.67359,1.80801 -0.30328,1.8125 0.12093,0.001 0.34969,-0.26367 0.50835,-0.5892 z M 77.310485,124.31336 c -0.13767,-0.2649 -0.851343,-0.86544 -1.585941,-1.33453 -1.299461,-0.82977 -1.407868,-0.70624 -0.461424,0.52583 0.350056,0.45571 1.686442,1.27815 2.089959,1.28619 0.114252,10e-4 0.09507,-0.2126 -0.0426,-0.47749 z m 105.938925,0.65554 c 0.65453,-0.28871 0.68347,-0.38169 0.5535,-1.77936 -0.29314,-3.15254 -0.91116,-6.07931 -1.31786,-6.24107 -0.34125,-0.13569 -0.38268,0.054 -0.27008,1.23663 0.0731,0.76831 0.30926,1.75627 0.52469,2.19547 0.21544,0.43921 0.4431,1.10731 0.50592,1.48468 0.12933,0.77656 -0.39024,2.88267 -0.71017,2.87879 -0.11545,-0.001 -0.21135,0.11651 -0.21311,0.26202 -0.004,0.33717 0.0868,0.3335 0.92711,-0.0372 z M 76.479542,121.87127 c -0.146888,-0.43837 -0.434001,-0.79906 -0.638033,-0.80154 -0.204029,-0.002 -0.369792,-0.10118 -0.368361,-0.2193 0.0033,-0.2735 -1.571802,-1.47793 -1.730367,-1.32315 -0.297335,0.29021 0.379293,1.29451 1.455618,2.16053 1.452864,1.169 1.619351,1.19284 1.281143,0.18346 z m 108.775538,1.30691 c 0.0109,-0.89774 -0.76202,-4.61104 -1.01544,-4.87864 -0.47032,-0.49662 -0.51797,0.064 -0.14686,1.72839 0.20804,0.93315 0.37464,2.14307 0.37016,2.68877 -0.006,0.7038 0.10725,0.99356 0.38874,0.99697 0.22322,0.003 0.39972,-0.23161 0.4034,-0.53549 z M 77.024149,120.19106 c 0.05124,-0.24811 -0.18173,-0.67512 -0.517708,-0.94884 -1.300421,-1.0596 -1.788624,-1.56701 -1.785129,-1.85539 0.002,-0.16482 -0.17495,-0.30183 -0.393215,-0.30448 -0.882226,-0.0107 -0.0707,2.33718 0.830831,2.40372 0.109048,0.008 0.432859,0.30834 0.719571,0.66729 0.573716,0.71828 1.002192,0.73236 1.14565,0.0377 z m 109.319251,-1.0166 c 0.0338,-1.59225 -0.0818,-2.30888 -0.52398,-3.24772 -0.31204,-0.66259 -0.64052,-1.20557 -0.73,-1.20666 -0.29788,-0.004 -0.11049,2.74697 0.34993,5.13685 0.52791,2.74022 0.83638,2.50738 0.90405,-0.68247 z m -70.69839,-0.63287 c -0.11095,-0.35286 -1.50477,-0.58708 -1.50881,-0.25354 -0.002,0.12607 0.12475,0.35987 0.28062,0.51957 0.3512,0.35982 1.3565,0.14206 1.22819,-0.26603 z m 25.66998,0.60935 c -0.12596,-0.39869 -1.25059,-0.62639 -1.2551,-0.25411 -0.003,0.27832 0.43029,0.51978 1.0075,0.56099 0.19389,0.0138 0.30529,-0.12426 0.2476,-0.30688 z m 1.48411,-0.0482 c 0.10685,-0.26867 -0.009,-0.39701 -0.36373,-0.4013 -0.28658,-0.003 -0.52298,0.17216 -0.52563,0.39052 -0.003,0.21827 0.16105,0.39887 0.36373,0.40132 0.20271,0.002 0.43923,-0.17329 0.52563,-0.39054 z m -25.13035,-0.56912 c -0.0812,-0.21928 -0.37285,-0.40142 -0.6483,-0.40475 -0.27545,-0.003 -0.50298,0.1725 -0.50563,0.39077 -0.003,0.24557 0.24413,0.39987 0.64829,0.40476 0.47185,0.006 0.61218,-0.10274 0.50564,-0.39078 z m 2.01737,0.3107 c 0.006,-0.47821 -0.39571,-0.95256 -0.81052,-0.95758 -0.48681,-0.006 -0.6867,0.51776 -0.33513,0.87794 0.18918,0.19384 1.14346,0.26014 1.14565,0.0797 z m 1.85701,-0.39605 c 0.005,-0.38804 -0.16996,-0.53127 -0.655,-0.53715 -0.62251,-0.008 -0.89247,0.46952 -0.49572,0.876 0.38996,0.39954 1.14447,0.17734 1.15072,-0.33885 z m 1.58899,-0.11305 c 0.005,-0.39949 -0.14294,-0.66324 -0.37322,-0.66603 -0.50086,-0.006 -0.72268,0.37013 -0.52822,0.89584 0.24931,0.67401 0.89248,0.51004 0.90144,-0.22981 z m 1.85034,0.15473 c 0.004,-0.35275 -0.16995,-0.53127 -0.52271,-0.53555 -0.50986,-0.006 -0.72322,0.50902 -0.36344,0.8776 0.35978,0.36861 0.87997,0.16781 0.88615,-0.34205 z m 1.429,0.3859 c 0.62373,-0.23071 0.54697,-1.15577 -0.0966,-1.16357 -0.38802,-0.005 -0.53127,0.16998 -0.53714,0.655 -0.009,0.72017 0.0135,0.73798 0.6337,0.50857 z m 1.96525,-0.56395 c 0.0608,-0.38087 -0.0479,-0.57521 -0.32375,-0.57855 -0.27012,-0.003 -0.41813,0.23381 -0.42352,0.67841 -0.01,0.8288 0.61237,0.74564 0.74727,-0.0999 z m 11.15516,0.48665 c 0.003,-0.24692 -0.24504,-0.39987 -0.6566,-0.40485 -0.64234,-0.008 -0.84784,0.24736 -0.49251,0.61142 0.32877,0.33685 1.1443,0.19025 1.14911,-0.20657 z m -5.59967,-0.53091 c 0.0697,-0.34306 -0.0813,-0.46404 -0.58696,-0.47016 -0.51206,-0.006 -0.68245,0.12747 -0.68744,0.53929 -0.005,0.41583 0.13612,0.52892 0.58696,0.47016 0.32649,-0.0426 0.63583,-0.28523 0.68744,-0.53929 z m 1.85164,0.0194 c 0.0643,-0.31324 -0.0749,-0.46091 -0.43876,-0.46532 -0.60673,-0.007 -0.94751,0.3837 -0.69717,0.80001 0.25246,0.41976 1.02803,0.19125 1.13593,-0.33469 z m 1.89929,0.22465 c 0.003,-0.24692 -0.24504,-0.39988 -0.6566,-0.40487 -0.41155,-0.005 -0.66322,0.14192 -0.66621,0.38884 -0.003,0.24691 0.24504,0.39987 0.65659,0.40486 0.41156,0.005 0.66323,-0.14192 0.66622,-0.38883 z m -7.66914,-0.35754 c 0.003,-0.21827 -0.17378,-0.39901 -0.39204,-0.40165 -0.21827,-0.003 -0.39901,0.17377 -0.40165,0.39203 -0.003,0.21826 0.17377,0.39901 0.39203,0.40166 0.21826,0.003 0.39901,-0.17378 0.40166,-0.39204 z m 1.98422,0.024 c 0.002,-0.14551 -0.24438,-0.30301 -0.54701,-0.35 -0.36049,-0.056 -0.55198,0.0601 -0.55534,0.33664 -0.003,0.27655 0.18527,0.39725 0.54702,0.35001 0.30368,-0.0396 0.55357,-0.19114 0.55533,-0.33665 z m 49.61865,-0.5157 c -0.32461,-1.27516 -0.83149,-1.93603 -1.49102,-1.94403 -0.26959,-0.003 -0.29086,0.12028 -0.0879,0.51076 0.14722,0.28326 0.26407,0.81185 0.25967,1.17464 -0.008,0.62069 1.20831,1.95042 1.5122,1.65383 0.0714,-0.0697 -0.0153,-0.69761 -0.19293,-1.3952 z m -106.271344,-1.6863 c -0.465465,-0.52701 -1.128551,-0.64075 -1.133959,-0.19449 -0.0019,0.15855 0.261403,0.50816 0.585163,0.7769 0.72862,0.60477 1.177014,0.12891 0.548796,-0.58241 z m 104.319304,0.99348 c -0.36339,-1.47472 -0.58194,-1.79312 -1.23628,-1.80105 -0.41571,-0.005 -0.49665,0.10175 -0.34775,0.45884 0.10674,0.25597 0.31899,0.8506 0.47166,1.32134 0.24063,0.74206 0.48174,0.96032 1.23317,1.11619 0.0864,0.0179 0.0323,-0.47496 -0.1208,-1.09532 z M 76.327705,114.56402 c -0.363725,-0.69987 -1.296905,-0.88129 -1.304512,-0.25359 -0.0026,0.21716 0.253312,0.69903 0.568761,1.07084 0.504445,0.59456 0.603253,0.62442 0.82009,0.24774 0.15967,-0.27739 0.129951,-0.65264 -0.08434,-1.06499 z m 106.630955,1.59919 c 0.002,-0.18583 -1.21467,-1.48367 -1.3932,-1.48583 -0.27219,-0.003 0.1541,0.91039 0.58577,1.25555 0.41721,0.33359 0.80484,0.44416 0.80743,0.23028 z m 0.96255,-2.08757 c -0.15584,-1.34631 -0.39908,-1.85417 -1.19109,-2.48682 -0.35995,-0.28749 -0.39854,-0.22075 -0.30389,0.52552 0.0596,0.47018 0.20914,0.98519 0.33226,1.14449 0.12312,0.15928 0.27435,0.72577 0.33603,1.25885 0.12925,1.11668 0.7229,1.99981 0.88647,1.31875 0.0534,-0.22254 0.0266,-1.01488 -0.0598,-1.76079 z m -17.40591,1.32933 c 1.63898,-0.79296 2.25087,-2.10775 1.69151,-3.63448 -0.34368,-0.93794 -1.20277,-1.32407 -2.86973,-1.2898 -2.46293,0.0507 -4.0629,1.26472 -3.97605,3.01712 0.0428,0.8644 0.20994,1.15926 0.94371,1.66521 1.06767,0.73618 2.96387,0.84515 4.21056,0.24195 z m -89.294836,-2.29304 c -0.614319,-0.60847 -0.774966,-0.65966 -1.105166,-0.35225 -0.335201,0.31206 -0.306534,0.44675 0.216523,1.01722 0.504411,0.55013 0.684922,0.60767 1.105164,0.35224 0.478805,-0.291 0.468687,-0.33854 -0.216521,-1.01721 z m 1.594496,1.20318 c 0.476488,-0.46509 3.118157,-1.10964 4.4801,-1.09314 1.515642,0.0184 1.531497,0.0106 1.540755,-0.75349 0.0051,-0.42462 0.0839,-0.9595 0.175014,-1.18859 0.108147,-0.27192 0.01999,-0.41831 -0.253937,-0.42163 -0.695295,-0.008 -3.883557,1.06879 -3.886518,1.31314 -0.0015,0.12504 -0.116637,0.22597 -0.255822,0.22428 -0.139186,-0.002 -0.769971,0.46548 -1.401743,1.03811 -0.631776,0.57268 -1.019722,1.04426 -0.862109,1.04797 0.157602,0.005 0.366532,-0.0713 0.46426,-0.16665 z m 102.0397,0.79004 c 6.1e-4,-0.051 -0.11706,-0.44555 -0.26152,-0.87667 -0.2533,-0.7559 -1.82032,-2.01082 -1.82696,-1.46306 -0.007,0.54018 0.91139,2.13252 1.29578,2.24778 0.57301,0.17179 0.79142,0.19714 0.7927,0.0919 z m -10.63647,-1.02833 c 0.0708,-0.2065 -0.14207,-0.33247 -0.57056,-0.33766 -0.44459,-0.005 -0.6852,0.13683 -0.68848,0.40697 -0.006,0.49755 1.08529,0.43748 1.25904,-0.0694 z m -91.473381,-1.18395 c 0.0058,-0.47772 -0.821341,-1.58825 -1.186228,-1.59267 -0.657044,-0.008 -0.710315,0.55828 -0.113727,1.20891 0.612063,0.66755 1.294081,0.8689 1.29996,0.38376 z m 98.361291,1.26742 c -0.0535,-0.1098 -0.34888,-0.76826 -0.65642,-1.46327 -0.30754,-0.695 -0.62292,-1.26441 -0.70087,-1.26536 -0.0779,-9.4e-4 -0.14961,0.65309 -0.15931,1.45339 -0.0176,1.44915 -0.0146,1.45514 0.7981,1.46499 0.44867,0.005 0.77197,-0.08 0.7185,-0.18975 z m 1.64204,0.0942 c 8.3e-4,-0.0683 -0.23763,-0.59683 -0.52992,-1.17456 -0.50023,-0.98878 -1.07516,-1.49338 -1.37169,-1.20392 -0.13694,0.13366 0.4775,1.57945 0.91792,2.15996 0.24074,0.31729 0.9805,0.48162 0.98369,0.21852 z m -4.28067,-2.92945 c -0.39706,-0.32752 -3.04048,-4.3096 -3.03726,-4.57538 0.005,-0.3806 -0.98079,-1.17783 -1.68558,-1.36365 l -0.77351,-0.20397 0.60084,0.64345 c 0.33046,0.35391 0.76235,1.0324 0.95973,1.50777 0.19737,0.47536 0.44728,0.86538 0.5553,0.86669 0.10804,0.001 0.34604,0.35177 0.52892,0.77878 0.18285,0.42703 0.73693,1.31964 1.23127,1.98356 0.49433,0.66395 0.89726,1.33201 0.89541,1.48458 -0.002,0.15258 0.20202,0.52478 0.45304,0.82709 0.44859,0.54029 0.45803,0.53099 0.55223,-0.54446 0.0627,-0.71625 -0.0341,-1.20131 -0.28039,-1.40446 z m 7.72611,2.46711 c 6.6e-4,-0.0544 -0.17125,-0.60733 -0.38202,-1.2286 -0.21077,-0.62128 -0.38012,-1.38417 -0.37635,-1.69533 0.005,-0.4074 -0.28828,-0.69786 -1.04766,-1.03784 -1.25325,-0.56108 -1.47129,-0.58897 -1.11086,-0.14203 0.14817,0.18371 0.4699,0.87227 0.71499,1.53013 0.43291,1.16198 1.55048,2.66481 1.98564,2.67008 0.11828,0.001 0.2156,-0.042 0.21626,-0.0964 z m -11.63079,-0.96801 c 0.0119,-0.98177 -1.08916,-0.82315 -1.27067,0.18306 -0.0612,0.33927 0.0954,0.46421 0.58965,0.47019 0.54149,0.007 0.67457,-0.12108 0.68102,-0.65325 z m -90.545058,-1.3645 c 0.04247,-0.31352 -0.202973,-0.72853 -0.608175,-1.02834 -0.62244,-0.4606 -0.715256,-0.4677 -1.107319,-0.085 -0.392066,0.38268 -0.375408,0.47499 0.198728,1.10117 0.714933,0.77972 1.412025,0.78534 1.516764,0.0124 z m 1.656047,-0.86551 c -0.0041,-0.0937 -0.274894,-0.50517 -0.601767,-0.91455 -0.470793,-0.58963 -0.715129,-0.70129 -1.175602,-0.53726 -0.578364,0.20599 -0.577427,0.21138 0.186339,1.06821 0.487077,0.54643 0.919455,0.80503 1.183055,0.7075 0.228485,-0.0845 0.412075,-0.23026 0.407975,-0.3239 z m 97.766101,0.91428 c -0.0882,-0.23699 -0.2955,-0.8956 -0.46051,-1.46361 -0.165,-0.56801 -0.6115,-1.37716 -0.99224,-1.7981 -0.78125,-0.86374 -1.42453,-1.05403 -1.03588,-0.30644 0.56012,1.07749 1.30885,2.91783 1.30532,3.20843 -0.002,0.17234 0.11526,0.31476 0.26077,0.31652 0.14551,0.002 0.26244,0.17806 0.25985,0.39175 -0.003,0.24305 0.15031,0.33119 0.40927,0.23543 0.25211,-0.0933 0.35119,-0.3216 0.25342,-0.58398 z m -8.87178,0.19123 c -0.009,-0.29035 -1.06705,-1.02889 -1.82844,-1.27589 -0.63879,-0.2072 -0.64495,-0.19773 -0.20222,0.31083 0.25118,0.28853 0.45501,0.66404 0.45294,0.83446 -0.002,0.17044 0.35341,0.31422 0.78994,0.31951 0.43653,0.005 0.79104,-0.0797 0.78778,-0.18891 z m -87.173544,-1.55062 c 0.414359,-0.15326 0.249048,-0.49692 -1.061923,-2.20759 -0.04643,-0.0606 -0.390175,0.0247 -0.763879,0.18954 l -0.679459,0.29969 0.694797,0.93419 c 0.697904,0.93837 1.018376,1.07718 1.810464,0.78417 z m 94.086204,0.57598 c -0.13779,-0.25635 -0.61068,-1.24203 -1.05084,-2.19045 -0.80082,-1.72552 -1.12888,-2.12412 -1.76083,-2.13937 -0.25207,-0.006 -0.22861,0.2108 0.0927,0.85704 0.23655,0.47584 0.50272,0.92558 0.59144,0.99943 0.0887,0.0739 0.31884,0.61245 0.5114,1.1969 0.4442,1.34843 0.74392,1.72893 1.36773,1.73649 0.39642,0.005 0.4475,-0.0897 0.2484,-0.46004 z m -58.4529,-0.97292 c 0.47715,-0.24889 1.2036,-0.77592 1.61433,-1.17115 0.41074,-0.39523 0.86985,-0.71711 1.02027,-0.71529 0.15041,0.002 0.27493,-0.11704 0.27671,-0.26414 0.002,-0.14707 0.66063,-0.58002 1.4641,-0.96205 l 1.46084,-0.69464 1.94652,0.50982 c 1.41134,0.36969 2.37489,0.46577 3.50463,0.34951 3.56329,-0.36664 5.18043,-0.4045 5.8624,-0.13725 0.39571,0.15506 1.0377,0.35518 1.42667,0.4447 0.38893,0.0895 0.87098,0.33062 1.0712,0.53573 0.46583,0.47725 2.66429,1.51517 3.22374,1.52195 0.25541,0.003 -0.0795,-0.43542 -0.83226,-1.08963 -0.69281,-0.60214 -1.5729,-1.38678 -1.95571,-1.74362 -0.38282,-0.35682 -0.80973,-0.65018 -0.94868,-0.65186 -0.13897,-0.002 -0.53389,-0.22856 -0.8776,-0.50415 -0.94513,-0.75776 -3.66331,-2.19691 -4.16082,-2.20294 -0.24144,-0.003 -0.58591,-0.15593 -0.7655,-0.34002 -0.20815,-0.21336 -1.11311,-0.34424 -2.49612,-0.361 -1.95207,-0.0237 -2.3697,0.0674 -4.16544,0.90817 -2.40285,1.12503 -4.29165,2.52949 -6.84459,5.08941 -1.63031,1.63478 -1.82148,1.91731 -1.30162,1.92361 0.33516,0.004 0.99978,-0.19626 1.47693,-0.44516 z m 56.59191,0.63526 c 0.002,-0.13691 -0.10606,-0.31819 -0.23937,-0.40285 -0.13328,-0.0846 -0.31621,-0.51063 -0.40645,-0.94664 -0.0902,-0.43603 -0.26075,-0.79393 -0.3789,-0.79536 -0.11815,-0.001 -0.39418,-0.46714 -0.61341,-1.03489 -0.28982,-0.75059 -0.62991,-1.11607 -1.24613,-1.3393 -0.46612,-0.16889 -0.90503,-0.25088 -0.97531,-0.18228 -0.0703,0.0687 0.18144,0.54054 0.55941,1.04874 0.37794,0.50816 0.68614,1.01079 0.68486,1.11688 -0.007,0.56968 1.667,2.7732 2.11073,2.77858 0.27586,0.003 0.50291,-0.10594 0.50457,-0.24288 z"
       id="path871" />
  </g>
</svg>
