<?xml version="1.0" encoding="UTF-8" standalone="no"?>
<!-- Created with Inkscape (http://www.inkscape.org/) -->
<svg
   xmlns:dc="http://purl.org/dc/elements/1.1/"
   xmlns:cc="http://creativecommons.org/ns#"
   xmlns:rdf="http://www.w3.org/1999/02/22-rdf-syntax-ns#"
   xmlns:svg="http://www.w3.org/2000/svg"
   xmlns="http://www.w3.org/2000/svg"
   xmlns:sodipodi="http://sodipodi.sourceforge.net/DTD/sodipodi-0.dtd"
   xmlns:inkscape="http://www.inkscape.org/namespaces/inkscape"
   id="svg2"
   sodipodi:version="0.32"
   inkscape:version="0.46+devel, revision 19938"
   width="1052.3622"
   height="744.09448"
   version="1.0"
   sodipodi:docname="susleleme2-a4.svg"
   inkscape:output_extension="org.inkscape.output.svg.inkscape"
   inkscape:export-filename="C:\Documents and Settings\Nevit\Belgelerim\Resimlerim\susleleme2-a4.png"
   inkscape:export-xdpi="598"
   inkscape:export-ydpi="598">
  <metadata
     id="metadata7">
    <rdf:RDF>
      <cc:Work
         rdf:about="">
        <dc:format>image/svg+xml</dc:format>
        <dc:type
           rdf:resource="http://purl.org/dc/dcmitype/StillImage" />
        <dc:title></dc:title>
      </cc:Work>
    </rdf:RDF>
  </metadata>
  <defs
     id="defs5">
    <inkscape:path-effect
       effect="freehand_shape"
       id="path-effect2731"
       pattern="M 0,5 C 0,2.24 22.4,0 50,0 77.6,0 100,2.24 100,5 100,7.76 77.6,10 50,10 22.4,10 0,7.76 0,5 z"
       is_visible="true"
       deactivate_knotholder="false"
       copytype="single_stretched"
       prop_scale="1"
       scale_y_rel="false"
       spacing="0"
       normal_offset="0"
       tang_offset="0"
       prop_units="false"
       vertical_pattern="false" />
    <inkscape:path-effect
       effect="spiro"
       id="path-effect2729"
       is_visible="true"
       deactivate_knotholder="false" />
    <inkscape:perspective
       sodipodi:type="inkscape:persp3d"
       inkscape:vp_x="0 : 0.5 : 1"
       inkscape:vp_y="0 : 1000 : 0"
       inkscape:vp_z="1 : 0.5 : 1"
       inkscape:persp3d-origin="0.5 : 0.33333333 : 1"
       id="perspective9" />
  </defs>
  <sodipodi:namedview
     inkscape:window-height="712"
     inkscape:window-width="1024"
     inkscape:pageshadow="2"
     inkscape:pageopacity="1"
     guidetolerance="10.0"
     gridtolerance="10.0"
     objecttolerance="10.0"
     borderopacity="1.0"
     bordercolor="#666666"
     pagecolor="#ffffff"
     id="base"
     showgrid="false"
     inkscape:zoom="0.5"
     inkscape:cx="415.03203"
     inkscape:cy="390.29094"
     inkscape:window-x="-4"
     inkscape:window-y="-4"
     inkscape:current-layer="svg2" />
  <g
     id="g3523"
     transform="matrix(0,0.94076918,-1.1902906,0,1061.4185,0.25395638)"
     inkscape:export-xdpi="598"
     inkscape:export-ydpi="598">
    <g
       transform="translate(-0.01067173,-0.60828872)"
       inkscape:transform-center-y="-218.766"
       id="g3513">
      <path
         style="fill:#000000;fill-rule:nonzero;stroke:none"
         d="m 395.37231,13.441657 c 0.15371,-0.0022 0.32089,0.759391 0.47409,2.257263 0.15321,1.497872 0.29186,3.732428 0.34101,6.672869 0.0983,5.880883 -0.13523,14.607377 -1.72244,25.77117 -0.7936,5.581897 -1.93318,11.768607 -3.57782,18.466519 -1.64463,6.697913 -3.795,13.907799 -6.61767,21.492562 -2.82268,7.584763 -6.31831,15.5451 -10.65111,23.68938 -4.33281,8.14428 -9.50338,16.47307 -15.66441,24.73056 -5.70015,7.63169 -12.22626,15.17972 -19.6115,22.45328 -7.38524,7.27356 -15.63006,14.2726 -24.71765,20.78481 -9.08759,6.51221 -19.01828,12.53752 -29.71943,17.843 -10.70115,5.30549 -22.17296,9.89102 -34.28312,13.50467 -12.36965,3.74826 -25.74807,6.46358 -39.52579,7.04404 -13.77771,0.58046 -27.95443,-0.97479 -41.72195,-5.99949 -12.92857,-4.77351 -25.14245,-12.79642 -34.31853,-24.06006 -8.88948,-10.92076 -14.56343,-24.94797 -14.7048,-39.70509 -0.0283,-8.51321 1.83683,-16.98186 5.32501,-24.80676 3.48817,-7.82489 8.59925,-15.00578 15.02314,-20.89296 6.24479,-5.703761 13.57801,-10.157699 21.51049,-13.20503 7.93248,-3.047331 16.46401,-4.68799 25.06376,-4.763277 12.004,-0.0973 23.97518,2.698011 34.89725,7.833524 1.61789,0.760728 3.20923,1.57107 4.77092,2.428479 12.14434,6.668794 22.48571,15.994844 30.67986,26.661714 8.42003,11.01482 14.58542,23.22167 19.03014,35.86583 4.44472,12.64415 7.16936,25.72482 8.66923,38.57365 3.00209,25.11291 1.66467,50.02531 -3.15164,73.37588 -4.81631,23.35058 -13.10911,45.13635 -23.9622,64.46444 -6.54156,11.64278 -14.00184,22.37307 -22.0696,32.12654 -8.06776,9.75348 -16.74287,18.53029 -25.75139,26.31694 -9.00852,7.78665 -18.35042,14.58341 -27.79026,20.42444 -9.43984,5.84103 -18.97769,10.72671 -28.41641,14.73399 -14.99772,6.35089 -29.54744,10.53944 -43.09034,13.58907 -13.542903,3.04962 -26.08322,4.95497 -37.301392,6.33425 -20.921151,2.58117 -37.437668,3.32737 -48.673409,3.491 -5.61787,0.0818 -9.920582,0.0104 -12.818456,-0.12065 -2.8978748,-0.13107 -4.3912178,-0.32091 -4.3951574,-0.53557 -0.00394,-0.21466 1.4815086,-0.44786 4.3616654,-0.73165 2.880157,-0.28378 7.155315,-0.6191 12.727696,-1.09687 11.144761,-0.95554 27.496484,-2.45203 48.137566,-5.70708 11.065016,-1.74975 23.391558,-3.99253 36.609007,-7.31412 13.21745,-3.32158 27.32964,-7.71636 41.7162,-14.16698 9.0519,-4.04831 18.18216,-8.9345 27.20348,-14.72702 9.02132,-5.79252 17.9338,-12.49172 26.51325,-20.12342 8.57944,-7.63171 16.82584,-16.19614 24.47742,-25.67209 7.65157,-9.47595 14.70822,-19.86354 20.87119,-31.09186 10.23721,-18.6393 18.01281,-39.61652 22.47675,-62.05285 4.46395,-22.43634 5.61449,-46.32876 2.64362,-70.3391 -1.55357,-12.2635 -4.16713,-24.64579 -8.31864,-36.47287 -4.15151,-11.82709 -9.84147,-23.09815 -17.59273,-33.05712 -7.4847,-9.66825 -16.79846,-18.09441 -27.58635,-23.97677 -1.3842,-0.75492 -2.79341,-1.46916 -4.22452,-2.14022 -9.66112,-4.530186 -20.17684,-7.022789 -30.55021,-6.912607 -7.39252,0.07299 -14.77049,1.480968 -21.60473,4.076476 -6.83424,2.595511 -13.12452,6.378501 -18.38261,11.206371 -5.3997,4.93808 -9.75459,11.02364 -12.74054,17.62067 -2.98596,6.59702 -4.60283,13.70527 -4.56296,20.74098 -0.023,12.24174 4.84634,24.30886 12.39209,33.77204 7.81878,9.81441 18.63671,16.96955 30.15856,21.37099 12.27373,4.74721 25.26164,6.23134 38.11395,5.74693 12.85232,-0.48441 25.56856,-2.93669 37.49081,-6.29807 11.67069,-3.34642 22.76024,-7.62397 33.13352,-12.59518 10.37329,-4.97121 20.03047,-10.63601 28.89514,-16.77553 8.86467,-6.13953 16.93714,-12.75375 24.19615,-19.64337 7.25901,-6.88962 13.705,-14.05465 19.36629,-21.31562 6.12559,-7.84789 11.32311,-15.79613 15.73038,-23.59294 4.40728,-7.79681 8.02486,-15.44279 11.00384,-22.74822 2.97899,-7.305429 5.31998,-14.271012 7.17863,-20.759292 1.85866,-6.48828 3.23564,-12.500027 4.2816,-17.93894 2.09191,-10.877824 2.8876,-19.448399 3.37127,-25.254867 0.24183,-2.903235 0.39971,-5.120405 0.54686,-6.611673 0.14715,-1.491268 0.28422,-2.256959 0.43793,-2.259111 z"
         id="path2727"
         inkscape:transform-center-x="194.653" />
      <path
         inkscape:transform-center-x="-194.653"
         id="path3511"
         d="m 395.04114,13.441657 c -0.15371,-0.0022 -0.32089,0.759391 -0.47409,2.257263 -0.15321,1.497872 -0.29186,3.732428 -0.34101,6.672869 -0.0983,5.880883 0.13523,14.607377 1.72244,25.77117 0.7936,5.581897 1.93318,11.768607 3.57782,18.466519 1.64463,6.697913 3.795,13.907799 6.61767,21.492562 2.82268,7.584763 6.31831,15.5451 10.65111,23.68938 4.33281,8.14428 9.50338,16.47307 15.66441,24.73056 5.70015,7.63169 12.22626,15.17972 19.6115,22.45328 7.38524,7.27356 15.63006,14.2726 24.71765,20.78481 9.08759,6.51221 19.01828,12.53752 29.71943,17.843 10.70115,5.30549 22.17296,9.89102 34.28312,13.50467 12.36965,3.74826 25.74807,6.46358 39.52579,7.04404 13.77771,0.58046 27.95443,-0.97479 41.72195,-5.99949 12.92857,-4.77351 25.14245,-12.79642 34.31853,-24.06006 8.88948,-10.92076 14.56343,-24.94797 14.7048,-39.70509 0.0283,-8.51321 -1.83683,-16.98186 -5.32501,-24.80676 -3.48817,-7.82489 -8.59925,-15.00578 -15.02314,-20.89296 -6.24479,-5.703761 -13.57801,-10.157699 -21.51049,-13.20503 -7.93248,-3.047331 -16.46401,-4.68799 -25.06376,-4.763277 -12.004,-0.0973 -23.97518,2.698011 -34.89725,7.833524 -1.61789,0.760728 -3.20923,1.57107 -4.77092,2.428479 -12.14434,6.668794 -22.48571,15.994844 -30.67986,26.661714 -8.42003,11.01482 -14.58542,23.22167 -19.03014,35.86583 -4.44472,12.64415 -7.16936,25.72482 -8.66923,38.57365 -3.00209,25.11291 -1.66467,50.02531 3.15164,73.37588 4.81631,23.35058 13.10911,45.13635 23.9622,64.46444 6.54156,11.64278 14.00184,22.37307 22.0696,32.12654 8.06776,9.75348 16.74287,18.53029 25.75139,26.31694 9.00852,7.78665 18.35042,14.58341 27.79026,20.42444 9.43984,5.84103 18.97769,10.72671 28.41641,14.73399 14.99772,6.35089 29.54744,10.53944 43.09034,13.58907 13.5429,3.04962 26.08322,4.95497 37.30139,6.33425 20.92115,2.58117 37.43767,3.32737 48.67341,3.491 5.61787,0.0818 9.92058,0.0104 12.81846,-0.12065 2.89787,-0.13107 4.39122,-0.32091 4.39515,-0.53557 0.004,-0.21466 -1.4815,-0.44786 -4.36166,-0.73165 -2.88016,-0.28378 -7.15532,-0.6191 -12.7277,-1.09687 -11.14476,-0.95554 -27.49648,-2.45203 -48.13756,-5.70708 -11.06502,-1.74975 -23.39156,-3.99253 -36.60901,-7.31412 -13.21745,-3.32158 -27.32964,-7.71636 -41.7162,-14.16698 -9.0519,-4.04831 -18.18216,-8.9345 -27.20348,-14.72702 -9.02132,-5.79252 -17.9338,-12.49172 -26.51325,-20.12342 -8.57944,-7.63171 -16.82584,-16.19614 -24.47742,-25.67209 -7.65157,-9.47595 -14.70822,-19.86354 -20.87119,-31.09186 -10.23721,-18.6393 -18.01281,-39.61652 -22.47675,-62.05285 -4.46395,-22.43634 -5.61449,-46.32876 -2.64362,-70.3391 1.55357,-12.2635 4.16713,-24.64579 8.31864,-36.47287 4.15151,-11.82709 9.84147,-23.09815 17.59273,-33.05712 7.4847,-9.66825 16.79846,-18.09441 27.58635,-23.97677 1.3842,-0.75492 2.79341,-1.46916 4.22452,-2.14022 9.66112,-4.530186 20.17684,-7.022789 30.55021,-6.912607 7.39252,0.07299 14.77049,1.480968 21.60473,4.076476 6.83424,2.595511 13.12452,6.378501 18.38261,11.206371 5.3997,4.93808 9.75459,11.02364 12.74054,17.62067 2.98596,6.59702 4.60283,13.70527 4.56296,20.74098 0.023,12.24174 -4.84634,24.30886 -12.39209,33.77204 -7.81878,9.81441 -18.63671,16.96955 -30.15856,21.37099 -12.27373,4.74721 -25.26164,6.23134 -38.11395,5.74693 -12.85232,-0.48441 -25.56856,-2.93669 -37.49081,-6.29807 -11.67069,-3.34642 -22.76024,-7.62397 -33.13352,-12.59518 -10.37329,-4.97121 -20.03047,-10.63601 -28.89514,-16.77553 -8.86467,-6.13953 -16.93714,-12.75375 -24.19615,-19.64337 -7.25901,-6.88962 -13.705,-14.05465 -19.36629,-21.31562 -6.12559,-7.84789 -11.32311,-15.79613 -15.73038,-23.59294 -4.40728,-7.79681 -8.02486,-15.44279 -11.00384,-22.74822 -2.97899,-7.305429 -5.31998,-14.271012 -7.17863,-20.759292 -1.85866,-6.48828 -3.23564,-12.500027 -4.2816,-17.93894 -2.09191,-10.877824 -2.8876,-19.448399 -3.37127,-25.254867 -0.24183,-2.903235 -0.39971,-5.120405 -0.54686,-6.611673 -0.14715,-1.491268 -0.28422,-2.256959 -0.43793,-2.259111 z"
         style="fill:#000000;fill-rule:nonzero;stroke:none" />
    </g>
    <g
       transform="matrix(1,0,0,-1,0,899.94731)"
       id="g3517"
       inkscape:transform-center-y="218.766">
      <path
         inkscape:transform-center-x="194.653"
         id="path3519"
         d="m 395.37231,13.441657 c 0.15371,-0.0022 0.32089,0.759391 0.47409,2.257263 0.15321,1.497872 0.29186,3.732428 0.34101,6.672869 0.0983,5.880883 -0.13523,14.607377 -1.72244,25.77117 -0.7936,5.581897 -1.93318,11.768607 -3.57782,18.466519 -1.64463,6.697913 -3.795,13.907799 -6.61767,21.492562 -2.82268,7.584763 -6.31831,15.5451 -10.65111,23.68938 -4.33281,8.14428 -9.50338,16.47307 -15.66441,24.73056 -5.70015,7.63169 -12.22626,15.17972 -19.6115,22.45328 -7.38524,7.27356 -15.63006,14.2726 -24.71765,20.78481 -9.08759,6.51221 -19.01828,12.53752 -29.71943,17.843 -10.70115,5.30549 -22.17296,9.89102 -34.28312,13.50467 -12.36965,3.74826 -25.74807,6.46358 -39.52579,7.04404 -13.77771,0.58046 -27.95443,-0.97479 -41.72195,-5.99949 -12.92857,-4.77351 -25.14245,-12.79642 -34.31853,-24.06006 -8.88948,-10.92076 -14.56343,-24.94797 -14.7048,-39.70509 -0.0283,-8.51321 1.83683,-16.98186 5.32501,-24.80676 3.48817,-7.82489 8.59925,-15.00578 15.02314,-20.89296 6.24479,-5.703761 13.57801,-10.157699 21.51049,-13.20503 7.93248,-3.047331 16.46401,-4.68799 25.06376,-4.763277 12.004,-0.0973 23.97518,2.698011 34.89725,7.833524 1.61789,0.760728 3.20923,1.57107 4.77092,2.428479 12.14434,6.668794 22.48571,15.994844 30.67986,26.661714 8.42003,11.01482 14.58542,23.22167 19.03014,35.86583 4.44472,12.64415 7.16936,25.72482 8.66923,38.57365 3.00209,25.11291 1.66467,50.02531 -3.15164,73.37588 -4.81631,23.35058 -13.10911,45.13635 -23.9622,64.46444 -6.54156,11.64278 -14.00184,22.37307 -22.0696,32.12654 -8.06776,9.75348 -16.74287,18.53029 -25.75139,26.31694 -9.00852,7.78665 -18.35042,14.58341 -27.79026,20.42444 -9.43984,5.84103 -18.97769,10.72671 -28.41641,14.73399 -14.99772,6.35089 -29.54744,10.53944 -43.09034,13.58907 -13.542903,3.04962 -26.08322,4.95497 -37.301392,6.33425 -20.921151,2.58117 -37.437668,3.32737 -48.673409,3.491 -5.61787,0.0818 -9.920582,0.0104 -12.818456,-0.12065 -2.8978748,-0.13107 -4.3912178,-0.32091 -4.3951574,-0.53557 -0.00394,-0.21466 1.4815086,-0.44786 4.3616654,-0.73165 2.880157,-0.28378 7.155315,-0.6191 12.727696,-1.09687 11.144761,-0.95554 27.496484,-2.45203 48.137566,-5.70708 11.065016,-1.74975 23.391558,-3.99253 36.609007,-7.31412 13.21745,-3.32158 27.32964,-7.71636 41.7162,-14.16698 9.0519,-4.04831 18.18216,-8.9345 27.20348,-14.72702 9.02132,-5.79252 17.9338,-12.49172 26.51325,-20.12342 8.57944,-7.63171 16.82584,-16.19614 24.47742,-25.67209 7.65157,-9.47595 14.70822,-19.86354 20.87119,-31.09186 10.23721,-18.6393 18.01281,-39.61652 22.47675,-62.05285 4.46395,-22.43634 5.61449,-46.32876 2.64362,-70.3391 -1.55357,-12.2635 -4.16713,-24.64579 -8.31864,-36.47287 -4.15151,-11.82709 -9.84147,-23.09815 -17.59273,-33.05712 -7.4847,-9.66825 -16.79846,-18.09441 -27.58635,-23.97677 -1.3842,-0.75492 -2.79341,-1.46916 -4.22452,-2.14022 -9.66112,-4.530186 -20.17684,-7.022789 -30.55021,-6.912607 -7.39252,0.07299 -14.77049,1.480968 -21.60473,4.076476 -6.83424,2.595511 -13.12452,6.378501 -18.38261,11.206371 -5.3997,4.93808 -9.75459,11.02364 -12.74054,17.62067 -2.98596,6.59702 -4.60283,13.70527 -4.56296,20.74098 -0.023,12.24174 4.84634,24.30886 12.39209,33.77204 7.81878,9.81441 18.63671,16.96955 30.15856,21.37099 12.27373,4.74721 25.26164,6.23134 38.11395,5.74693 12.85232,-0.48441 25.56856,-2.93669 37.49081,-6.29807 11.67069,-3.34642 22.76024,-7.62397 33.13352,-12.59518 10.37329,-4.97121 20.03047,-10.63601 28.89514,-16.77553 8.86467,-6.13953 16.93714,-12.75375 24.19615,-19.64337 7.25901,-6.88962 13.705,-14.05465 19.36629,-21.31562 6.12559,-7.84789 11.32311,-15.79613 15.73038,-23.59294 4.40728,-7.79681 8.02486,-15.44279 11.00384,-22.74822 2.97899,-7.305429 5.31998,-14.271012 7.17863,-20.759292 1.85866,-6.48828 3.23564,-12.500027 4.2816,-17.93894 2.09191,-10.877824 2.8876,-19.448399 3.37127,-25.254867 0.24183,-2.903235 0.39971,-5.120405 0.54686,-6.611673 0.14715,-1.491268 0.28422,-2.256959 0.43793,-2.259111 z"
         style="fill:#000000;fill-rule:nonzero;stroke:none" />
      <path
         style="fill:#000000;fill-rule:nonzero;stroke:none"
         d="m 395.04114,13.441657 c -0.15371,-0.0022 -0.32089,0.759391 -0.47409,2.257263 -0.15321,1.497872 -0.29186,3.732428 -0.34101,6.672869 -0.0983,5.880883 0.13523,14.607377 1.72244,25.77117 0.7936,5.581897 1.93318,11.768607 3.57782,18.466519 1.64463,6.697913 3.795,13.907799 6.61767,21.492562 2.82268,7.584763 6.31831,15.5451 10.65111,23.68938 4.33281,8.14428 9.50338,16.47307 15.66441,24.73056 5.70015,7.63169 12.22626,15.17972 19.6115,22.45328 7.38524,7.27356 15.63006,14.2726 24.71765,20.78481 9.08759,6.51221 19.01828,12.53752 29.71943,17.843 10.70115,5.30549 22.17296,9.89102 34.28312,13.50467 12.36965,3.74826 25.74807,6.46358 39.52579,7.04404 13.77771,0.58046 27.95443,-0.97479 41.72195,-5.99949 12.92857,-4.77351 25.14245,-12.79642 34.31853,-24.06006 8.88948,-10.92076 14.56343,-24.94797 14.7048,-39.70509 0.0283,-8.51321 -1.83683,-16.98186 -5.32501,-24.80676 -3.48817,-7.82489 -8.59925,-15.00578 -15.02314,-20.89296 -6.24479,-5.703761 -13.57801,-10.157699 -21.51049,-13.20503 -7.93248,-3.047331 -16.46401,-4.68799 -25.06376,-4.763277 -12.004,-0.0973 -23.97518,2.698011 -34.89725,7.833524 -1.61789,0.760728 -3.20923,1.57107 -4.77092,2.428479 -12.14434,6.668794 -22.48571,15.994844 -30.67986,26.661714 -8.42003,11.01482 -14.58542,23.22167 -19.03014,35.86583 -4.44472,12.64415 -7.16936,25.72482 -8.66923,38.57365 -3.00209,25.11291 -1.66467,50.02531 3.15164,73.37588 4.81631,23.35058 13.10911,45.13635 23.9622,64.46444 6.54156,11.64278 14.00184,22.37307 22.0696,32.12654 8.06776,9.75348 16.74287,18.53029 25.75139,26.31694 9.00852,7.78665 18.35042,14.58341 27.79026,20.42444 9.43984,5.84103 18.97769,10.72671 28.41641,14.73399 14.99772,6.35089 29.54744,10.53944 43.09034,13.58907 13.5429,3.04962 26.08322,4.95497 37.30139,6.33425 20.92115,2.58117 37.43767,3.32737 48.67341,3.491 5.61787,0.0818 9.92058,0.0104 12.81846,-0.12065 2.89787,-0.13107 4.39122,-0.32091 4.39515,-0.53557 0.004,-0.21466 -1.4815,-0.44786 -4.36166,-0.73165 -2.88016,-0.28378 -7.15532,-0.6191 -12.7277,-1.09687 -11.14476,-0.95554 -27.49648,-2.45203 -48.13756,-5.70708 -11.06502,-1.74975 -23.39156,-3.99253 -36.60901,-7.31412 -13.21745,-3.32158 -27.32964,-7.71636 -41.7162,-14.16698 -9.0519,-4.04831 -18.18216,-8.9345 -27.20348,-14.72702 -9.02132,-5.79252 -17.9338,-12.49172 -26.51325,-20.12342 -8.57944,-7.63171 -16.82584,-16.19614 -24.47742,-25.67209 -7.65157,-9.47595 -14.70822,-19.86354 -20.87119,-31.09186 -10.23721,-18.6393 -18.01281,-39.61652 -22.47675,-62.05285 -4.46395,-22.43634 -5.61449,-46.32876 -2.64362,-70.3391 1.55357,-12.2635 4.16713,-24.64579 8.31864,-36.47287 4.15151,-11.82709 9.84147,-23.09815 17.59273,-33.05712 7.4847,-9.66825 16.79846,-18.09441 27.58635,-23.97677 1.3842,-0.75492 2.79341,-1.46916 4.22452,-2.14022 9.66112,-4.530186 20.17684,-7.022789 30.55021,-6.912607 7.39252,0.07299 14.77049,1.480968 21.60473,4.076476 6.83424,2.595511 13.12452,6.378501 18.38261,11.206371 5.3997,4.93808 9.75459,11.02364 12.74054,17.62067 2.98596,6.59702 4.60283,13.70527 4.56296,20.74098 0.023,12.24174 -4.84634,24.30886 -12.39209,33.77204 -7.81878,9.81441 -18.63671,16.96955 -30.15856,21.37099 -12.27373,4.74721 -25.26164,6.23134 -38.11395,5.74693 -12.85232,-0.48441 -25.56856,-2.93669 -37.49081,-6.29807 -11.67069,-3.34642 -22.76024,-7.62397 -33.13352,-12.59518 -10.37329,-4.97121 -20.03047,-10.63601 -28.89514,-16.77553 -8.86467,-6.13953 -16.93714,-12.75375 -24.19615,-19.64337 -7.25901,-6.88962 -13.705,-14.05465 -19.36629,-21.31562 -6.12559,-7.84789 -11.32311,-15.79613 -15.73038,-23.59294 -4.40728,-7.79681 -8.02486,-15.44279 -11.00384,-22.74822 -2.97899,-7.305429 -5.31998,-14.271012 -7.17863,-20.759292 -1.85866,-6.48828 -3.23564,-12.500027 -4.2816,-17.93894 -2.09191,-10.877824 -2.8876,-19.448399 -3.37127,-25.254867 -0.24183,-2.903235 -0.39971,-5.120405 -0.54686,-6.611673 -0.14715,-1.491268 -0.28422,-2.256959 -0.43793,-2.259111 z"
         id="path3521"
         inkscape:transform-center-x="-194.653" />
    </g>
  </g>
  <path
     sodipodi:type="arc"
     style="fill:none;fill-opacity:1;fill-rule:nonzero;stroke:#000000;stroke-width:5;stroke-miterlimit:4;stroke-opacity:1;stroke-dasharray:none"
     id="path3531"
     sodipodi:cx="526"
     sodipodi:cy="372.09448"
     sodipodi:rx="304"
     sodipodi:ry="108"
     d="m 830,372.09448 a 304,108 0 1 1 -608,0 304,108 0 1 1 608,0 z" />
</svg>
