<?xml version="1.0" encoding="UTF-8" standalone="no"?>
<!-- Created with Inkscape (http://www.inkscape.org/) -->
<svg
   xmlns:dc="http://purl.org/dc/elements/1.1/"
   xmlns:cc="http://creativecommons.org/ns#"
   xmlns:rdf="http://www.w3.org/1999/02/22-rdf-syntax-ns#"
   xmlns:svg="http://www.w3.org/2000/svg"
   xmlns="http://www.w3.org/2000/svg"
   xmlns:sodipodi="http://sodipodi.sourceforge.net/DTD/sodipodi-0.dtd"
   xmlns:inkscape="http://www.inkscape.org/namespaces/inkscape"
   id="svg2"
   sodipodi:version="0.32"
   inkscape:version="0.46+devel, revision 19938"
   width="100%"
   height="100%"
   sodipodi:docname="susleleme-a4.svg"
   inkscape:output_extension="org.inkscape.output.svg.inkscape"
   inkscape:export-filename="C:\Documents and Settings\Nevit\Belgelerim\Resimlerim\susleleme-a4.png"
   inkscape:export-xdpi="310"
   inkscape:export-ydpi="310">
  <metadata
     id="metadata7">
    <rdf:RDF>
      <cc:Work
         rdf:about="">
        <dc:format>image/svg+xml</dc:format>
        <dc:type
           rdf:resource="http://purl.org/dc/dcmitype/StillImage" />
        <dc:title></dc:title>
      </cc:Work>
    </rdf:RDF>
  </metadata>
  <defs
     id="defs5">
    <inkscape:path-effect
       pattern="m 678.28553,527.46331 c 0,2.76 -22.4,5 -50,5 -27.6,0 -50,-2.24 -50,-5 0,-2.76 22.4,-5 50,-5 27.6,0 50,2.24 50,5 z"
       id="path-effect2747"
       effect="freehand_shape" />
    <inkscape:path-effect
       id="path-effect2745"
       effect="spiro" />
    <inkscape:path-effect
       effect="freehand_shape"
       id="path-effect2741"
       pattern="m 678.28553,528.1188 c 0,2.76 -22.4,5 -50,5 -27.6,0 -50,-2.24 -50,-5 0,-2.76 22.4,-5 50,-5 27.6,0 50,2.24 50,5 z" />
    <inkscape:path-effect
       effect="spiro"
       id="path-effect2739" />
    <inkscape:path-effect
       pattern="M -2,5 C -2,2.24 20.4,0 48,0 75.6,0 98,2.24 98,5 98,7.76 75.6,10 48,10 20.4,10 -2,7.76 -2,5 z"
       id="path-effect2735"
       effect="freehand_shape" />
    <inkscape:path-effect
       id="path-effect2733"
       effect="spiro" />
    <inkscape:path-effect
       effect="freehand_shape"
       id="path-effect2715"
       pattern="m -2.122905,1.603352 c 0,-2.76 22.4,-5 50,-5 27.6,0 50,2.24 50,5 0,2.76 -22.4,5 -50,5 -27.6,0 -50,-2.24 -50,-5 z" />
    <inkscape:path-effect
       effect="spiro"
       id="path-effect2713" />
    <inkscape:perspective
       sodipodi:type="inkscape:persp3d"
       inkscape:vp_x="0 : 0.5 : 1"
       inkscape:vp_y="0 : 1000 : 0"
       inkscape:vp_z="1 : 0.5 : 1"
       inkscape:persp3d-origin="0.5 : 0.33333333 : 1"
       id="perspective9" />
  </defs>
  <sodipodi:namedview
     inkscape:window-height="712"
     inkscape:window-width="1024"
     inkscape:pageshadow="2"
     inkscape:pageopacity="1"
     guidetolerance="10.0"
     gridtolerance="10000"
     objecttolerance="10.0"
     borderopacity="1.0"
     bordercolor="#666666"
     pagecolor="#ffffff"
     id="base"
     showgrid="true"
     inkscape:zoom="0.5"
     inkscape:cx="407.18896"
     inkscape:cy="464.0421"
     inkscape:window-x="-4"
     inkscape:window-y="-4"
     inkscape:current-layer="svg2">
    <inkscape:grid
       type="xygrid"
       id="grid2697"
       empspacing="5"
       visible="true"
       enabled="true"
       spacingx="50px"
       spacingy="50px"
       empcolor="#ff0000"
       empopacity="0.25098039" />
  </sodipodi:namedview>
  <g
     id="g2819"
     transform="matrix(0.72843221,0,0,1.0377552,8.4108226,-46.587136)">
    <g
       id="g2785">
      <g
         id="g2749">
        <path
           style="fill:#000000;fill-rule:evenodd;stroke:none"
           d="m 250,302.36218 c -0.45951,6.2e-4 -0.93915,-2.43899 -1.23339,-7.03748 -0.29425,-4.59849 -0.39037,-11.36056 0.17759,-19.93963 0.56796,-8.57907 1.81156,-18.97958 4.27351,-30.71736 2.46194,-11.73779 6.15134,-24.81419 11.53171,-38.56205 5.28682,-13.51631 12.21767,-27.69081 21.04996,-41.73468 8.83229,-14.04386 19.56846,-27.95067 32.22344,-40.84009 0.5182,-0.52742 1.0395,-1.05305 1.56389,-1.57685 12.74952,-12.73511 26.53915,-23.582879 40.50142,-32.542722 13.96227,-8.959842 28.09079,-16.03395 41.60307,-21.462389 13.98219,-5.620494 27.31458,-9.48882 39.29675,-12.07751 11.98217,-2.588689 22.61539,-3.90734 31.3917,-4.518454 8.7763,-0.611114 15.70037,-0.526995 20.41028,-0.234819 4.70992,0.292176 7.2107,0.778813 7.21007,1.244037 -6.3e-4,0.465224 -2.49992,0.880117 -7.13299,1.440534 -4.63308,0.560418 -11.4044,1.280415 -19.91812,2.613251 -8.51372,1.332835 -18.77455,3.290278 -30.28287,6.387783 -11.50833,3.097504 -24.26593,7.34342 -37.61867,13.163812 -12.90176,5.627021 -26.36974,12.734009 -39.68858,21.538154 -13.31885,8.804143 -26.48299,19.306413 -38.70442,31.521763 -0.50267,0.50242 -1.00247,1.00644 -1.49939,1.51203 -12.14535,12.34801 -22.54968,25.61923 -31.24173,39.01364 -8.69205,13.39442 -15.67298,26.90648 -21.17555,39.81425 -5.59469,13.13094 -9.66993,25.64716 -12.64393,36.92437 -2.974,11.27721 -4.8547,21.31722 -6.13965,29.64244 -1.28494,8.32522 -1.98521,14.94013 -2.53432,19.46461 -0.54912,4.52449 -0.96027,6.96274 -1.41978,6.96336 0,0 0,0 0,0 z"
           id="path2711" />
        <path
           style="fill:#000000;fill-rule:evenodd;stroke:none"
           d="m -0.12290503,552.96553 c -0.45950912,6.2e-4 -0.93914997,-2.43899 -1.23339487,-7.03748 -0.2942449,-4.59849 -0.3903691,-11.36056 0.1775906,-19.93963 0.56795966,-8.57907 1.81156288,-18.97958 4.2735107,-30.71736 2.4619478,-11.73779 6.1513457,-24.81419 11.5317116,-38.56205 5.28682,-13.51631 12.21767,-27.69081 21.049961,-41.73468 8.832291,-14.04386 19.568457,-27.95067 32.223444,-40.84008 0.518194,-0.52743 1.039499,-1.05306 1.56389,-1.57686 12.749511,-12.73511 26.539144,-23.58288 40.501412,-32.54272 13.96228,-8.95984 28.09079,-16.03395 41.60307,-21.46239 13.98219,-5.6205 27.31458,-9.48882 39.29675,-12.07751 11.98217,-2.58869 22.61539,-3.90734 31.3917,-4.51846 8.7763,-0.61111 15.70037,-0.52699 20.41028,-0.23482 4.70992,0.29218 7.2107,0.77882 7.21007,1.24404 -6.3e-4,0.46522 -2.49992,0.88012 -7.13299,1.44053 -4.63308,0.56042 -11.4044,1.28042 -19.91812,2.61326 -8.51372,1.33283 -18.77455,3.29027 -30.28287,6.38778 -11.50833,3.0975 -24.26593,7.34342 -37.61866,13.16381 -12.90177,5.62702 -26.36975,12.73401 -39.68859,21.53816 -13.31884,8.80414 -26.482987,19.30641 -38.704414,31.52176 -0.502671,0.50242 -1.002475,1.00644 -1.499394,1.51202 -12.145343,12.34802 -22.549675,25.61924 -31.241727,39.01365 -8.692053,13.39442 -15.672982,26.90648 -21.17555,39.81425 -5.594691,13.13094 -9.669928,25.64716 -12.6439265,36.92437 -2.9739984,11.27721 -4.8547055,21.31722 -6.1396516,29.64244 -1.2849461,8.32522 -1.9852069,14.94013 -2.5343262,19.46461 -0.54911923,4.52449 -0.96026661,6.96274 -1.41977573,6.96336 z"
           id="path2731" />
        <path
           style="fill:#000000;fill-rule:evenodd;stroke:none"
           d="m 248.40844,302.15327 c 6.3e-4,-0.46522 2.49992,-0.88012 7.13299,-1.44053 4.63308,-0.56042 11.4044,-1.28042 19.91812,-2.61326 8.51372,-1.33283 18.77455,-3.29027 30.28287,-6.38778 11.50833,-3.0975 24.26593,-7.34342 37.61867,-13.16381 12.90176,-5.62702 26.36974,-12.73401 39.68858,-21.53816 13.31885,-8.80414 26.48299,-19.3064 38.70442,-31.52176 0.50267,-0.50242 1.00247,-1.00644 1.49939,-1.51202 12.14535,-12.34802 22.54968,-25.61923 31.24173,-39.01365 8.69205,-13.39442 15.67298,-26.90647 21.17555,-39.81425 5.59469,-13.13094 9.66993,-25.64716 12.64393,-36.92437 2.97399,-11.277208 4.8547,-21.317221 6.13965,-29.642441 1.28494,-8.32522 1.9852,-14.940127 2.53432,-19.46461 0.54912,-4.524484 0.96027,-6.962734 1.41978,-6.963356 0.45951,-6.22e-4 0.93915,2.438989 1.23339,7.037479 0.29425,4.59849 0.39037,11.360565 -0.17759,19.939631 -0.56796,8.579066 -1.81156,18.979578 -4.27351,30.717367 -2.46194,11.73778 -6.15134,24.81418 -11.53171,38.56204 -5.28682,13.51631 -12.21767,27.69081 -21.04996,41.73468 -8.83229,14.04386 -19.56846,27.95067 -32.22344,40.84008 -0.5182,0.52743 -1.0395,1.05306 -1.5639,1.57686 -12.74951,12.73511 -26.53914,23.58288 -40.50141,32.54272 -13.96227,8.95984 -28.09079,16.03395 -41.60307,21.46239 -13.98219,5.6205 -27.31458,9.48882 -39.29675,12.07751 -11.98217,2.58869 -22.61539,3.90734 -31.3917,4.51846 -8.7763,0.61111 -15.70037,0.52699 -20.41028,0.23482 -4.70992,-0.29218 -7.2107,-0.77882 -7.21007,-1.24404 z"
           id="path2737" />
        <path
           style="fill:#000000;fill-rule:evenodd;stroke:none"
           d="m -1.59156,551.49778 c 6.294e-4,-0.46522 2.49991753,-0.88012 7.1329918,-1.44053 4.6330742,-0.56042 11.4043972,-1.28042 19.9181192,-2.61326 8.513723,-1.33283 18.77455,-3.29027 30.282874,-6.38778 11.508324,-3.0975 24.265924,-7.34342 37.61866,-13.16381 12.901765,-5.62702 26.369745,-12.73401 39.688585,-21.53816 13.31885,-8.80414 26.48299,-19.30641 38.70442,-31.52176 0.50267,-0.50242 1.00247,-1.00644 1.49939,-1.51202 12.14535,-12.34802 22.54968,-25.61924 31.24173,-39.01365 8.69205,-13.39442 15.67298,-26.90648 21.17555,-39.81425 5.59469,-13.13094 9.66993,-25.64716 12.64393,-36.92437 2.97399,-11.27721 4.8547,-21.31722 6.13965,-29.64244 1.28494,-8.32522 1.98521,-14.94013 2.53432,-19.46461 0.54912,-4.52449 0.96027,-6.96274 1.41978,-6.96336 0.45951,-6.2e-4 0.93915,2.43899 1.23339,7.03748 0.29425,4.59849 0.39037,11.36056 -0.17759,19.93963 -0.56796,8.57907 -1.81156,18.97958 -4.27351,30.71736 -2.46194,11.73779 -6.15134,24.81419 -11.53171,38.56205 -5.28682,13.51631 -12.21767,27.69081 -21.04996,41.73468 -8.83229,14.04386 -19.56846,27.95067 -32.22344,40.84008 -0.5182,0.52743 -1.0395,1.05306 -1.5639,1.57686 -12.74951,12.73511 -26.53914,23.58288 -40.50141,32.54272 -13.96227,8.95984 -28.09079,16.03395 -41.603068,21.46239 -13.982187,5.6205 -27.314579,9.48882 -39.296752,12.07751 -11.982173,2.58869 -22.615388,3.90734 -31.391696,4.51846 -8.776308,0.61111 -15.700369,0.52699 -20.4102868,0.23482 -4.70991775,-0.29218 -7.2106966,-0.77882 -7.2100672,-1.24404 z"
           id="path2743" />
      </g>
      <g
         id="g2755"
         transform="matrix(-1,0,0,1,998.4084,0)">
        <path
           style="fill:#000000;fill-rule:evenodd;stroke:none"
           d="m 250,302.36218 c -0.45951,6.2e-4 -0.93915,-2.43899 -1.23339,-7.03748 -0.29425,-4.59849 -0.39037,-11.36056 0.17759,-19.93963 0.56796,-8.57907 1.81156,-18.97958 4.27351,-30.71736 2.46194,-11.73779 6.15134,-24.81419 11.53171,-38.56205 5.28682,-13.51631 12.21767,-27.69081 21.04996,-41.73468 8.83229,-14.04386 19.56846,-27.95067 32.22344,-40.84009 0.5182,-0.52742 1.0395,-1.05305 1.56389,-1.57685 12.74952,-12.73511 26.53915,-23.582879 40.50142,-32.542722 13.96227,-8.959842 28.09079,-16.03395 41.60307,-21.462389 13.98219,-5.620494 27.31458,-9.48882 39.29675,-12.07751 11.98217,-2.588689 22.61539,-3.90734 31.3917,-4.518454 8.7763,-0.611114 15.70037,-0.526995 20.41028,-0.234819 4.70992,0.292176 7.2107,0.778813 7.21007,1.244037 -6.3e-4,0.465224 -2.49992,0.880117 -7.13299,1.440534 -4.63308,0.560418 -11.4044,1.280415 -19.91812,2.613251 -8.51372,1.332835 -18.77455,3.290278 -30.28287,6.387783 -11.50833,3.097504 -24.26593,7.34342 -37.61867,13.163812 -12.90176,5.627021 -26.36974,12.734009 -39.68858,21.538154 -13.31885,8.804143 -26.48299,19.306413 -38.70442,31.521763 -0.50267,0.50242 -1.00247,1.00644 -1.49939,1.51203 -12.14535,12.34801 -22.54968,25.61923 -31.24173,39.01364 -8.69205,13.39442 -15.67298,26.90648 -21.17555,39.81425 -5.59469,13.13094 -9.66993,25.64716 -12.64393,36.92437 -2.974,11.27721 -4.8547,21.31722 -6.13965,29.64244 -1.28494,8.32522 -1.98521,14.94013 -2.53432,19.46461 -0.54912,4.52449 -0.96027,6.96274 -1.41978,6.96336 0,0 0,0 0,0 z"
           id="path2757" />
        <path
           style="fill:#000000;fill-rule:evenodd;stroke:none"
           d="m -0.12290503,552.96553 c -0.45950912,6.2e-4 -0.93914997,-2.43899 -1.23339487,-7.03748 -0.2942449,-4.59849 -0.3903691,-11.36056 0.1775906,-19.93963 0.56795966,-8.57907 1.81156288,-18.97958 4.2735107,-30.71736 2.4619478,-11.73779 6.1513457,-24.81419 11.5317116,-38.56205 5.28682,-13.51631 12.21767,-27.69081 21.049961,-41.73468 8.832291,-14.04386 19.568457,-27.95067 32.223444,-40.84008 0.518194,-0.52743 1.039499,-1.05306 1.56389,-1.57686 12.749511,-12.73511 26.539144,-23.58288 40.501412,-32.54272 13.96228,-8.95984 28.09079,-16.03395 41.60307,-21.46239 13.98219,-5.6205 27.31458,-9.48882 39.29675,-12.07751 11.98217,-2.58869 22.61539,-3.90734 31.3917,-4.51846 8.7763,-0.61111 15.70037,-0.52699 20.41028,-0.23482 4.70992,0.29218 7.2107,0.77882 7.21007,1.24404 -6.3e-4,0.46522 -2.49992,0.88012 -7.13299,1.44053 -4.63308,0.56042 -11.4044,1.28042 -19.91812,2.61326 -8.51372,1.33283 -18.77455,3.29027 -30.28287,6.38778 -11.50833,3.0975 -24.26593,7.34342 -37.61866,13.16381 -12.90177,5.62702 -26.36975,12.73401 -39.68859,21.53816 -13.31884,8.80414 -26.482987,19.30641 -38.704414,31.52176 -0.502671,0.50242 -1.002475,1.00644 -1.499394,1.51202 -12.145343,12.34802 -22.549675,25.61924 -31.241727,39.01365 -8.692053,13.39442 -15.672982,26.90648 -21.17555,39.81425 -5.594691,13.13094 -9.669928,25.64716 -12.6439265,36.92437 -2.9739984,11.27721 -4.8547055,21.31722 -6.1396516,29.64244 -1.2849461,8.32522 -1.9852069,14.94013 -2.5343262,19.46461 -0.54911923,4.52449 -0.96026661,6.96274 -1.41977573,6.96336 z"
           id="path2759" />
        <path
           style="fill:#000000;fill-rule:evenodd;stroke:none"
           d="m 248.40844,302.15327 c 6.3e-4,-0.46522 2.49992,-0.88012 7.13299,-1.44053 4.63308,-0.56042 11.4044,-1.28042 19.91812,-2.61326 8.51372,-1.33283 18.77455,-3.29027 30.28287,-6.38778 11.50833,-3.0975 24.26593,-7.34342 37.61867,-13.16381 12.90176,-5.62702 26.36974,-12.73401 39.68858,-21.53816 13.31885,-8.80414 26.48299,-19.3064 38.70442,-31.52176 0.50267,-0.50242 1.00247,-1.00644 1.49939,-1.51202 12.14535,-12.34802 22.54968,-25.61923 31.24173,-39.01365 8.69205,-13.39442 15.67298,-26.90647 21.17555,-39.81425 5.59469,-13.13094 9.66993,-25.64716 12.64393,-36.92437 2.97399,-11.277208 4.8547,-21.317221 6.13965,-29.642441 1.28494,-8.32522 1.9852,-14.940127 2.53432,-19.46461 0.54912,-4.524484 0.96027,-6.962734 1.41978,-6.963356 0.45951,-6.22e-4 0.93915,2.438989 1.23339,7.037479 0.29425,4.59849 0.39037,11.360565 -0.17759,19.939631 -0.56796,8.579066 -1.81156,18.979578 -4.27351,30.717367 -2.46194,11.73778 -6.15134,24.81418 -11.53171,38.56204 -5.28682,13.51631 -12.21767,27.69081 -21.04996,41.73468 -8.83229,14.04386 -19.56846,27.95067 -32.22344,40.84008 -0.5182,0.52743 -1.0395,1.05306 -1.5639,1.57686 -12.74951,12.73511 -26.53914,23.58288 -40.50141,32.54272 -13.96227,8.95984 -28.09079,16.03395 -41.60307,21.46239 -13.98219,5.6205 -27.31458,9.48882 -39.29675,12.07751 -11.98217,2.58869 -22.61539,3.90734 -31.3917,4.51846 -8.7763,0.61111 -15.70037,0.52699 -20.41028,0.23482 -4.70992,-0.29218 -7.2107,-0.77882 -7.21007,-1.24404 z"
           id="path2761" />
        <path
           style="fill:#000000;fill-rule:evenodd;stroke:none"
           d="m -1.59156,551.49778 c 6.294e-4,-0.46522 2.49991753,-0.88012 7.1329918,-1.44053 4.6330742,-0.56042 11.4043972,-1.28042 19.9181192,-2.61326 8.513723,-1.33283 18.77455,-3.29027 30.282874,-6.38778 11.508324,-3.0975 24.265924,-7.34342 37.61866,-13.16381 12.901765,-5.62702 26.369745,-12.73401 39.688585,-21.53816 13.31885,-8.80414 26.48299,-19.30641 38.70442,-31.52176 0.50267,-0.50242 1.00247,-1.00644 1.49939,-1.51202 12.14535,-12.34802 22.54968,-25.61924 31.24173,-39.01365 8.69205,-13.39442 15.67298,-26.90648 21.17555,-39.81425 5.59469,-13.13094 9.66993,-25.64716 12.64393,-36.92437 2.97399,-11.27721 4.8547,-21.31722 6.13965,-29.64244 1.28494,-8.32522 1.98521,-14.94013 2.53432,-19.46461 0.54912,-4.52449 0.96027,-6.96274 1.41978,-6.96336 0.45951,-6.2e-4 0.93915,2.43899 1.23339,7.03748 0.29425,4.59849 0.39037,11.36056 -0.17759,19.93963 -0.56796,8.57907 -1.81156,18.97958 -4.27351,30.71736 -2.46194,11.73779 -6.15134,24.81419 -11.53171,38.56205 -5.28682,13.51631 -12.21767,27.69081 -21.04996,41.73468 -8.83229,14.04386 -19.56846,27.95067 -32.22344,40.84008 -0.5182,0.52743 -1.0395,1.05306 -1.5639,1.57686 -12.74951,12.73511 -26.53914,23.58288 -40.50141,32.54272 -13.96227,8.95984 -28.09079,16.03395 -41.603068,21.46239 -13.982187,5.6205 -27.314579,9.48882 -39.296752,12.07751 -11.982173,2.58869 -22.615388,3.90734 -31.391696,4.51846 -8.776308,0.61111 -15.700369,0.52699 -20.4102868,0.23482 -4.70991775,-0.29218 -7.2106966,-0.77882 -7.2100672,-1.24404 z"
           id="path2763" />
      </g>
    </g>
    <g
       transform="matrix(1,0,0,-1,0,1103.86)"
       id="g2797">
      <g
         id="g2799">
        <path
           style="fill:#000000;fill-rule:evenodd;stroke:none"
           d="m 250,302.36218 c -0.45951,6.2e-4 -0.93915,-2.43899 -1.23339,-7.03748 -0.29425,-4.59849 -0.39037,-11.36056 0.17759,-19.93963 0.56796,-8.57907 1.81156,-18.97958 4.27351,-30.71736 2.46194,-11.73779 6.15134,-24.81419 11.53171,-38.56205 5.28682,-13.51631 12.21767,-27.69081 21.04996,-41.73468 8.83229,-14.04386 19.56846,-27.95067 32.22344,-40.84009 0.5182,-0.52742 1.0395,-1.05305 1.56389,-1.57685 12.74952,-12.73511 26.53915,-23.582879 40.50142,-32.542722 13.96227,-8.959842 28.09079,-16.03395 41.60307,-21.462389 13.98219,-5.620494 27.31458,-9.48882 39.29675,-12.07751 11.98217,-2.588689 22.61539,-3.90734 31.3917,-4.518454 8.7763,-0.611114 15.70037,-0.526995 20.41028,-0.234819 4.70992,0.292176 7.2107,0.778813 7.21007,1.244037 -6.3e-4,0.465224 -2.49992,0.880117 -7.13299,1.440534 -4.63308,0.560418 -11.4044,1.280415 -19.91812,2.613251 -8.51372,1.332835 -18.77455,3.290278 -30.28287,6.387783 -11.50833,3.097504 -24.26593,7.34342 -37.61867,13.163812 -12.90176,5.627021 -26.36974,12.734009 -39.68858,21.538154 -13.31885,8.804143 -26.48299,19.306413 -38.70442,31.521763 -0.50267,0.50242 -1.00247,1.00644 -1.49939,1.51203 -12.14535,12.34801 -22.54968,25.61923 -31.24173,39.01364 -8.69205,13.39442 -15.67298,26.90648 -21.17555,39.81425 -5.59469,13.13094 -9.66993,25.64716 -12.64393,36.92437 -2.974,11.27721 -4.8547,21.31722 -6.13965,29.64244 -1.28494,8.32522 -1.98521,14.94013 -2.53432,19.46461 -0.54912,4.52449 -0.96027,6.96274 -1.41978,6.96336 0,0 0,0 0,0 z"
           id="path2801" />
        <path
           style="fill:#000000;fill-rule:evenodd;stroke:none"
           d="m -0.12290503,552.96553 c -0.45950912,6.2e-4 -0.93914997,-2.43899 -1.23339487,-7.03748 -0.2942449,-4.59849 -0.3903691,-11.36056 0.1775906,-19.93963 0.56795966,-8.57907 1.81156288,-18.97958 4.2735107,-30.71736 2.4619478,-11.73779 6.1513457,-24.81419 11.5317116,-38.56205 5.28682,-13.51631 12.21767,-27.69081 21.049961,-41.73468 8.832291,-14.04386 19.568457,-27.95067 32.223444,-40.84008 0.518194,-0.52743 1.039499,-1.05306 1.56389,-1.57686 12.749511,-12.73511 26.539144,-23.58288 40.501412,-32.54272 13.96228,-8.95984 28.09079,-16.03395 41.60307,-21.46239 13.98219,-5.6205 27.31458,-9.48882 39.29675,-12.07751 11.98217,-2.58869 22.61539,-3.90734 31.3917,-4.51846 8.7763,-0.61111 15.70037,-0.52699 20.41028,-0.23482 4.70992,0.29218 7.2107,0.77882 7.21007,1.24404 -6.3e-4,0.46522 -2.49992,0.88012 -7.13299,1.44053 -4.63308,0.56042 -11.4044,1.28042 -19.91812,2.61326 -8.51372,1.33283 -18.77455,3.29027 -30.28287,6.38778 -11.50833,3.0975 -24.26593,7.34342 -37.61866,13.16381 -12.90177,5.62702 -26.36975,12.73401 -39.68859,21.53816 -13.31884,8.80414 -26.482987,19.30641 -38.704414,31.52176 -0.502671,0.50242 -1.002475,1.00644 -1.499394,1.51202 -12.145343,12.34802 -22.549675,25.61924 -31.241727,39.01365 -8.692053,13.39442 -15.672982,26.90648 -21.17555,39.81425 -5.594691,13.13094 -9.669928,25.64716 -12.6439265,36.92437 -2.9739984,11.27721 -4.8547055,21.31722 -6.1396516,29.64244 -1.2849461,8.32522 -1.9852069,14.94013 -2.5343262,19.46461 -0.54911923,4.52449 -0.96026661,6.96274 -1.41977573,6.96336 z"
           id="path2803" />
        <path
           style="fill:#000000;fill-rule:evenodd;stroke:none"
           d="m 248.40844,302.15327 c 6.3e-4,-0.46522 2.49992,-0.88012 7.13299,-1.44053 4.63308,-0.56042 11.4044,-1.28042 19.91812,-2.61326 8.51372,-1.33283 18.77455,-3.29027 30.28287,-6.38778 11.50833,-3.0975 24.26593,-7.34342 37.61867,-13.16381 12.90176,-5.62702 26.36974,-12.73401 39.68858,-21.53816 13.31885,-8.80414 26.48299,-19.3064 38.70442,-31.52176 0.50267,-0.50242 1.00247,-1.00644 1.49939,-1.51202 12.14535,-12.34802 22.54968,-25.61923 31.24173,-39.01365 8.69205,-13.39442 15.67298,-26.90647 21.17555,-39.81425 5.59469,-13.13094 9.66993,-25.64716 12.64393,-36.92437 2.97399,-11.277208 4.8547,-21.317221 6.13965,-29.642441 1.28494,-8.32522 1.9852,-14.940127 2.53432,-19.46461 0.54912,-4.524484 0.96027,-6.962734 1.41978,-6.963356 0.45951,-6.22e-4 0.93915,2.438989 1.23339,7.037479 0.29425,4.59849 0.39037,11.360565 -0.17759,19.939631 -0.56796,8.579066 -1.81156,18.979578 -4.27351,30.717367 -2.46194,11.73778 -6.15134,24.81418 -11.53171,38.56204 -5.28682,13.51631 -12.21767,27.69081 -21.04996,41.73468 -8.83229,14.04386 -19.56846,27.95067 -32.22344,40.84008 -0.5182,0.52743 -1.0395,1.05306 -1.5639,1.57686 -12.74951,12.73511 -26.53914,23.58288 -40.50141,32.54272 -13.96227,8.95984 -28.09079,16.03395 -41.60307,21.46239 -13.98219,5.6205 -27.31458,9.48882 -39.29675,12.07751 -11.98217,2.58869 -22.61539,3.90734 -31.3917,4.51846 -8.7763,0.61111 -15.70037,0.52699 -20.41028,0.23482 -4.70992,-0.29218 -7.2107,-0.77882 -7.21007,-1.24404 z"
           id="path2805" />
        <path
           style="fill:#000000;fill-rule:evenodd;stroke:none"
           d="m -1.59156,551.49778 c 6.294e-4,-0.46522 2.49991753,-0.88012 7.1329918,-1.44053 4.6330742,-0.56042 11.4043972,-1.28042 19.9181192,-2.61326 8.513723,-1.33283 18.77455,-3.29027 30.282874,-6.38778 11.508324,-3.0975 24.265924,-7.34342 37.61866,-13.16381 12.901765,-5.62702 26.369745,-12.73401 39.688585,-21.53816 13.31885,-8.80414 26.48299,-19.30641 38.70442,-31.52176 0.50267,-0.50242 1.00247,-1.00644 1.49939,-1.51202 12.14535,-12.34802 22.54968,-25.61924 31.24173,-39.01365 8.69205,-13.39442 15.67298,-26.90648 21.17555,-39.81425 5.59469,-13.13094 9.66993,-25.64716 12.64393,-36.92437 2.97399,-11.27721 4.8547,-21.31722 6.13965,-29.64244 1.28494,-8.32522 1.98521,-14.94013 2.53432,-19.46461 0.54912,-4.52449 0.96027,-6.96274 1.41978,-6.96336 0.45951,-6.2e-4 0.93915,2.43899 1.23339,7.03748 0.29425,4.59849 0.39037,11.36056 -0.17759,19.93963 -0.56796,8.57907 -1.81156,18.97958 -4.27351,30.71736 -2.46194,11.73779 -6.15134,24.81419 -11.53171,38.56205 -5.28682,13.51631 -12.21767,27.69081 -21.04996,41.73468 -8.83229,14.04386 -19.56846,27.95067 -32.22344,40.84008 -0.5182,0.52743 -1.0395,1.05306 -1.5639,1.57686 -12.74951,12.73511 -26.53914,23.58288 -40.50141,32.54272 -13.96227,8.95984 -28.09079,16.03395 -41.603068,21.46239 -13.982187,5.6205 -27.314579,9.48882 -39.296752,12.07751 -11.982173,2.58869 -22.615388,3.90734 -31.391696,4.51846 -8.776308,0.61111 -15.700369,0.52699 -20.4102868,0.23482 -4.70991775,-0.29218 -7.2106966,-0.77882 -7.2100672,-1.24404 z"
           id="path2807" />
      </g>
      <g
         transform="matrix(-1,0,0,1,998.4084,0)"
         id="g2809">
        <path
           style="fill:#000000;fill-rule:evenodd;stroke:none"
           d="m 250,302.36218 c -0.45951,6.2e-4 -0.93915,-2.43899 -1.23339,-7.03748 -0.29425,-4.59849 -0.39037,-11.36056 0.17759,-19.93963 0.56796,-8.57907 1.81156,-18.97958 4.27351,-30.71736 2.46194,-11.73779 6.15134,-24.81419 11.53171,-38.56205 5.28682,-13.51631 12.21767,-27.69081 21.04996,-41.73468 8.83229,-14.04386 19.56846,-27.95067 32.22344,-40.84009 0.5182,-0.52742 1.0395,-1.05305 1.56389,-1.57685 12.74952,-12.73511 26.53915,-23.582879 40.50142,-32.542722 13.96227,-8.959842 28.09079,-16.03395 41.60307,-21.462389 13.98219,-5.620494 27.31458,-9.48882 39.29675,-12.07751 11.98217,-2.588689 22.61539,-3.90734 31.3917,-4.518454 8.7763,-0.611114 15.70037,-0.526995 20.41028,-0.234819 4.70992,0.292176 7.2107,0.778813 7.21007,1.244037 -6.3e-4,0.465224 -2.49992,0.880117 -7.13299,1.440534 -4.63308,0.560418 -11.4044,1.280415 -19.91812,2.613251 -8.51372,1.332835 -18.77455,3.290278 -30.28287,6.387783 -11.50833,3.097504 -24.26593,7.34342 -37.61867,13.163812 -12.90176,5.627021 -26.36974,12.734009 -39.68858,21.538154 -13.31885,8.804143 -26.48299,19.306413 -38.70442,31.521763 -0.50267,0.50242 -1.00247,1.00644 -1.49939,1.51203 -12.14535,12.34801 -22.54968,25.61923 -31.24173,39.01364 -8.69205,13.39442 -15.67298,26.90648 -21.17555,39.81425 -5.59469,13.13094 -9.66993,25.64716 -12.64393,36.92437 -2.974,11.27721 -4.8547,21.31722 -6.13965,29.64244 -1.28494,8.32522 -1.98521,14.94013 -2.53432,19.46461 -0.54912,4.52449 -0.96027,6.96274 -1.41978,6.96336 0,0 0,0 0,0 z"
           id="path2811" />
        <path
           style="fill:#000000;fill-rule:evenodd;stroke:none"
           d="m -0.12290503,552.96553 c -0.45950912,6.2e-4 -0.93914997,-2.43899 -1.23339487,-7.03748 -0.2942449,-4.59849 -0.3903691,-11.36056 0.1775906,-19.93963 0.56795966,-8.57907 1.81156288,-18.97958 4.2735107,-30.71736 2.4619478,-11.73779 6.1513457,-24.81419 11.5317116,-38.56205 5.28682,-13.51631 12.21767,-27.69081 21.049961,-41.73468 8.832291,-14.04386 19.568457,-27.95067 32.223444,-40.84008 0.518194,-0.52743 1.039499,-1.05306 1.56389,-1.57686 12.749511,-12.73511 26.539144,-23.58288 40.501412,-32.54272 13.96228,-8.95984 28.09079,-16.03395 41.60307,-21.46239 13.98219,-5.6205 27.31458,-9.48882 39.29675,-12.07751 11.98217,-2.58869 22.61539,-3.90734 31.3917,-4.51846 8.7763,-0.61111 15.70037,-0.52699 20.41028,-0.23482 4.70992,0.29218 7.2107,0.77882 7.21007,1.24404 -6.3e-4,0.46522 -2.49992,0.88012 -7.13299,1.44053 -4.63308,0.56042 -11.4044,1.28042 -19.91812,2.61326 -8.51372,1.33283 -18.77455,3.29027 -30.28287,6.38778 -11.50833,3.0975 -24.26593,7.34342 -37.61866,13.16381 -12.90177,5.62702 -26.36975,12.73401 -39.68859,21.53816 -13.31884,8.80414 -26.482987,19.30641 -38.704414,31.52176 -0.502671,0.50242 -1.002475,1.00644 -1.499394,1.51202 -12.145343,12.34802 -22.549675,25.61924 -31.241727,39.01365 -8.692053,13.39442 -15.672982,26.90648 -21.17555,39.81425 -5.594691,13.13094 -9.669928,25.64716 -12.6439265,36.92437 -2.9739984,11.27721 -4.8547055,21.31722 -6.1396516,29.64244 -1.2849461,8.32522 -1.9852069,14.94013 -2.5343262,19.46461 -0.54911923,4.52449 -0.96026661,6.96274 -1.41977573,6.96336 z"
           id="path2813" />
        <path
           style="fill:#000000;fill-rule:evenodd;stroke:none"
           d="m 248.40844,302.15327 c 6.3e-4,-0.46522 2.49992,-0.88012 7.13299,-1.44053 4.63308,-0.56042 11.4044,-1.28042 19.91812,-2.61326 8.51372,-1.33283 18.77455,-3.29027 30.28287,-6.38778 11.50833,-3.0975 24.26593,-7.34342 37.61867,-13.16381 12.90176,-5.62702 26.36974,-12.73401 39.68858,-21.53816 13.31885,-8.80414 26.48299,-19.3064 38.70442,-31.52176 0.50267,-0.50242 1.00247,-1.00644 1.49939,-1.51202 12.14535,-12.34802 22.54968,-25.61923 31.24173,-39.01365 8.69205,-13.39442 15.67298,-26.90647 21.17555,-39.81425 5.59469,-13.13094 9.66993,-25.64716 12.64393,-36.92437 2.97399,-11.277208 4.8547,-21.317221 6.13965,-29.642441 1.28494,-8.32522 1.9852,-14.940127 2.53432,-19.46461 0.54912,-4.524484 0.96027,-6.962734 1.41978,-6.963356 0.45951,-6.22e-4 0.93915,2.438989 1.23339,7.037479 0.29425,4.59849 0.39037,11.360565 -0.17759,19.939631 -0.56796,8.579066 -1.81156,18.979578 -4.27351,30.717367 -2.46194,11.73778 -6.15134,24.81418 -11.53171,38.56204 -5.28682,13.51631 -12.21767,27.69081 -21.04996,41.73468 -8.83229,14.04386 -19.56846,27.95067 -32.22344,40.84008 -0.5182,0.52743 -1.0395,1.05306 -1.5639,1.57686 -12.74951,12.73511 -26.53914,23.58288 -40.50141,32.54272 -13.96227,8.95984 -28.09079,16.03395 -41.60307,21.46239 -13.98219,5.6205 -27.31458,9.48882 -39.29675,12.07751 -11.98217,2.58869 -22.61539,3.90734 -31.3917,4.51846 -8.7763,0.61111 -15.70037,0.52699 -20.41028,0.23482 -4.70992,-0.29218 -7.2107,-0.77882 -7.21007,-1.24404 z"
           id="path2815" />
        <path
           style="fill:#000000;fill-rule:evenodd;stroke:none"
           d="m -1.59156,551.49778 c 6.294e-4,-0.46522 2.49991753,-0.88012 7.1329918,-1.44053 4.6330742,-0.56042 11.4043972,-1.28042 19.9181192,-2.61326 8.513723,-1.33283 18.77455,-3.29027 30.282874,-6.38778 11.508324,-3.0975 24.265924,-7.34342 37.61866,-13.16381 12.901765,-5.62702 26.369745,-12.73401 39.688585,-21.53816 13.31885,-8.80414 26.48299,-19.30641 38.70442,-31.52176 0.50267,-0.50242 1.00247,-1.00644 1.49939,-1.51202 12.14535,-12.34802 22.54968,-25.61924 31.24173,-39.01365 8.69205,-13.39442 15.67298,-26.90648 21.17555,-39.81425 5.59469,-13.13094 9.66993,-25.64716 12.64393,-36.92437 2.97399,-11.27721 4.8547,-21.31722 6.13965,-29.64244 1.28494,-8.32522 1.98521,-14.94013 2.53432,-19.46461 0.54912,-4.52449 0.96027,-6.96274 1.41978,-6.96336 0.45951,-6.2e-4 0.93915,2.43899 1.23339,7.03748 0.29425,4.59849 0.39037,11.36056 -0.17759,19.93963 -0.56796,8.57907 -1.81156,18.97958 -4.27351,30.71736 -2.46194,11.73779 -6.15134,24.81419 -11.53171,38.56205 -5.28682,13.51631 -12.21767,27.69081 -21.04996,41.73468 -8.83229,14.04386 -19.56846,27.95067 -32.22344,40.84008 -0.5182,0.52743 -1.0395,1.05306 -1.5639,1.57686 -12.74951,12.73511 -26.53914,23.58288 -40.50141,32.54272 -13.96227,8.95984 -28.09079,16.03395 -41.603068,21.46239 -13.982187,5.6205 -27.314579,9.48882 -39.296752,12.07751 -11.982173,2.58869 -22.615388,3.90734 -31.391696,4.51846 -8.776308,0.61111 -15.700369,0.52699 -20.4102868,0.23482 -4.70991775,-0.29218 -7.2106966,-0.77882 -7.2100672,-1.24404 z"
           id="path2817" />
      </g>
    </g>
  </g>
  <path
     sodipodi:type="arc"
     style="fill:none;stroke:#000000;stroke-width:5;stroke-miterlimit:4;stroke-opacity:1;stroke-dasharray:none"
     id="path2859"
     sodipodi:cx="375"
     sodipodi:cy="527.36218"
     sodipodi:rx="175"
     sodipodi:ry="275"
     d="m 550,527.36218 a 175,275 0 1 1 -350,0 175,275 0 1 1 350,0 z"
     transform="translate(-2.9527588,-1.1810913)" />
</svg>
