<?xml version="1.0"?>
<svg width="1600" height="1200" xmlns="http://www.w3.org/2000/svg" xmlns:svg="http://www.w3.org/2000/svg">
 <metadata id="metadata7">image/svg+xml</metadata>

 <g class="layer">
  <title>Layer 1</title>
  <g fill-opacity="0.44" id="g2819" transform="rotate(-35 1549 111.858)">
   <g id="g2785">
    <g id="g2749">
     <path d="m1299.92,-137.71c-0.46,0 -0.94,-2.44 -1.23,-7.04c-0.3,-4.59 -0.39,-11.36 0.17,-19.93c0.57,-8.58 1.82,-18.98 4.28,-30.72c2.46,-11.74 6.15,-24.82 11.53,-38.56c5.29,-13.52 12.22,-27.7 21.05,-41.74c8.83,-14.04 19.57,-27.95 32.22,-40.84c0.52,-0.53 1.04,-1.05 1.57,-1.58c12.75,-12.73 26.54,-23.58 40.5,-32.54c13.96,-8.96 28.09,-16.03 41.6,-21.46c13.98,-5.62 27.32,-9.49 39.3,-12.08c11.98,-2.59 22.61,-3.91 31.39,-4.52c8.78,-0.61 15.7,-0.52 20.41,-0.23c4.71,0.29 7.21,0.78 7.21,1.24c0,0.47 -2.5,0.88 -7.13,1.44c-4.64,0.56 -11.41,1.28 -19.92,2.62c-8.51,1.33 -18.78,3.29 -30.28,6.38c-11.51,3.1 -24.27,7.35 -37.62,13.17c-12.9,5.62 -26.37,12.73 -39.69,21.54c-13.32,8.8 -26.48,19.3 -38.71,31.52c-0.5,0.5 -1,1 -1.5,1.51c-12.14,12.35 -22.54,25.62 -31.24,39.01c-8.69,13.4 -15.67,26.91 -21.17,39.82c-5.6,13.13 -9.67,25.64 -12.65,36.92c-2.97,11.28 -4.85,21.32 -6.14,29.64c-1.28,8.33 -1.98,14.94 -2.53,19.47c-0.55,4.52 -0.96,6.96 -1.42,6.96c0,0 0,0 0,0z" fill="#00080a" fill-rule="evenodd" id="path2711"/>
     <path d="m1049.8,112.9c-0.46,0 -0.94,-2.44 -1.24,-7.04c-0.29,-4.6 -0.39,-11.36 0.18,-19.94c0.57,-8.58 1.81,-18.98 4.27,-30.72c2.47,-11.74 6.16,-24.81 11.54,-38.56c5.28,-13.52 12.21,-27.69 21.05,-41.74c8.83,-14.04 19.56,-27.95 32.22,-40.84c0.52,-0.52 1.04,-1.05 1.56,-1.57c12.75,-12.74 26.54,-23.59 40.51,-32.55c13.96,-8.96 28.09,-16.03 41.6,-21.46c13.98,-5.62 27.31,-9.49 39.3,-12.08c11.98,-2.58 22.61,-3.9 31.39,-4.51c8.77,-0.61 15.7,-0.53 20.41,-0.24c4.71,0.29 7.21,0.78 7.21,1.25c0,0.46 -2.5,0.88 -7.14,1.44c-4.63,0.56 -11.4,1.28 -19.91,2.61c-8.52,1.33 -18.78,3.29 -30.29,6.39c-11.51,3.09 -24.26,7.34 -37.62,13.16c-12.9,5.63 -26.37,12.73 -39.68,21.54c-13.32,8.8 -26.49,19.31 -38.71,31.52c-0.5,0.5 -1,1.01 -1.5,1.51c-12.14,12.35 -22.55,25.62 -31.24,39.02c-8.69,13.39 -15.67,26.9 -21.18,39.81c-5.59,13.13 -9.67,25.65 -12.64,36.93c-2.97,11.27 -4.85,21.31 -6.14,29.64c-1.28,8.32 -1.98,14.94 -2.53,19.46c-0.55,4.53 -0.96,6.96 -1.42,6.97z" fill="#00080a" fill-rule="evenodd" id="path2731"/>
     <path d="m1298.33,-137.92c0,-0.46 2.5,-0.88 7.13,-1.44c4.63,-0.56 11.41,-1.28 19.92,-2.61c8.51,-1.33 18.77,-3.29 30.28,-6.39c11.51,-3.1 24.27,-7.34 37.62,-13.16c12.9,-5.63 26.37,-12.74 39.69,-21.54c13.32,-8.8 26.48,-19.31 38.7,-31.52c0.51,-0.5 1.01,-1.01 1.5,-1.51c12.15,-12.35 22.55,-25.62 31.25,-39.02c8.69,-13.39 15.67,-26.9 21.17,-39.81c5.6,-13.13 9.67,-25.65 12.64,-36.93c2.98,-11.27 4.86,-21.31 6.14,-29.64c1.29,-8.32 1.99,-14.94 2.54,-19.46c0.55,-4.53 0.96,-6.97 1.42,-6.97c0.46,0 0.94,2.44 1.23,7.04c0.3,4.6 0.39,11.36 -0.18,19.94c-0.56,8.58 -1.81,18.98 -4.27,30.72c-2.46,11.74 -6.15,24.81 -11.53,38.56c-5.29,13.52 -12.22,27.69 -21.05,41.73c-8.83,14.05 -19.57,27.96 -32.22,40.84c-0.52,0.53 -1.04,1.06 -1.57,1.58c-12.75,12.74 -26.54,23.58 -40.5,32.54c-13.96,8.96 -28.09,16.04 -41.6,21.47c-13.98,5.62 -27.32,9.49 -39.3,12.07c-11.98,2.59 -22.61,3.91 -31.39,4.52c-8.78,0.61 -15.7,0.53 -20.41,0.24c-4.71,-0.29 -7.21,-0.78 -7.21,-1.25z" fill="#00080a" fill-rule="evenodd" id="path2737"/>
     <path d="m1048.33,111.43c0,-0.47 2.5,-0.88 7.13,-1.44c4.63,-0.56 11.41,-1.28 19.92,-2.62c8.51,-1.33 18.77,-3.29 30.28,-6.38c11.51,-3.1 24.27,-7.35 37.62,-13.17c12.9,-5.62 26.37,-12.73 39.69,-21.54c13.32,-8.8 26.48,-19.3 38.7,-31.52c0.51,-0.5 1.01,-1 1.5,-1.51c12.15,-12.35 22.55,-25.62 31.25,-39.01c8.69,-13.4 15.67,-26.91 21.17,-39.82c5.6,-13.13 9.67,-25.64 12.64,-36.92c2.98,-11.28 4.86,-21.32 6.14,-29.64c1.29,-8.33 1.99,-14.94 2.54,-19.47c0.55,-4.52 0.96,-6.96 1.42,-6.96c0.46,0 0.94,2.44 1.23,7.04c0.3,4.59 0.39,11.36 -0.18,19.93c-0.56,8.58 -1.81,18.98 -4.27,30.72c-2.46,11.74 -6.15,24.82 -11.53,38.56c-5.29,13.52 -12.22,27.7 -21.05,41.74c-8.83,14.04 -19.57,27.95 -32.22,40.84c-0.52,0.53 -1.04,1.05 -1.57,1.58c-12.75,12.73 -26.54,23.58 -40.5,32.54c-13.96,8.96 -28.09,16.03 -41.6,21.46c-13.98,5.62 -27.32,9.49 -39.3,12.08c-11.98,2.59 -22.61,3.91 -31.39,4.52c-8.78,0.61 -15.7,0.52 -20.41,0.23c-4.71,-0.29 -7.21,-0.78 -7.21,-1.24z" fill="#00080a" fill-rule="evenodd" id="path2743"/>
    </g>
    <g id="g2755" transform="matrix(-1 0 0 1 998.408 0)">
     <path d="m-799.92,-137.71c-0.46,0 -0.94,-2.44 -1.23,-7.04c-0.3,-4.59 -0.39,-11.36 0.17,-19.93c0.57,-8.58 1.82,-18.98 4.28,-30.72c2.46,-11.74 6.15,-24.82 11.53,-38.56c5.29,-13.52 12.22,-27.7 21.05,-41.74c8.83,-14.04 19.57,-27.95 32.22,-40.84c0.52,-0.53 1.04,-1.05 1.57,-1.58c12.75,-12.73 26.54,-23.58 40.5,-32.54c13.96,-8.96 28.09,-16.03 41.6,-21.46c13.98,-5.62 27.32,-9.49 39.3,-12.08c11.98,-2.59 22.61,-3.91 31.39,-4.52c8.78,-0.61 15.7,-0.52 20.41,-0.23c4.71,0.29 7.21,0.78 7.21,1.24c0,0.47 -2.5,0.88 -7.13,1.44c-4.64,0.56 -11.41,1.28 -19.92,2.62c-8.51,1.33 -18.78,3.29 -30.28,6.38c-11.51,3.1 -24.27,7.35 -37.62,13.17c-12.9,5.62 -26.37,12.73 -39.69,21.54c-13.32,8.8 -26.48,19.3 -38.71,31.52c-0.5,0.5 -1,1 -1.5,1.51c-12.14,12.35 -22.54,25.62 -31.24,39.01c-8.69,13.4 -15.67,26.91 -21.17,39.82c-5.6,13.13 -9.67,25.64 -12.65,36.92c-2.97,11.28 -4.85,21.32 -6.14,29.64c-1.28,8.33 -1.98,14.94 -2.53,19.47c-0.55,4.52 -0.96,6.96 -1.42,6.96c0,0 0,0 0,0z" fill="#00080a" fill-rule="evenodd" id="path2757"/>
     <path d="m-1050.04,112.9c-0.46,0 -0.94,-2.44 -1.24,-7.04c-0.29,-4.6 -0.39,-11.36 0.18,-19.94c0.57,-8.58 1.81,-18.98 4.27,-30.72c2.47,-11.74 6.16,-24.81 11.54,-38.56c5.28,-13.52 12.21,-27.69 21.05,-41.74c8.83,-14.04 19.56,-27.95 32.22,-40.84c0.52,-0.52 1.04,-1.05 1.56,-1.57c12.75,-12.74 26.54,-23.59 40.51,-32.55c13.96,-8.96 28.09,-16.03 41.6,-21.46c13.98,-5.62 27.31,-9.49 39.3,-12.08c11.98,-2.58 22.61,-3.9 31.39,-4.51c8.77,-0.61 15.7,-0.53 20.41,-0.24c4.71,0.29 7.21,0.78 7.21,1.25c0,0.46 -2.5,0.88 -7.14,1.44c-4.63,0.56 -11.4,1.28 -19.91,2.61c-8.52,1.33 -18.78,3.29 -30.29,6.39c-11.51,3.09 -24.26,7.34 -37.62,13.16c-12.9,5.63 -26.37,12.73 -39.68,21.54c-13.32,8.8 -26.49,19.31 -38.71,31.52c-0.5,0.5 -1,1.01 -1.5,1.51c-12.14,12.35 -22.55,25.62 -31.24,39.02c-8.69,13.39 -15.67,26.9 -21.18,39.81c-5.59,13.13 -9.67,25.65 -12.64,36.93c-2.97,11.27 -4.85,21.31 -6.14,29.64c-1.28,8.32 -1.98,14.94 -2.53,19.46c-0.55,4.53 -0.96,6.96 -1.42,6.97z" fill="#00080a" fill-rule="evenodd" id="path2759"/>
     <path d="m-801.51,-137.92c0,-0.46 2.5,-0.88 7.13,-1.44c4.63,-0.56 11.41,-1.28 19.92,-2.61c8.51,-1.33 18.77,-3.29 30.28,-6.39c11.51,-3.1 24.27,-7.34 37.62,-13.16c12.9,-5.63 26.37,-12.74 39.69,-21.54c13.32,-8.8 26.48,-19.31 38.7,-31.52c0.51,-0.5 1.01,-1.01 1.5,-1.51c12.15,-12.35 22.55,-25.62 31.25,-39.02c8.69,-13.39 15.67,-26.9 21.17,-39.81c5.6,-13.13 9.67,-25.65 12.64,-36.93c2.98,-11.27 4.86,-21.31 6.14,-29.64c1.29,-8.32 1.99,-14.94 2.54,-19.46c0.55,-4.53 0.96,-6.97 1.42,-6.97c0.46,0 0.94,2.44 1.23,7.04c0.3,4.6 0.39,11.36 -0.18,19.94c-0.56,8.58 -1.81,18.98 -4.27,30.72c-2.46,11.74 -6.15,24.81 -11.53,38.56c-5.29,13.52 -12.22,27.69 -21.05,41.73c-8.83,14.05 -19.57,27.96 -32.22,40.84c-0.52,0.53 -1.04,1.06 -1.57,1.58c-12.75,12.74 -26.54,23.58 -40.5,32.54c-13.96,8.96 -28.09,16.04 -41.6,21.47c-13.98,5.62 -27.32,9.49 -39.3,12.07c-11.98,2.59 -22.61,3.91 -31.39,4.52c-8.78,0.61 -15.7,0.53 -20.41,0.24c-4.71,-0.29 -7.21,-0.78 -7.21,-1.25z" fill="#00080a" fill-rule="evenodd" id="path2761"/>
     <path d="m-1051.51,111.43c0,-0.47 2.5,-0.88 7.13,-1.44c4.63,-0.56 11.41,-1.28 19.92,-2.62c8.51,-1.33 18.77,-3.29 30.28,-6.38c11.51,-3.1 24.27,-7.35 37.62,-13.17c12.9,-5.62 26.37,-12.73 39.69,-21.54c13.32,-8.8 26.48,-19.3 38.7,-31.52c0.51,-0.5 1.01,-1 1.5,-1.51c12.15,-12.35 22.55,-25.62 31.25,-39.01c8.69,-13.4 15.67,-26.91 21.17,-39.82c5.6,-13.13 9.67,-25.64 12.64,-36.92c2.98,-11.28 4.86,-21.32 6.14,-29.64c1.29,-8.33 1.99,-14.94 2.54,-19.47c0.55,-4.52 0.96,-6.96 1.42,-6.96c0.46,0 0.94,2.44 1.23,7.04c0.3,4.59 0.39,11.36 -0.18,19.93c-0.56,8.58 -1.81,18.98 -4.27,30.72c-2.46,11.74 -6.15,24.82 -11.53,38.56c-5.29,13.52 -12.22,27.7 -21.05,41.74c-8.83,14.04 -19.57,27.95 -32.22,40.84c-0.52,0.53 -1.04,1.05 -1.57,1.58c-12.75,12.73 -26.54,23.58 -40.5,32.54c-13.96,8.96 -28.09,16.03 -41.6,21.46c-13.98,5.62 -27.32,9.49 -39.3,12.08c-11.98,2.59 -22.61,3.91 -31.39,4.52c-8.78,0.61 -15.7,0.52 -20.41,0.23c-4.71,-0.29 -7.21,-0.78 -7.21,-1.24z" fill="#00080a" fill-rule="evenodd" id="path2763"/>
    </g>
   </g>
   <g id="g2797" transform="matrix(1 0 0 -1 0 1103.86)">
    <g id="g2799">
     <path d="m1299.92,742.43c-0.46,0 -0.94,-2.44 -1.23,-7.04c-0.3,-4.59 -0.39,-11.36 0.17,-19.93c0.57,-8.58 1.82,-18.98 4.28,-30.72c2.46,-11.74 6.15,-24.82 11.53,-38.56c5.29,-13.52 12.22,-27.7 21.05,-41.74c8.83,-14.04 19.57,-27.95 32.22,-40.84c0.52,-0.53 1.04,-1.05 1.57,-1.58c12.75,-12.73 26.54,-23.58 40.5,-32.54c13.96,-8.96 28.09,-16.03 41.6,-21.46c13.98,-5.62 27.32,-9.49 39.3,-12.08c11.98,-2.59 22.61,-3.91 31.39,-4.52c8.78,-0.61 15.7,-0.52 20.41,-0.23c4.71,0.29 7.21,0.78 7.21,1.24c0,0.47 -2.5,0.88 -7.13,1.44c-4.64,0.56 -11.41,1.28 -19.92,2.62c-8.51,1.33 -18.78,3.29 -30.28,6.38c-11.51,3.1 -24.27,7.35 -37.62,13.17c-12.9,5.62 -26.37,12.73 -39.69,21.54c-13.32,8.8 -26.48,19.3 -38.71,31.52c-0.5,0.5 -1,1 -1.5,1.51c-12.14,12.35 -22.54,25.62 -31.24,39.01c-8.69,13.4 -15.67,26.91 -21.17,39.82c-5.6,13.13 -9.67,25.64 -12.65,36.92c-2.97,11.28 -4.85,21.32 -6.14,29.64c-1.28,8.33 -1.98,14.94 -2.53,19.47c-0.55,4.52 -0.96,6.96 -1.42,6.96c0,0 0,0 0,0z" fill="#00080a" fill-rule="evenodd" id="path2801"/>
     <path d="m1049.8,993.04c-0.46,0 -0.94,-2.44 -1.24,-7.04c-0.29,-4.6 -0.39,-11.36 0.18,-19.94c0.57,-8.58 1.81,-18.98 4.27,-30.72c2.47,-11.74 6.16,-24.81 11.54,-38.56c5.28,-13.52 12.21,-27.69 21.05,-41.74c8.83,-14.04 19.56,-27.95 32.22,-40.84c0.52,-0.52 1.04,-1.05 1.56,-1.57c12.75,-12.74 26.54,-23.59 40.51,-32.55c13.96,-8.96 28.09,-16.03 41.6,-21.46c13.98,-5.62 27.31,-9.49 39.3,-12.08c11.98,-2.58 22.61,-3.9 31.39,-4.51c8.77,-0.61 15.7,-0.53 20.41,-0.24c4.71,0.29 7.21,0.78 7.21,1.25c0,0.46 -2.5,0.88 -7.14,1.44c-4.63,0.56 -11.4,1.28 -19.91,2.61c-8.52,1.33 -18.78,3.29 -30.29,6.39c-11.51,3.09 -24.26,7.34 -37.62,13.16c-12.9,5.63 -26.37,12.73 -39.68,21.54c-13.32,8.8 -26.49,19.31 -38.71,31.52c-0.5,0.5 -1,1.01 -1.5,1.51c-12.14,12.35 -22.55,25.62 -31.24,39.02c-8.69,13.39 -15.67,26.9 -21.18,39.81c-5.59,13.13 -9.67,25.65 -12.64,36.93c-2.97,11.27 -4.85,21.31 -6.14,29.64c-1.28,8.32 -1.98,14.94 -2.53,19.46c-0.55,4.53 -0.96,6.96 -1.42,6.97z" fill="#00080a" fill-rule="evenodd" id="path2803"/>
     <path d="m1298.33,742.22c0,-0.46 2.5,-0.88 7.13,-1.44c4.63,-0.56 11.41,-1.28 19.92,-2.61c8.51,-1.33 18.77,-3.29 30.28,-6.39c11.51,-3.1 24.27,-7.34 37.62,-13.16c12.9,-5.63 26.37,-12.74 39.69,-21.54c13.32,-8.8 26.48,-19.31 38.7,-31.52c0.51,-0.5 1.01,-1.01 1.5,-1.51c12.15,-12.35 22.55,-25.62 31.25,-39.02c8.69,-13.39 15.67,-26.9 21.17,-39.81c5.6,-13.13 9.67,-25.65 12.64,-36.93c2.98,-11.27 4.86,-21.31 6.14,-29.64c1.29,-8.32 1.99,-14.94 2.54,-19.46c0.55,-4.53 0.96,-6.97 1.42,-6.97c0.46,0 0.94,2.44 1.23,7.04c0.3,4.6 0.39,11.36 -0.18,19.94c-0.56,8.58 -1.81,18.98 -4.27,30.72c-2.46,11.74 -6.15,24.81 -11.53,38.56c-5.29,13.52 -12.22,27.69 -21.05,41.73c-8.83,14.05 -19.57,27.96 -32.22,40.84c-0.52,0.53 -1.04,1.06 -1.57,1.58c-12.75,12.74 -26.54,23.58 -40.5,32.54c-13.96,8.96 -28.09,16.04 -41.6,21.47c-13.98,5.62 -27.32,9.49 -39.3,12.07c-11.98,2.59 -22.61,3.91 -31.39,4.52c-8.78,0.61 -15.7,0.53 -20.41,0.24c-4.71,-0.29 -7.21,-0.78 -7.21,-1.25z" fill="#00080a" fill-rule="evenodd" id="path2805"/>
     <path d="m1048.33,991.57c0,-0.47 2.5,-0.88 7.13,-1.44c4.63,-0.56 11.41,-1.28 19.92,-2.62c8.51,-1.33 18.77,-3.29 30.28,-6.38c11.51,-3.1 24.27,-7.35 37.62,-13.17c12.9,-5.62 26.37,-12.73 39.69,-21.54c13.32,-8.8 26.48,-19.3 38.7,-31.52c0.51,-0.5 1.01,-1 1.5,-1.51c12.15,-12.35 22.55,-25.62 31.25,-39.01c8.69,-13.4 15.67,-26.91 21.17,-39.82c5.6,-13.13 9.67,-25.64 12.64,-36.92c2.98,-11.28 4.86,-21.32 6.14,-29.64c1.29,-8.33 1.99,-14.94 2.54,-19.47c0.55,-4.52 0.96,-6.96 1.42,-6.96c0.46,0 0.94,2.44 1.23,7.04c0.3,4.59 0.39,11.36 -0.18,19.93c-0.56,8.58 -1.81,18.98 -4.27,30.72c-2.46,11.74 -6.15,24.82 -11.53,38.56c-5.29,13.52 -12.22,27.7 -21.05,41.74c-8.83,14.04 -19.57,27.95 -32.22,40.84c-0.52,0.53 -1.04,1.05 -1.57,1.58c-12.75,12.73 -26.54,23.58 -40.5,32.54c-13.96,8.96 -28.09,16.03 -41.6,21.46c-13.98,5.62 -27.32,9.49 -39.3,12.08c-11.98,2.59 -22.61,3.91 -31.39,4.52c-8.78,0.61 -15.7,0.52 -20.41,0.23c-4.71,-0.29 -7.21,-0.78 -7.21,-1.24z" fill="#00080a" fill-rule="evenodd" id="path2807"/>
    </g>
    <g id="g2809" transform="matrix(-1 0 0 1 998.408 0)">
     <path d="m-799.92,742.43c-0.46,0 -0.94,-2.44 -1.23,-7.04c-0.3,-4.59 -0.39,-11.36 0.17,-19.93c0.57,-8.58 1.82,-18.98 4.28,-30.72c2.46,-11.74 6.15,-24.82 11.53,-38.56c5.29,-13.52 12.22,-27.7 21.05,-41.74c8.83,-14.04 19.57,-27.95 32.22,-40.84c0.52,-0.53 1.04,-1.05 1.57,-1.58c12.75,-12.73 26.54,-23.58 40.5,-32.54c13.96,-8.96 28.09,-16.03 41.6,-21.46c13.98,-5.62 27.32,-9.49 39.3,-12.08c11.98,-2.59 22.61,-3.91 31.39,-4.52c8.78,-0.61 15.7,-0.52 20.41,-0.23c4.71,0.29 7.21,0.78 7.21,1.24c0,0.47 -2.5,0.88 -7.13,1.44c-4.64,0.56 -11.41,1.28 -19.92,2.62c-8.51,1.33 -18.78,3.29 -30.28,6.38c-11.51,3.1 -24.27,7.35 -37.62,13.17c-12.9,5.62 -26.37,12.73 -39.69,21.54c-13.32,8.8 -26.48,19.3 -38.71,31.52c-0.5,0.5 -1,1 -1.5,1.51c-12.14,12.35 -22.54,25.62 -31.24,39.01c-8.69,13.4 -15.67,26.91 -21.17,39.82c-5.6,13.13 -9.67,25.64 -12.65,36.92c-2.97,11.28 -4.85,21.32 -6.14,29.64c-1.28,8.33 -1.98,14.94 -2.53,19.47c-0.55,4.52 -0.96,6.96 -1.42,6.96c0,0 0,0 0,0z" fill="#00080a" fill-rule="evenodd" id="path2811"/>
     <path d="m-1050.04,993.04c-0.46,0 -0.94,-2.44 -1.24,-7.04c-0.29,-4.6 -0.39,-11.36 0.18,-19.94c0.57,-8.58 1.81,-18.98 4.27,-30.72c2.47,-11.74 6.16,-24.81 11.54,-38.56c5.28,-13.52 12.21,-27.69 21.05,-41.74c8.83,-14.04 19.56,-27.95 32.22,-40.84c0.52,-0.52 1.04,-1.05 1.56,-1.57c12.75,-12.74 26.54,-23.59 40.51,-32.55c13.96,-8.96 28.09,-16.03 41.6,-21.46c13.98,-5.62 27.31,-9.49 39.3,-12.08c11.98,-2.58 22.61,-3.9 31.39,-4.51c8.77,-0.61 15.7,-0.53 20.41,-0.24c4.71,0.29 7.21,0.78 7.21,1.25c0,0.46 -2.5,0.88 -7.14,1.44c-4.63,0.56 -11.4,1.28 -19.91,2.61c-8.52,1.33 -18.78,3.29 -30.29,6.39c-11.51,3.09 -24.26,7.34 -37.62,13.16c-12.9,5.63 -26.37,12.73 -39.68,21.54c-13.32,8.8 -26.49,19.31 -38.71,31.52c-0.5,0.5 -1,1.01 -1.5,1.51c-12.14,12.35 -22.55,25.62 -31.24,39.02c-8.69,13.39 -15.67,26.9 -21.18,39.81c-5.59,13.13 -9.67,25.65 -12.64,36.93c-2.97,11.27 -4.85,21.31 -6.14,29.64c-1.28,8.32 -1.98,14.94 -2.53,19.46c-0.55,4.53 -0.96,6.96 -1.42,6.97z" fill="#00080a" fill-rule="evenodd" id="path2813"/>
     <path d="m-801.51,742.22c0,-0.46 2.5,-0.88 7.13,-1.44c4.63,-0.56 11.41,-1.28 19.92,-2.61c8.51,-1.33 18.77,-3.29 30.28,-6.39c11.51,-3.1 24.27,-7.34 37.62,-13.16c12.9,-5.63 26.37,-12.74 39.69,-21.54c13.32,-8.8 26.48,-19.31 38.7,-31.52c0.51,-0.5 1.01,-1.01 1.5,-1.51c12.15,-12.35 22.55,-25.62 31.25,-39.02c8.69,-13.39 15.67,-26.9 21.17,-39.81c5.6,-13.13 9.67,-25.65 12.64,-36.93c2.98,-11.27 4.86,-21.31 6.14,-29.64c1.29,-8.32 1.99,-14.94 2.54,-19.46c0.55,-4.53 0.96,-6.97 1.42,-6.97c0.46,0 0.94,2.44 1.23,7.04c0.3,4.6 0.39,11.36 -0.18,19.94c-0.56,8.58 -1.81,18.98 -4.27,30.72c-2.46,11.74 -6.15,24.81 -11.53,38.56c-5.29,13.52 -12.22,27.69 -21.05,41.73c-8.83,14.05 -19.57,27.96 -32.22,40.84c-0.52,0.53 -1.04,1.06 -1.57,1.58c-12.75,12.74 -26.54,23.58 -40.5,32.54c-13.96,8.96 -28.09,16.04 -41.6,21.47c-13.98,5.62 -27.32,9.49 -39.3,12.07c-11.98,2.59 -22.61,3.91 -31.39,4.52c-8.78,0.61 -15.7,0.53 -20.41,0.24c-4.71,-0.29 -7.21,-0.78 -7.21,-1.25z" fill="#00080a" fill-rule="evenodd" id="path2815"/>
     <path d="m-1051.51,991.57c0,-0.47 2.5,-0.88 7.13,-1.44c4.63,-0.56 11.41,-1.28 19.92,-2.62c8.51,-1.33 18.77,-3.29 30.28,-6.38c11.51,-3.1 24.27,-7.35 37.62,-13.17c12.9,-5.62 26.37,-12.73 39.69,-21.54c13.32,-8.8 26.48,-19.3 38.7,-31.52c0.51,-0.5 1.01,-1 1.5,-1.51c12.15,-12.35 22.55,-25.62 31.25,-39.01c8.69,-13.4 15.67,-26.91 21.17,-39.82c5.6,-13.13 9.67,-25.64 12.64,-36.92c2.98,-11.28 4.86,-21.32 6.14,-29.64c1.29,-8.33 1.99,-14.94 2.54,-19.47c0.55,-4.52 0.96,-6.96 1.42,-6.96c0.46,0 0.94,2.44 1.23,7.04c0.3,4.59 0.39,11.36 -0.18,19.93c-0.56,8.58 -1.81,18.98 -4.27,30.72c-2.46,11.74 -6.15,24.82 -11.53,38.56c-5.29,13.52 -12.22,27.7 -21.05,41.74c-8.83,14.04 -19.57,27.95 -32.22,40.84c-0.52,0.53 -1.04,1.05 -1.57,1.58c-12.75,12.73 -26.54,23.58 -40.5,32.54c-13.96,8.96 -28.09,16.03 -41.6,21.46c-13.98,5.62 -27.32,9.49 -39.3,12.08c-11.98,2.59 -22.61,3.91 -31.39,4.52c-8.78,0.61 -15.7,0.52 -20.41,0.23c-4.71,-0.29 -7.21,-0.78 -7.21,-1.24z" fill="#00080a" fill-rule="evenodd" id="path2817"/>
    </g>
   </g>
  </g>
 </g>
</svg>